<?xml version="1.0" encoding="UTF-8"?>
<svg id="Capa_1" data-name="Capa 1" xmlns="http://www.w3.org/2000/svg" viewBox="0 0 441.13 190.24">
  <path d="M332.55,167.67c-.02,5.67-.08,11.33-.04,17,0,1.42-.2,2.35-1.84,2.65-11.61,2.13-23.28,3.2-34.9.54-12.23-2.81-19.91-11.94-20.22-24.41-.38-15.17-.21-30.36-.14-45.54.01-2.36-.55-3.33-3.01-3.04-1.61.19-3.26.02-4.9.04-.65,0-1.59-.26-1.87.42-1.29,3.14-3.11,1.47-4.94.71-14.12-5.83-28.69,1.02-32.14,15.09-.64,2.63-.68,5.33-.68,8.02-.01,15.18-.06,30.36.05,45.54.02,2.45-.7,3.05-3.06,2.99-6.34-.16-12.69-.1-19.04-.03-1.73.02-2.5-.24-2.5-2.31.08-28.34.07-56.69.02-85.03,0-1.76.46-2.3,2.25-2.27,6.73.11,13.46.09,20.19,0,1.68-.02,2.2.56,2.1,2.16-.11,1.79-.03,3.6-.03,5.38.36.03.61.12.7.04,8.91-7.77,19.51-9.7,30.92-9.12,4.34.22,8.54,1.28,12.85,1.61,2.31.17,3.22-.41,3.09-2.93-.22-4.31.03-8.65-.1-12.97-.05-1.77.53-2.53,2.24-2.98,3.24-.86,6.38-2.11,9.62-2.95,1.7-.44,2.28-1.12,2.26-2.92-.1-9.61-.11-19.21,0-28.82.03-2.11-.67-2.8-2.6-2.43-2.92.57-3.45-.77-3.34-3.43.22-5.33.06-5.33,5.46-5.33,3.08,0,6.16.07,9.23-.03,1.53-.05,2.19.23,2.18,1.99-.07,14.12.24,28.26-.17,42.36-.18,5.93-.06,11.87-.41,17.79-.13,2.26.65,2.7,2.75,2.66,7.79-.12,15.58.02,23.36-.09,2.15-.03,3.09.37,2.95,2.79-.22,3.83-.17,7.69-.01,11.52.08,2.01-.49,2.61-2.54,2.58-7.88-.12-15.77.04-23.65-.1-2.29-.04-2.88.62-2.86,2.88.11,12.01.05,24.02.06,36.03,0,2.89.3,5.74.96,8.56,1.22,5.2,4.56,8,9.73,8.9,6.74,1.18,13.19.13,19.45-2.45.88-.36,1.77-.7,2.65-1.04l-.06-.06h0Z" fill="gray" stroke-width="0"/>
  <path d="M149.07,78.26c0,5.81.03,11.27-.02,16.73-.02,1.8,1.2,1.36,2.17,1.39,7.61.25,15.15,1.01,22.31,3.83,16.35,6.43,25.05,18.67,26.96,35.9.85,7.7.48,15.38-1.99,22.78-5.81,17.36-18.55,26.56-36.09,29.45-11.69,1.93-23.43,1.6-34.64-2.76-16.88-6.57-25.79-19.33-27.54-37.11-1.12-11.35.55-22.23,7.26-31.86,6.91-9.92,16.46-15.93,28.16-18.54,2.16-.48,2.66-1.31,2.65-3.38-.08-19.5-.01-38.99-.09-58.49,0-2.15.38-3.17,2.78-2.88,1.8.22,3.66.17,5.47,0,1.82-.17,2.96.23,2.66,2.75,4.16-3.3,8.51-4.03,13.3-3.43,10.05,1.27,15.56,6.17,17.56,16.11,1.05,5.23,1.13,10.48-.14,15.71-2.22,9.11-9.25,14.99-18.68,15.62-4.05.27-8.05.1-12.1-1.82h0ZM160.55,139.14c.34-.2.68-.41,1.01-.61,1.16,1.39,2.2,2.9,3.51,4.13,3.69,3.48,8.88,3.44,12.15.06,3.37-3.49,3.4-8.48-.17-12.15-6.22-6.41-12.5-12.78-18.87-19.05-3.76-3.7-8.62-3.7-12.35-.03-6.44,6.34-12.8,12.75-19.11,19.21-3.77,3.86-3.76,9.1-.13,12.59,3.55,3.42,8.47,3.16,12.32-.65,1.38-1.36,2.74-2.74,4.53-4.52v2.78c0,9.13-.05,18.25.02,27.38.04,4.84,3.38,8.43,7.85,8.71,4.83.3,8.41-2.68,9.11-7.66.17-1.23.13-2.49.13-3.74,0-8.81,0-17.63,0-26.44h0ZM169.57,56.29c-.07-1.29-.07-2.74-.24-4.16-.99-8.21-9.19-12.98-16.88-9.84-2.16.88-3.56,2.08-3.46,4.89.24,6.52.15,13.05.03,19.57-.03,1.87.74,2.77,2.29,3.46,8.41,3.73,17.37-1.5,18.09-10.61.08-1.05.11-2.11.17-3.31h0Z" fill="gray" stroke-width="0"/>
  <path d="M332.62,167.72c-1.1-3.92-3.13-7.48-4.04-11.49-6.2-27.47,9.01-51.91,36.58-58.14,14.24-3.22,28.36-2.41,41.64,4.01,13.34,6.45,21.62,16.86,23.08,32.06.45,4.69-.6,9.15-1.52,13.66-.34,1.64-1.44,1.48-2.6,1.48-8.84,0-17.69,0-26.53,0-14.61,0-29.22.05-43.83-.05-2.26-.02-2.68.5-2.29,2.72,1.68,9.45,7.5,15.25,16.31,17.92,10.49,3.18,21.05,2.67,31.41-1,1.17-.41,2.23-1.11,3.39-1.56,1.56-.61,2.84-2.86,4.31-2.16,1.31.62,1.91,2.75,2.8,4.23,1.79,2.95,3.43,6.01,5.39,8.85,1.31,1.9.71,2.66-1.05,3.65-7.53,4.22-15.72,6.08-24.19,6.84-12.13,1.08-24.2,1.11-35.86-3.13-9.1-3.31-16.6-8.73-21.91-16.96-.26-.41-.35-1.16-1.16-.97l.06.06h0ZM379.51,133.58c7.88,0,15.76-.04,23.64.03,1.67.01,2.1-.34,1.75-2.1-1.56-7.92-5.89-13.38-13.65-15.97-4.93-1.64-9.99-1.76-15.1-1.43-10.61.68-18.56,7.1-21.68,17.31-.59,1.92-.17,2.22,1.69,2.2,7.78-.09,15.57-.04,23.35-.04Z" fill="gray" stroke-width="0"/>
  <path d="M27.72,106.26c11.87-10.15,25.69-11.12,40.06-8.88,18.44,2.87,29.6,15.54,29.87,34.14.26,17.96.04,35.92.11,53.88,0,1.81-.58,2.28-2.3,2.26-6.63-.08-13.27-.12-19.89.02-2.1.04-2.5-.69-2.5-2.62.06-16.71.04-33.42-.02-50.14,0-2.1-.24-4.22-.6-6.29-1.37-8.01-5.87-12.47-13.93-14.02-9.72-1.87-18.45.29-26.28,6.32-1.5,1.16-2.06,2.48-2.05,4.41.07,19.79,0,39.57.1,59.36.01,2.43-.69,3.05-3.05,2.99-6.44-.16-12.88-.12-19.32-.02-1.89.03-2.4-.52-2.39-2.42.06-28.24.07-56.48,0-84.72,0-2.13.71-2.54,2.63-2.48,4.23.13,8.46.14,12.68,0,1.77-.06,2.83.42,3.58,2.06.95,2.07,2.15,4.03,3.3,6.14h0Z" fill="gray" stroke-width="0"/>
  <path d="M79.22,33.43c7.81,3.2,12.66,8.72,13.78,17.28.33,2.53-.06,4.97-.4,7.44-.26,1.87-1.62,1.55-2.83,1.55-9.13,0-18.27.1-27.4-.06-2.84-.05-2.94,1.01-2.27,3.21,1.37,4.5,4.42,7.14,8.93,7.97,5.2.97,10.15.31,14.72-3.26,1.25,2.41,2.45,4.74,3.66,7.06.47.9,0,1.35-.67,1.88-12.22,9.68-33.9,2.41-37.53-12.6-3.08-12.74,2.19-24.85,12.91-29.62,5.04-2.24,10.24-2.27,15.52-1.12.52.09,1.05.17,1.57.26h0ZM71.02,51.49c2.98,0,5.96-.08,8.94.03,1.87.07,2.59-.25,1.97-2.39-1.5-5.22-5.04-7.8-11.01-7.66-5.19.11-9.34,3.44-10.47,8.3-.29,1.25-.03,1.77,1.34,1.74,3.07-.06,6.15-.02,9.23-.02h0Z" fill="gray" stroke-width="0"/>
  <path d="M353.67,55.82c-.1,3.64-.32,6.5-1.13,9.29-3.09,10.64-11.72,16.01-24.07,14.96-9.69-.82-17.12-8.46-18.33-18.8-.73-6.22-.4-12.28,2.64-17.91,4.68-8.7,13.96-12.59,24.66-10.42,8.85,1.79,15.1,9.11,15.98,18.75.15,1.62.21,3.26.26,4.13h0ZM320.99,56.4c0,2.3.13,4.59.71,6.84,1.33,5.12,4.58,7.96,9.42,8.17,4.8.21,8.47-2.34,10.19-7.24,1.66-4.74,1.58-9.61.54-14.45-1.12-5.18-4.26-8.03-8.88-8.33-5.33-.34-8.85,1.99-10.81,7.11-.98,2.55-1.17,5.21-1.16,7.9h0Z" fill="gray" stroke-width="0"/>
  <path d="M219.64,75.77c-4.71,2.69-9.24,4.55-14.4,4.42-9.18-.23-14.7-5.17-14.99-14.35-.33-10.27-.09-20.55-.17-30.83-.01-1.54.67-1.7,1.9-1.67,2.21.07,4.43.13,6.63-.02,1.79-.12,2.29.47,2.27,2.25-.09,7.68-.04,15.37-.04,23.05v2.59c.01,5.65,1.41,8.48,4.71,9.56,4.34,1.41,10.51-.68,13.18-4.37.81-1.12.85-2.28.84-3.54,0-8.93.09-17.87-.07-26.8-.04-2.36.72-2.95,2.88-2.75,1.81.17,3.66.18,5.47,0,2.12-.21,2.51.68,2.5,2.61-.08,13.64-.08,27.28,0,40.92.01,1.95-.42,2.84-2.53,2.61-1.52-.17-3.08-.14-4.61,0-2.46.21-4.48.05-3.59-3.67h0Z" fill="gray" stroke-width="0"/>
  <path d="M112.43,80.15c-4.11.3-8.2-.9-12.12-2.91-1.13-.58-1.73-1.15-.89-2.39.21-.31.3-.7.46-1.05.84-1.83,1.22-4.37,2.65-5.28,1.36-.86,3.09,1.51,4.87,2.09,2.42.79,4.86,1.11,7.37.91,2-.16,3.86-.67,4.49-2.9.63-2.23.07-4.22-1.67-5.74-1.75-1.53-3.88-2.46-5.99-3.38-2.38-1.04-4.75-2.08-6.86-3.61-4.55-3.31-7.04-7.54-5.89-13.36,1.16-5.84,5.45-8.37,10.66-9.56,5.69-1.3,11.25-.38,16.65,1.76,1.62.64,1.94,1.44,1.18,3.03-.82,1.72-.87,4.12-2.13,5.25-1.58,1.41-3.08-1.25-4.89-1.44-2.47-.26-4.9-.97-7.41-.25-1.5.43-2.59,1.22-2.96,2.79-.41,1.75-.01,3.23,1.45,4.35,2,1.54,4.34,2.44,6.64,3.4,2.48,1.04,4.97,2.05,7.15,3.65,4.28,3.13,5.97,7.43,5.43,12.57-.53,5.03-3.39,8.42-7.99,10.41-3.15,1.36-6.46,1.78-10.19,1.65h0Z" fill="gray" stroke-width="0"/>
  <path d="M274.15,67.38c.85,1.81,1.48,3.66,2.51,5.23,1.78,2.69.71,3.89-1.86,5.02-7.78,3.44-15.75,3.74-23.49.59-9.02-3.67-12.2-11.41-12.43-20.59-.22-9.02,2.57-16.83,10.69-21.54,8.22-4.77,16.9-5.08,25.6-.84,2.03.99,2.84,2.11,1.17,4.07-.18.21-.28.5-.43.75-.88,1.48-1.42,3.54-2.72,4.27-1.2.67-2.6-1.3-4.07-1.86-9.83-3.77-18.52,1.86-19.02,12.39-.02.38-.03.77-.04,1.15-.09,5.38.54,10.68,5.87,13.43,5.68,2.93,11.49,2.5,16.88-1.21.39-.27.8-.52,1.32-.85Z" fill="gray" stroke-width="0"/>
  <path d="M0,33.36c3.43,0,6.7.12,9.96-.05,1.8-.09,2,1.12,2.43,2.24,2.91,7.5,5.79,15.02,8.71,22.52.34.86.42,1.87,1.49,2.71,2.99-7.12,5.94-14.13,8.87-21.14,1.75-4.19,4.91-6.29,9.49-6.29h4.03c.22,1.15-.46,1.93-.83,2.76-6.28,13.99-12.62,27.95-18.87,41.95-.66,1.47-1.34,2.2-3.11,2.21-1.81.02-2.23-1-2.78-2.27C13,63.43,6.6,48.87.21,34.3c-.07-.17-.08-.36-.21-.94Z" fill="gray" stroke-width="0"/>
  <path d="M79.22,33.43c-.52-.09-1.05-.17-1.57-.26,0-7.85.06-15.7-.08-23.55-.04-2.12.74-2.84,2.62-2.41,1.69.4,3.23.04,4.89-.25,4.82-.85,8.44,1.78,9.46,6.56,1.77,8.37-2.38,13.13-10.96,12.44-1.17-.09-1.59.18-1.55,1.31.04,1.05-.12,2.13.03,3.15.33,2.28-.66,3.16-2.84,2.99h0ZM82.03,16.66c0,.76,0,1.53,0,2.29.02,3.18.74,3.83,3.88,3.5,3.69-.39,5.47-4.29,3.99-8.74-.78-2.35-3.01-3.45-5.75-3-2.53.41-2.1,2.27-2.12,3.95,0,.67,0,1.33,0,2h0Z" fill="gray" stroke-width="0"/>
  <path d="M144.05,6.86c6.11,0,8.21,2.04,8.73,7.49.32,3.39-.61,6.93,1.1,10.18.33.63-.06,1.09-.62,1.38-1.02.53-2.29.67-2.95-.18-1.13-1.44-1.94-.93-3.23-.26-2.55,1.31-5.25,1.19-7.63-.5-2.15-1.53-2.35-3.85-1.83-6.22.64-2.9,2.83-4.2,5.47-4.86,1.11-.27,2.28-.25,3.42-.41.57-.08,1.45.46,1.59-.62.1-.76-.37-1.28-.97-1.63-1.5-.88-3.15-.9-4.74-.45-1.58.45-2.41.23-2.8-1.57-.48-2.2,1.31-1.75,2.26-2.1.87-.32,1.89-.23,2.2-.26h0ZM144.85,22.74c2.35-.08,3.68-1.67,3.73-4.15.03-1.75-1.07-1.84-2.25-1.72-2.12.23-4.38.51-4.53,3.32-.11,2,1.35,2.51,3.05,2.55h0Z" fill="gray" stroke-width="0"/>
  <path d="M9.34,6.86c5.86-.01,8.01,1.84,8.74,6.9.53,3.65-.82,7.5,1.22,11,.28.47-.22.9-.66,1.11-1,.49-2.2.76-2.97-.08-1.17-1.28-2.04-.94-3.4-.28-2.68,1.3-5.47,1.16-7.83-.81-1.9-1.58-2.13-3.82-1.53-6.07.79-2.94,3.06-4.28,5.87-4.82,1.03-.2,2.1-.18,3.15-.33.56-.08,1.41.71,1.63-.42.14-.73-.36-1.29-.92-1.67-1.54-1.05-3.26-1.01-4.98-.63-1.35.3-2.36.42-2.72-1.4-.4-1.99,1.03-1.98,2.16-2.26.92-.22,1.9-.21,2.24-.24ZM13.72,18.83c.26-1.5-.51-2-1.95-1.99-2.78.03-4.53,1.23-4.61,3.25-.09,2.1,1.19,2.61,2.94,2.58,2.47-.05,3.67-1.34,3.62-3.84h0Z" fill="gray" stroke-width="0"/>
  <path d="M56.67,16.46c.05-5.89,3.64-9.66,9.13-9.59,5.51.06,8.82,3.84,8.7,9.94-.11,5.82-3.59,9.5-8.97,9.49-5.5,0-8.91-3.8-8.86-9.83h0ZM61.25,16.6c.05.51.08,1.18.17,1.84.29,2.31,1.24,4.02,3.88,4.12,2.56.09,3.77-1.37,4.36-3.67.49-1.92.39-3.81-.19-5.65-.53-1.7-1.79-2.69-3.61-2.79-1.68-.1-2.93.68-3.78,2.12-.71,1.2-.74,2.55-.84,4.04h0Z" fill="gray" stroke-width="0"/>
  <path d="M39.07,16.55c0,2.21,0,4.42,0,6.63,0,2.75-.83,3.67-3.35,2.57-1.7-.74-2.82-.2-4.19.16-5.23,1.39-8.58-1.04-8.69-6.38-.07-3.46.07-6.92-.07-10.37-.07-1.8.75-2,2.23-2.01,1.57-.02,2.25.38,2.2,2.09-.11,3.26-.05,6.53,0,9.8.03,2.08.83,3.52,3.24,3.49,2.49-.04,4.18-1.4,4.23-3.69.08-3.17.13-6.34-.02-9.51-.09-1.93.79-2.15,2.4-2.19,1.74-.04,2.11.66,2.04,2.21-.11,2.4-.03,4.8-.03,7.2h0Z" fill="gray" stroke-width="0"/>
  <path d="M129.42,1.96c.04.82.2,1.5.09,2.13-.42,2.53.56,3.53,3.1,3.12,1.33-.22,2.12.14,2.11,1.81,0,1.7-.88,1.99-2.16,1.77-2.64-.47-3.38.7-3.06,3.15.17,1.32.02,2.68.03,4.02.03,4.47.95,5.15,5.65,4.02-.4,1.46,1.54,3.41-1.4,4.07-4.27.95-7.38-.32-8.29-3.54-.72-2.54-.19-5.16-.42-7.72-.14-1.56.98-3.6-1.75-4.38-.72-.21-.74-2.55-.03-2.76,2.13-.61,1.47-2.21,1.92-3.52.61-1.77,2.61-1.55,4.2-2.14h0Z" fill="gray" stroke-width="0"/>
  <path d="M48.79,1.87c0,1.04.09,1.72-.02,2.36-.4,2.39.53,3.33,2.95,2.98,1.13-.16,2.25-.22,2.27,1.63.02,1.82-.84,2.17-2.28,1.94-2.4-.39-3.3.53-2.97,2.94.18,1.32.03,2.68.03,4.02.03,4.69.85,5.33,5.73,4.24-.57,1.43,1.42,3.51-1.61,4.09-4.2.8-7.25-.35-8.11-3.43-.84-3-.31-6.1-.47-9.16-.06-1.1.48-2.25-1.38-2.92-1.16-.41-1.42-2.36.23-3.33.49-.29,1.24-.33,1.11-1.03-.61-3.44,2.03-3.5,4.5-4.33h0Z" fill="gray" stroke-width="0"/>
  <path d="M113.24,26.3c-.54-.11-1.82-.19-2.96-.64-.86-.34-2.55-.32-1.65-2.22.62-1.29.99-2.58,2.75-1.25.35.27.91.32,1.38.36,1.31.12,2.92.61,3.53-1.01.65-1.73-.7-2.57-2.08-3.24-1.55-.75-3.19-1.35-4.46-2.58-2.92-2.82-2.1-6.91,1.7-8.33,2.25-.84,4.52-.65,6.78.03,1.16.35,1.84.76,1.32,2.23-.5,1.38-1.04,1.89-2.45,1.11-.56-.31-1.29-.34-1.95-.38-.98-.06-2.04-.02-2.34,1.16-.28,1.08.37,1.83,1.29,2.31.77.4,1.57.72,2.35,1.07,3.81,1.72,5.14,3.82,4.48,7.04-.55,2.65-3.18,4.29-7.69,4.34h0Z" fill="gray" stroke-width="0"/>
  <path d="M301.09,21.75c0,3.44-2.73,6.24-6.13,6.28-3.35.05-6.18-2.77-6.22-6.18-.05-3.64,2.66-6.38,6.27-6.34,3.49.04,6.09,2.7,6.08,6.24h0Z" fill="gray" stroke-width="0"/>
  <path d="M104.19,16.61c0,2.3-.11,4.61.03,6.91.11,1.81-.37,2.44-2.33,2.47-2.17.03-2.27-.99-2.22-2.62.08-2.88.14-5.77-.03-8.64-.09-1.52,1.15-3.74-1.88-4.17-.77-.11-.36-1.54-.38-2.37-.02-.96.72-.97,1.41-.99.1,0,.19,0,.29,0,3.4-.27,5.1,1.34,5.1,4.81v4.61h0Z" fill="gray" stroke-width="0"/>
  <path d="M429.02,178.42c-1.82,6.04-.54,9.64,3.41,10.59,3.47.84,7-1.46,7.52-4.89.69-4.58-1.87-6.64-9.04-7.3,4.39-1.49,7.78-.42,9.48,3,1.64,3.28.47,7.36-2.68,9.34-2.97,1.87-6.79,1.27-9.12-1.42-2.41-2.79-2.37-6.35.42-9.33h0Z" fill="gray" stroke-width="0"/>
  <path d="M435.99,182.67c.21,1.39,1.75,2.55.79,4.17-1.36-.06-.81-1.14-1.06-1.74-.46-1.08-1.29-1.27-2.32-1.23-1.29.05-.81,1.01-.93,1.67-.09.5.19,1.3-.71,1.22-.81-.07-.6-.83-.62-1.35-.04-.95-.02-1.91-.01-2.86,0-3.4,1.52-4.45,4.65-3.25.78.3,1.32.82,1.33,1.67.01.8.27,1.85-1.16,1.75-.76-.4,0-.96-.16-1.45-.43-1.31-1.51-1.31-2.53-1.2-1.13.12-.77,1.13-.75,1.79.04,1.45,1.17.79,1.9.89.53.07,1.04-.52,1.59-.08h0Z" fill="gray" stroke-width="0"/>
  <path d="M104.56,2.55c-.25,1.53-1.11,2.53-2.67,2.46-1.39-.06-2.32-.94-2.33-2.43-.02-1.59.85-2.55,2.45-2.58,1.65-.03,2.33,1.07,2.56,2.55h0Z" fill="gray" stroke-width="0"/>
</svg>