<svg width="921" height="513" viewBox="0 0 921 513" fill="none" xmlns="http://www.w3.org/2000/svg">
<path d="M148.783 146.253C160.785 145.145 170.28 147.867 177.202 158.65C187.743 175.071 197.07 192.332 207.083 209.066L247.938 277.711L263.787 304.39C268.98 313.112 276.737 323.551 276.889 333.856C277.065 345.824 270.598 355.821 258.108 357.225C247.15 358.458 235.55 357.868 224.445 357.869L157.959 357.905L85.9134 357.882C76.4709 357.887 67.0226 357.949 57.5837 357.922C54.4573 357.789 50.4149 357.849 47.4203 356.91C14.7405 346.653 31.5549 319.056 43.9934 300.096C47.7868 294.313 52.1099 287.198 55.694 281.423L84.4469 234.287L109.081 193.352C116.018 181.693 123.154 169.963 130.66 158.661C133.537 154.902 136.485 151.065 140.645 148.655C143.223 147.162 145.886 146.827 148.783 146.253ZM151.663 343.911L218.448 343.872C227.189 343.868 248.11 344.497 255.765 342.791C258.084 340.701 261.325 338.451 261.422 335.059C261.502 332.23 260.778 330.236 259.374 327.812C253.01 316.823 246.377 305.993 239.854 295.101L205.125 236.86L177.039 189.123C173.116 182.485 169.3 175.761 165.286 169.182C163.002 165.437 159.722 161.904 155.243 161.143C146.8 161.992 145.549 165.8 140.82 172.23C137.425 176.847 135.198 182.07 132.166 186.923L98.3645 241.856L60.0854 304.479C54.5774 313.554 47.8367 323.114 43.7751 332.917C41.8065 337.669 49.757 342.782 53.6807 343.44C63.863 344.319 75.1861 343.938 85.4035 343.923L151.663 343.911Z" fill="white"/>
<path d="M175.004 222.765C178.846 222.328 180.146 223.373 181.993 226.737C183.363 229.231 187.167 234.289 186.366 237.138C179.707 242.677 171.982 227.438 162.57 252.482C164.971 257.485 167.688 262.209 170.404 267.042C181.059 267.566 191.747 266.773 202.387 267.135C203.763 267.181 204.947 267.216 205.893 268.264C208.093 270.703 233.677 314.883 233.546 316.716C233.198 321.556 227.238 328.437 223.705 331.538C212.096 332.183 195.681 331.724 183.552 331.728L106.917 331.708C103.345 331.718 99.3291 331.478 95.7256 331.337C97.9229 327.117 100.973 321.511 103.899 317.716C104.67 316.642 106.231 316.414 107.494 316.398C144.021 315.934 180.686 316.828 217.204 316.158C214.149 312.981 200.148 288.034 196.755 282.467C185.165 281.63 172.184 282.95 160.757 282.101C157.923 278.036 146.184 256.376 144.919 251.97C146.236 247.583 157.811 228.151 160.979 223.898C163.481 222.494 171.603 222.862 175.004 222.765Z" fill="white"/>
<path d="M147.102 194.264C151.294 194.347 157.376 194.111 161.223 194.421C166.244 194.826 168.657 204.24 172.027 208.872L172.294 209.232C167.426 209.652 159.392 209.451 154.202 209.578C146.725 218.218 139.935 232.25 133.873 242.143C129.228 249.725 121.841 259.171 118.024 267.076C124.046 267.033 134.468 264.864 137.978 270.649C139.474 273.113 143.778 278.844 143.32 281.602C141.036 283.054 114.614 280.901 110.174 282.739C107.347 283.911 96.6521 302.026 95.2962 304.851C93.6031 306.607 90.4407 312.87 88.7853 315.422C85.5947 320.34 82.2151 325.309 79.355 330.408C76.0281 327.412 71.6902 320.161 68.915 316.125C70.3213 312.484 77.3174 301.77 79.5547 298.262L99.7164 266.566L128.81 220.316C133.736 212.442 138.66 204.281 143.713 196.468C144.38 195.436 145.971 194.77 147.102 194.264Z" fill="white"/>
<path d="M386.659 218.62C397.204 218.986 408.88 220.309 418.958 224.388C420.137 224.865 426.667 230.025 429.189 231.372C433.718 230.355 438.377 225.078 443.795 224.296C455.193 222.65 468.177 221.482 479.424 224.423C489.101 227.001 497.511 233.012 503.083 241.333C504.256 243.11 505.444 245.866 506.694 248.008C505.363 239.122 506.667 231.576 506.159 222.996C516.331 222.46 527.902 222.858 538.344 222.593C537.953 244.536 538.389 266.748 538.299 288.712C538.241 304.141 548.647 302.563 560.214 302.05L565.556 298.339C568.821 287.095 567.728 273.254 567.701 261.256C567.557 248.416 567.638 235.575 567.949 222.739C573.997 223.346 592.489 222.779 599.572 222.734C600.125 227.618 599.567 238.695 599.585 244.213L599.594 276.139C599.594 302.142 599.783 323.219 568.839 330.171C545.126 335.498 514.667 330.045 508.367 302.759C507.553 305.198 506.519 307.681 505.57 310.079C500.969 320.484 492.164 326.02 481.591 329.159C465.078 334.15 447.258 332.347 432.081 324.148C419.489 334.468 411.774 335.997 395.09 336.994C384.302 337.639 366.121 334.295 358.277 326.434C349.102 317.238 350.4 303.776 350.229 291.886C362.458 291.827 373.892 291.268 386.292 291.944C385.769 290.364 379.683 287.917 377.968 286.97C368.402 281.693 360.808 278.988 353.916 270.109C354.243 276.408 354.411 282.713 354.42 289.02C347.829 289.327 338.555 288.577 332.295 289.357C332.602 300.542 332.279 311.833 332.517 323.03C332.596 326.772 332.625 330.638 332.312 334.361C328.4 333.939 321.692 334.135 317.599 334.152L292.607 334.308C292.102 297.249 292.868 258.92 292.671 221.674L356.305 221.756C356.511 224.365 356.345 226.87 356.231 229.478C359.203 227.888 361.336 225.983 365.048 224.126C372.635 220.332 379.257 220.686 386.659 218.62ZM383.631 295.964C373.802 295.656 363.975 296.032 354.368 295.75C354.813 305.597 354.28 317.82 362.296 324.494C370.449 331.283 383.882 333.207 394.052 333.19C402.991 332.982 419.872 330.015 426.185 323.213C435.503 312.961 432.686 289.257 422.713 280.408C412.469 271.319 397.71 267.677 387.067 259.42C381.452 255.064 382.242 246.372 384.999 240.706C389.381 237.988 389.759 238.061 394.835 238.243C401.283 242.921 399.446 247.86 399.47 254.992L399.69 254.95C407.981 253.447 420.032 255.925 428.098 253.419C428.895 253.172 427.369 240.056 426.883 238.356C423.071 225.042 395.832 222.238 386.604 223.202C376.557 223.863 356.57 227.756 356.358 241.827C356.262 248.213 353.108 249.393 353.417 255.307C355.299 279.337 383.537 280.497 397.769 294.208C401.181 297.495 400.648 299.992 401.421 304.888C403.062 315.272 395.746 321.665 386.3 316.38C382.703 314.367 383.524 301.219 383.631 295.964ZM332.063 263.869L349.874 263.896L350.5 263.442C349.781 257.566 349.381 253.545 349.426 247.651C344.015 247.572 338.603 247.654 333.197 247.898L332.508 248.449C332.129 252.774 331.996 259.501 332.063 263.869ZM296.612 225.402C296.097 237.534 296.734 251.72 296.798 263.979C296.912 286.097 296.518 308.482 296.806 330.564C300.751 329.945 322.56 329.891 327.624 330.152C327.711 317.262 328.22 304.316 327.71 291.419C327.625 289.263 327.445 287.307 327.55 285.139C328.571 284.49 328.18 284.676 329.535 284.666L350.254 284.724C350.119 279.388 349.825 273.268 350.073 267.998C342.528 267.938 334.984 267.918 327.439 267.939C327.714 258.751 328.155 252.737 327.389 243.554C334.506 243.68 345.386 243.723 352.479 243.326C352.287 236.996 352.524 231.566 352.47 225.419C341.45 225.695 329.85 225.488 318.787 225.485C312.238 225.484 302.88 225.843 296.612 225.402ZM472.907 251.746C470.281 250.928 465.928 249.391 463.369 249.291C457.676 249.868 453.642 250.435 449.9 255.153C441.355 265.916 442.087 292.348 452.922 301.382C462.101 309.038 474.355 305.18 478.821 294.185C479.712 292.272 479.909 290.186 480.22 288.096C483.35 287.791 487.977 287.201 490.689 287.53C507.368 289.551 506.599 288.355 506.154 272.037C506.109 270.414 506.069 267.576 506.033 265.782C497.632 265.59 485.998 266.263 478.2 265.572C476.226 258.333 478.129 257.897 472.907 251.746ZM388.756 255.781C394.909 260.231 403.927 264.436 411.022 268.006C411.456 267.433 411.551 267.614 411.544 266.959C411.519 264.443 412.48 261.426 413.095 259.004C406.982 258.822 400.894 258.979 394.838 258.412C395.038 254.239 395.785 246.754 394.315 243.097C393.129 241.971 393.213 242.279 391.367 241.909C389.905 242.332 389.251 242.239 388.463 243.67C386.582 247.087 387.804 252.249 388.756 255.781ZM395.829 313.021C400.384 306.158 396.983 297.74 390.395 293.568C389.643 293.094 388.886 292.629 388.124 292.172C388.1 297.323 386.984 310.426 390.202 313.916C392.075 314.934 394.26 314.33 395.829 313.021Z" fill="white"/>
<path d="M683.443 222.991C695.675 222.274 712.215 222.794 724.825 222.788C737.704 222.781 754.955 222.227 767.533 222.936L767.318 227.465C766.881 230.55 766.805 241.708 767.322 245.108C767.547 246.735 767.826 247.969 767.448 249.569C764.48 254.229 752.468 250.264 745.021 252.105C744.108 258.778 744.369 281.042 744.517 288.583C744.765 301.193 743.928 320.266 744.976 332.327C734.525 331.643 722.783 331.989 712.215 332.122C712.665 312.25 712.026 291.807 712.278 271.884C712.359 265.399 711.954 257.904 712.197 251.59L694.739 251.755C694.811 253.273 694.825 254.794 694.78 256.313C694.429 271.696 691.124 279.092 680.268 289.459C684.688 303.137 692.734 318.754 697.366 332.201C684.495 331.578 671.076 333.552 659.46 332.476C656.46 327.004 653.312 310.97 652.067 304.683C651.262 300.633 649.629 296.021 648.572 291.83C643.468 291.735 639.583 291.756 634.456 292.027L634.447 332.211C623.969 332.46 613.333 331.891 602.441 332.155C603.471 308.898 602.338 284.237 602.702 260.865C602.891 248.482 603.183 235.334 602.248 223.046C619.44 221.809 638 223.338 655.305 222.779C666.75 222.41 674.498 224.637 683.555 231.55L683.443 222.991ZM634.609 267.452C640.316 267.57 654.846 268.865 658.916 264.933C659.653 263.928 660.562 262.746 661.241 261.729C661.322 258.647 661.83 254.407 659.37 252.255C653.461 247.089 641.881 249.894 634.672 248.883C634.456 255.07 634.438 261.263 634.609 267.452Z" fill="white"/>
<path d="M802.133 246.362C804.543 239.006 807.3 233.686 813.78 229.102C815.058 228.197 817.117 226.64 818.498 226.077C842.395 216.34 886.071 219.68 885.783 253.904C885.725 254.058 885.666 254.212 885.612 254.367C884.465 254.849 859.682 254.668 856.606 254.496C854.043 250.728 852.446 246.192 847.585 245.221C844.1 244.525 839.989 245.782 836.662 246.819C828.85 258.632 848.772 260.725 856.287 262.918C870.578 267.09 884.911 272.131 888.702 288.432C893.316 308.523 881.434 326.399 861.198 330.238C846.973 332.936 830.586 333.316 817.612 325.703C808.816 320.197 805.663 315.05 802.142 305.71C802.173 310.027 802.596 328.871 801.908 331.812C800.919 332.558 773.855 331.853 769.88 332.181C769.142 314.064 770.033 293.83 769.768 275.394C769.682 269.241 769.138 250.856 769.583 245.563L767.321 245.108C766.804 241.708 766.88 230.55 767.317 227.465L769.484 227.556C769.502 226.186 769.471 224.233 769.574 222.91C779.405 222.596 792.406 222.547 802.254 222.828C802.281 230.673 802.241 238.518 802.133 246.362ZM802.268 296.043C810.866 294.629 821.488 295.909 830.919 294.798C832.493 297.857 834.489 301.353 836.536 304.121C840.947 305.787 848.718 306.133 852.905 304.281C853.418 304.054 853.921 303.808 854.42 303.545C855.707 302.368 857.024 301.182 857.128 299.305C857.218 297.654 856.246 296.311 855.122 295.211C846.897 287.146 818.318 287.122 807.444 272.966C804.719 269.418 804.274 265.644 802.299 261.966C802.093 269.149 802.389 276.026 802.484 283.188C802.542 287.474 802.066 291.652 802.268 296.043Z" fill="white"/>
<path d="M351.483 343.686C355.973 342.804 368.489 344.455 374.232 344.223C387.973 343.666 402.089 344.044 415.87 343.984L529.305 344.226L798.536 344.26L864.652 344.316C871.987 344.317 884.767 343.402 891.185 344.268C891.234 347.013 891.648 356.252 890.735 358.093C889.04 357.692 879.947 357.872 877.532 357.877L847.361 357.936L486.489 357.888L325.586 358.186C314.659 358.285 303.749 357.861 292.528 358.016C291.914 355.048 290.481 347.719 291.956 345.166C295.64 343.421 342.48 344.837 351.483 343.686Z" fill="white"/>
</svg>
