<svg width="366" height="361" viewBox="0 0 366 361" fill="none" xmlns="http://www.w3.org/2000/svg">
<g filter="url(#filter0_i_10_18)">
<path d="M312.251 52.5613C276.43 17.5366 233.25 0 182.808 0C132.367 0 89.2842 17.5366 53.7557 52.5613C49.3207 56.9819 45.1294 61.4996 41.2305 66.1145C13.841 98.516 0.0974718 136.407 0 179.787V180.224C0 223.798 13.7435 261.689 41.2305 293.993C45.1294 298.608 49.3207 303.078 53.7557 307.45C89.2842 342.766 132.318 360.448 182.808 360.448C233.299 360.448 276.43 342.766 312.251 307.45C347.828 272.376 365.568 230.016 365.568 180.224C365.568 130.432 347.828 87.926 312.251 52.5613ZM258.495 248.67C239.683 269.607 214.584 280.052 183.247 280.052C151.91 280.052 126.47 269.607 107.95 248.67C91.2336 229.871 82.8997 206.893 82.8997 179.787C82.8997 152.68 91.2336 129.752 107.95 110.903C126.47 89.9663 151.422 79.522 182.808 79.522C214.194 79.522 239.683 89.9663 258.495 110.903C275.212 129.752 283.594 152.68 283.594 179.787C283.594 206.893 275.212 229.871 258.495 248.67Z" fill="#E16E0E"/>
</g>
<defs>
<filter id="filter0_i_10_18" x="0" y="0" width="365.568" height="360.448" filterUnits="userSpaceOnUse" color-interpolation-filters="sRGB">
<feFlood flood-opacity="0" result="BackgroundImageFix"/>
<feBlend mode="normal" in="SourceGraphic" in2="BackgroundImageFix" result="shape"/>
<feColorMatrix in="SourceAlpha" type="matrix" values="0 0 0 0 0 0 0 0 0 0 0 0 0 0 0 0 0 0 127 0" result="hardAlpha"/>
<feOffset/>
<feGaussianBlur stdDeviation="9.1"/>
<feComposite in2="hardAlpha" operator="arithmetic" k2="-1" k3="1"/>
<feColorMatrix type="matrix" values="0 0 0 0 1 0 0 0 0 1 0 0 0 0 1 0 0 0 1 0"/>
<feBlend mode="normal" in2="shape" result="effect1_innerShadow_10_18"/>
</filter>
</defs>
</svg>
