<?xml version="1.0" encoding="UTF-8"?>
<svg id="Capa_1" data-name="Capa 1" xmlns="http://www.w3.org/2000/svg" viewBox="0 0 1293.15 247">
  <path d="M128.82,247c-4.92-3.81-3.9-7.63-.05-11.49,3.19-3.19,6.35-6.42,9.94-10.07-8.23-1.25-15.7-3.06-23.35-6.22-.58,10.64-8.36,14.17-16.73,15.93-8.12,1.71-14.05-3.3-18.65-9.31-2.53-3.3-5.28-6.17-9.05-8.71,6.55-2.18,11.1-6.73,16.68-10.58-2.2-.88-3.95-1.32-5.42-2.21-3.19-1.92-4.84-2.27-6.82,2.09-3.63,7.98-15.48,10.12-24.94,5.17-6.91-3.62-11.87-9.22-15.8-15.82,8.88-4.71,17.52-9.27,28.06-10.74-2.05-2.19-3.63-3.8-5.11-5.49-1.34-1.53-2.2-1.31-3.9-.05-13.07,9.64-28.21,6.5-36.82-7.51-2.28-3.71-4.09-7.64-4.27-12.75,3.91.85,7.55,1.85,11.26,2.4,3.63.53,7.33.86,11.49-.34-2.29-4.55-2.52-9.96-10.84-6.97-6.68,2.4-12.23-2.42-16.27-7.86-6.18-8.3-7.36-18.07-7.89-27.96-.2-3.65-.03-7.32-.03-11.82,6.43,2.25,10.73,6.95,16.46,11.28-.17-7.74,1.24-13.66-6.42-19.06-11.65-8.2-13.34-24.24-5.67-36.43C16.86,43.12,29.24,23.85,41.77,4.69c1.12-1.71,1.37-6.56,5.53-3.92,4.61,2.92-.22,5.2-1.36,7.07-6.08,9.96-12.71,19.59-18.9,29.49-1.1,1.77-4.71,4.28-1.71,6.06,2.8,1.66,3.71-2.54,4.96-4.41,6.74-10.1,13.22-20.36,19.91-30.49,1.34-2.03,2.08-5.33,6.12-2.81,4.39,2.73.84,4.66-.33,6.53-6.22,9.88-12.68,19.61-18.97,29.45-1.25,1.96-3.74,3.69-2,6.7,3.3.04,3.87-2.91,5.13-4.82,6.71-10.11,13.29-20.31,19.85-30.52,1.47-2.29,2.56-3.97,5.81-1.9,3.63,2.31.73,3.85-.24,5.37-7.65,11.96-15.46,23.82-23.15,35.75-.86,1.33-2.92,3.04-.35,4.46,2.1,1.16,2.65-1.16,3.43-2.36,7.65-11.69,15.18-23.46,22.92-35.08,1.22-1.83,1.54-5.86,5.81-3.29,4.8,2.88.74,5.05-.5,7.03-5.94,9.52-12.22,18.82-18.19,28.32-1.15,1.84-4.76,4.36-1.69,6.17,2.68,1.59,3.59-2.6,4.85-4.47,6-8.94,11.61-18.13,17.82-26.92,1.49-2.1,1.71-8.29,6.9-4.59,4.81,3.43-.66,5.91-1.96,8.06-8.19,13.5-16.84,26.73-25.43,39.99-1.56,2.41-2.17,4.74-2.02,7.68.87,17.15-7.61,27.23-24.72,29.26-3.06.36-3.38,1.41-3.85,4.09-1.61,9.18,4.68,15.84,6.89,24.3,4.45-5.24,9.39-9.45,11.05-16.4,10.01,8.46,17.81,17.49,16.54,31.13-.57,6.11-5.15,8.67-10.8,10.16,2.65,6.3,7.3,10.44,14.13,15.61-3.52-11.15,4.64-18.04,5.05-27.82,8.33,8.58,15.51,17.2,18.84,28.27,2.13,7.07-1.75,11.29-8.75,13.6,5.7,5.92,11.83,9.95,19.35,11.77.53,0,1.06,0,1.59-.01-.26-.37-.51-.74-.77-1.11-2.26-6.24-4.29-12.52-4.12-19.3.08-3.24.56-4.79,4.31-2.82,3.83,2.02,7.96,3.53,12.06,5,14.89,5.33,16.92,13.18,5.97,24.72,9.29,5.53,19.41,8.04,29.93,8.94,15.49,1.32,30.76-.47,45.93-3.7,3.6-.77,4.58-2.01,3.98-5.4-.39-2.23-.29-4.57-.22-6.86.33-10.73,5.07-15.73,15.87-17,5.84-.69,12.02-.01,17.39-4.71.51,8.85-2.25,16.84-1.27,25.3,6.18-.87,10.97-4.43,16.07-7.32,2.5-1.42,1.63-2.65.23-4.19-2.66-2.91-4.71-6.2-5.98-9.94-3.52-10.4.81-19.51,11.01-22.99,3.64-1.24,7.35-2.26,9.87-5.65,4.62,6.8,10.77,12.23,8.73,22.51,6.47-5.49,8.5-11.74,11.25-17.52,1.26-2.64-1.37-2.91-2.72-3.85-12.21-8.49-14.92-22.61-6.34-34.73,3.1-4.38,5.62-8.76,4.74-15.63,8.18,8.01,11.91,16.98,15.43,26.29,2.24-4.27,3.85-16.01,3.32-19.59-.39-2.65-2.4-2.47-3.97-3.03-13.52-4.85-19.55-13.38-18.82-27.53.19-3.67-.68-6.54-2.65-9.55-8.63-13.23-17.18-26.52-25.44-39.99-1.19-1.93-6.5-4.26-1.1-7.4,5.04-2.93,5.04,2.47,6.42,4.46,6.63,9.61,12.8,19.54,19.23,29.29.89,1.34,1.71,4.07,3.91,2.65,2.18-1.4.14-3.29-.77-4.7-6.7-10.39-13.51-20.72-20.21-31.11-1.1-1.7-3.4-3.38-.12-5.58,3.22-2.16,4.31-.2,5.75,2.04,7.71,11.93,15.45,23.83,23.26,35.69.85,1.29,1.34,4.14,3.84,2.5,2.45-1.62.05-3.17-.79-4.47-7.67-11.94-15.44-23.83-23.16-35.75-1.17-1.81-3.07-3.41.37-5.34,3.06-1.71,3.96-.12,5.29,1.94,6.83,10.58,13.66,21.17,20.66,31.64,1.05,1.58,1.63,5.38,4.56,3.42,2.26-1.51-.4-3.68-1.39-5.24-6.28-9.84-12.85-19.52-18.95-29.46-1.23-2.01-6.14-4.39-.79-7.57,4.64-2.76,4.95,1.7,6.3,3.72,6.78,10.07,13.26,20.34,20,30.43,1.1,1.64,1.97,5.42,4.64,3.54,2.45-1.73-.62-4.02-1.71-5.74-6.75-10.63-13.69-21.14-20.5-31.74-.97-1.51-3.29-3.13-.32-5.03,2.62-1.67,3.64.23,4.81,1.97,13.66,20.35,27.21,40.79,39.45,62,8.62,14.95.27,34.18-16.58,40.29-3.95,1.43-7.35,11.63-4.7,14.52,1.33,1.45,2.82.45,4.22-.46,2.88-1.88,5.94-3.49,8.77-5.44,3.92-2.7,5.33-1.21,6.27,2.88.94,4.07,1.48,8.11,1.21,12.24-.47,7.32-1.98,14.28-9.5,17.75-7.31,3.37-13.81,1.87-19.22-5-.38,2.62-.51,4.41-.92,6.13-2.26,9.61-2.27,9.69,7.17,8.27,5.65-.85,11.26-2.02,17.94-3.24-4.73,9.05-8.27,17.87-15.88,24.14-8.09,6.66-14.73,7.36-22.87,2.22-1.64-1.04-2.26-.66-3.32.39-2.11,2.08-4.3,4.07-7.3,6.89,7.56,1.58,14.34,3,21.32,4.45-1.97,2.74-2.48,5.88-3.44,8.88-4.19,13.07-17.24,18.18-29.28,11.51-1.58-.87-2.84-2.29-4.35-3.3-2.83-1.89-1.18-7.85-4.28-7.46-4.22.53-8.09,3.75-12.34,6.63,8.95.74,15.32,5.37,20.88,12.07-9.9,4.39-18.27,11.4-28.77,14.52-6.24,1.86-10.51-.73-14.85-4.63-4.09-3.68-3.5-7.54-1.1-12.42-9.72,1.39-18.89,3.09-29.36,2.91,4.6,4.89,9.53,8.24,12.38,13.35,1.21,2.16,3.81,3.97.15,6.77-3.84,2.94-4.55-.14-6.08-2.17-14.05-18.62-36.44-19.4-51.73-1.72-2.23,2.58-4.04,5.51-6.05,8.27h-1.38Z" fill="#666" stroke-width="0"/>
  <path d="M100.86,109.33c3.22-16.05,5.26-32.57,19.25-44.03,2.39-1.96,1.15-11.41-1.65-13.25-1.85-1.21-3.94-2.36-3.49-4.56,1.73-8.54-3.36-15.34-5.45-22.89-.35-1.27-.73-2.53-1.36-4.68,2.75,1.64,4.92,2.68,6.81,4.11,4.15,3.14,7.78,4.93,9.46-2.2.54-2.3,2.1-2.38,3.53-1.05,3.89,3.61,5.76,1.23,7.68-2.15,1.54-2.72,3.43-5.24,5.56-8.44,2.66,3.87,4.93,7.18,7.25,10.55q6.74-7.57,12.96-1.51c1.42-2.03,2.82-4.02,4.19-5.98.55.11,1.12.05,1.37.3,2.98,3.05,3.86,9.35,7.83,9.43,2.57.06,5.27-5.58,8.12-8.9,2.61,2.93,4.27,4.8,6.04,6.8,1.54-1.28,3.05-2.54,5.03-4.18,1.56,3.8,2.91,7.11,4.25,10.37,1.38.41,2.26-.37,2.96-1.18,3.95-4.58,7.36-4.3,10.43.94,1.97,3.36,4.05,2.88,6.23.08,2.38-3.06,4.87-6.03,7.31-9.03.67.49,1.34.98,2.01,1.47-2.07,7.55-5.09,14.98-5.95,22.66-1.02,9.17-8.07,15.5-9.67,24.17-.77,4.18-2.13,8.24-.63,12.6,1.48,4.31,2.34,8.84,3.85,13.14,4.31,12.3,3.85,24.2-2.14,35.92-2,3.92.38,7.77,4.91,8.33,3.28.41,4.76,2.33,5.44,5.26,1.03,4.43-.58,8.14-3.35,11.39-4.54,5.33-17.08,8.86-23.68,6.04-3.58-1.53-8.75.05-9.35.54-5.99,4.9-8.73-.7-11.63-3.34-5.91-5.39-18.65-6.32-24.68-1.08-6.68,5.8-24.66,7.66-32.48,3-2.72-1.62-4.71-2.11-8.01-1.12-16.9,5.06-34.45-10.37-31.39-27.6,1.97-11.09,10.37-15.44,20.5-17.42-.83,4.01,2.55,3.71,4.92,5.28-.11-3.44,1.33-6.76-2.97-7.83ZM214.43,149.37c1.55-1.21,4.14.11,5.25-2.14.73-1.46,1.09-2.95.55-4.58-.3-.9-.72-1.86-1.77-1.22-5.39,3.29-5.56-1.32-6.45-4.32-.74-2.5-1.75-4.61-4.07-5.93-.32-.88-2.15-1.52-.66-2.7,5.35-4.22,1.06-5.56-2.19-6.23-5.62-1.17-11.22-3.4-17.19-1.02-3.09,1.23-5.9-.01-7.66-2.85-2-3.23-1.7-6.51.51-9.56,1.13-1.56,2.74-2.61,4.69-2.27,2.88.51.72,3.08,1.59,4.46-1.97-1.1-3.86-1.93-5.09.96-1.02,2.39-.47,4.47,1.42,6.07,1.7,1.44,4.01,1.79,5.59.24,2.7-2.64-1.59-2.75-2.01-4.4-.26-1.04-1.12-1.99-.01-3,6.48,2.13,9.51.48,10.16-5.78.29-2.8,1.36-4.77,4.13-5.66,2.51-.81,4.27-.06,5.59,2.14-1.75,1.8-5.97.28-5.22,3.5.67,2.85,3.48-.14,5.32.35.87.23,1.84.03,2.74.17,4.4.7,5.31-1.21,4.1-5.07-2.25-7.19-4.33-14.43-6.59-21.62-.62-1.97-1.38-3.67-.13-5.82,2.31-3.97-.05-6.02-3.68-6.92-7.35-1.82-14.72-3.6-22.3-4.25-1.89-.16-4.9-.2-4.83,1.37.35,7.48-5.22,13.7-3.97,21.34,1.38,8.44.63,16.85-1.24,25.2-1.39,6.24-2.59,12.54-2.37,19,.09,2.56.38,5.06,2.35,6.96,1.98,1.91,4.17,1.53,6.35.38,3.28-1.73,3.14-4.75,2.85-7.78-.11-1.14-.42-2.44-1.85-2.46-3.8-.07-1.45,4.04-3.47,5.74-2.15-2.56-2.31-4.74-.27-6.91,1.6-1.71,3.67-1.95,5.7-1.01,2.45,1.14,2.86,3.42,2.64,5.83-.48,5.17-3.68,9.26-5.66,13.83-2.53,5.83-2.12,7.63,2.51,11.29q4.61-11.12,8.4-14.13-5.17,14.61,1.82,16.41c-1.27-4.25-2.98-8.44.57-12.16.19.16.37.33.55.5.19,3.42-.66,7.27,4.06,9.47-1-8.56,5.71-14.92,4.85-23,.38.17.76.33,1.15.5,1.91,4.38.93,8.39-1.31,12.39-2.08,3.72-2.91,7.69-.99,11.8.94,2.01,2.29,2.74,4.35,1.34,1.49-1.01,3.37-1.69,1.51-4.03-1.61-2.03-2.15-4.32-.45-7.36,1.86,3.25,2.05,8.02,7.23,6.99,2.2-.44,4.02-1.24,2.92-4.07ZM137.16,36.64c-.93-4.5,2.76-6.96,4.46-10.88,1.03,1.28,1.63,2.19,2.39,2.93,1.14,1.09,1.79,3.9,4.06,1.97,2.04-1.74-.07-3.28-1.05-4.59-1.86-2.5-3.13-5.5-6.41-7.71-2.31,4.33-4.23,8.64-6.8,12.53-3.18,4.82-2.18,6.47,3.45,5.66-4.76,3.58-10.75,4.66-15.79,7.65-1.24.74-3.45,1.12-2.47,3.35,1.17,2.65,2.67.41,3.88-.06,1.91-.74,3.67-1.88,5.55-2.69,28.42-12.28,55.65-5.56,82.62,5.18.83.33,1.57.92.84,2.01-2.78,1.38-6.08-4.96-8.57.55-.82,1.81-2.34,2.21-3.98,1.86-1.31-.28-2.58-1.1-2.76-2.67-.29-2.52,2.34-2.27,3.63-3.62-15.77-5.64-31.84-7.75-48.76-6.88.8,2.67,3.79,4.71.18,6.26-1.7.73-4.71.76-4.57-1.26.48-6.93-3.61-3.59-6.28-3.08-5.45,1.06-10.23,4.07-15.4,5.72-5.48,1.75.7,4.84-1.48,6.55,4.07-1.22,5.85,3.88,9.74,3.42,6.15-.73,12.31-1.64,18.54-1.09,17.32,1.52,34.79,1.74,51.76,6.21,1.81.48,5.02,1.67,5.28-1.04.38-3.87,3.95-6.89,2.57-11.04,1.14-2.17,4.93,1.63,5.11-2.07.11-2.24-2.49-2.43-4.02-3.17-12.79-6.17-26.54-9.05-40.43-11.43-11.89-2.04-23.63-1.46-35.3,1.45ZM119.21,114.93c.2,2.7-3.06,4.52-1.99,7.64,3.17-.31,6.73.12,6.03-4.85,3.89,8.7,3.65,11.71-1.14,14.57-1.67-1.87,1.71-4.53-.94-6.12-.59-.35-2.02-.13-2.54.37-2.27,2.18-1.87,4.82-1.13,7.59.36,1.36,2.38,2.49.83,4.22-1.54.1-2.89-2.18-4.63-.68.64,2.71,2.95,3.08,4.52,4.27-.36.46-.73.93-1.09,1.39-1.89-.41-4.63-1.83-3.39,2.18,1.57,5.09,4.79,8.95,10.11,10.36,4.96,1.32,9.6.49,13.27-3.48,4.04-4.36,5.8-9.72,6.97-15.4,1.53-7.45.29-14.77-.42-22.1,4.8,12.93,4.74,25.69-2.62,39.12,4.7-1.87,7.66-3.37,8.91-7.74,1.14-3.99,2.15-8.45,6.5-10.68,1.76,4.91-5.07,7.48-3.26,13.41,4.37-4.44,10.18-7.02,8.67-14.03-2.47-1.6-3.28,2.78-5.5.69,1.54-2.97,4.53-5.55,1.6-9.64,4.15.48,2.74,5.27,6.09,5.58,3.17-20.46,12.14-40.74,1.68-61.28-7.79,11.63,1.57,25.23-5.36,37.38,1.33-13.57,2.88-27.18-8.97-37.51-2.9,4.83-5.06,9.65-4.68,15.1.97,14.1,5.08,27.82,5.24,42.02.01,1.3,2.76,3.15-.13,3.79-3,.67-2.22-2.23-2.32-3.78-1.2-17.44-7.06-34.33-5.4-53.02-6.74,4.01-9.65,10.22-14.38,14.52,3.08-9.42,8.66-16.62,17.5-20.98,2.79-1.37,4.91-3.05,4.67-6.47-4.78-1.35-7.63,3.99-12.09,2.84.6-1.29,1.2-2.58,1.69-3.64-6.11-3.53-6.73,3.17-9.98,5.04-.86-1.61-1.15-5.09-3.94-2.04-3.25,3.56-6.89,7.08-9.82,10.41-9.57,10.87-12.39,24.99-11.44,39.58.16,2.43,1.23,2.44,2.87,1.17.34.32.69.64,1.03.96-4.45,8.01-5.69,16.23-1.32,26.52,2.31-7.96,4.22-14.45,6.06-20.95.73-2.59.08-6.04,4.25-6.32ZM93.36,126.84c2.32.61,2.88,4.86,6.19,2.88,1.92-1.14,2.72-3.01,2.94-5.16.31-3.09-1-5.36-3.7-6.76-1.64-.85-3.4-1.24-5.33-.88-4.71.89-7.82,3.46-9.5,7.97-4.18,11.19,5.23,27.28,17.1,29.14,2.84.45,5.97.43,7.8-1.59,2.27-2.51-1.08-4.36-2.09-6.41-1.51-3.05-4.07-5.61-4.47-9.18-.34-3-1.53-4.11-4.91-3.88-3.94.27-4.95-2.48-4.02-6.13ZM195.96,117.74c4.12-3.29,8.94,5.28,13.75-1.67,1.45-2.1,5.83-3.52,2.9-6-2.01-1.71-6.55-4.81-10.04-.35-2.06,2.63-4.24,5.16-6.6,8.03ZM166.45,26.97c3.2,1.56,2.92,8.14,6.39,5.86,3.51-2.3-2.16-5.19-2.78-8.18-.04-.21-.25-.38-.35-.58-1.94-3.98-4.06-5.43-6.57-.43-1.42,2.83-6.31,6.21-4.07,8.06,3.9,3.23,4.23-3.88,7.38-4.73ZM192.69,23.8c-1.78,1.94-3.1,2.96-3.86,4.3-1.35,2.37-6.29,4.27-3.87,6.79,2.78,2.89,3.91-3.25,6.82-3.41,2.46,1.72,1.72,7.5,7.46,5.88-2.17-4.49-4.15-8.58-6.56-13.56ZM160.82,74.19c1.13-3.71,2.04-6.29,2.68-8.93.4-1.65,1.51-3.91-.99-4.68-1.88-.58-4.19-.73-6.05-.2-1.75.5-1.37,2.71-1.23,4.24.33,3.7,1.75,6.84,5.6,9.57ZM219.38,31.65c-3.65,2.15-7.19,4.23-10.73,6.31-1.17.69-1.54,1.69-.9,2.86.73,1.32,1.71.85,2.88.41,1.17-.43,2.25-2.9,3.74-.63.79,1.21-1.66,4.37,1.71,3.87,2.16-.32,2.11-3.33,2.33-5.22.29-2.43,1.9-4.69.96-7.6ZM115.39,29.74q1.35,8.41,7.75,5.33c-2.8-1.71-4.44-4.51-7.75-5.33ZM170.92,149.66c.36-3.26,4.86-6.33,1.04-9.84-.82-.76-2.29-.47-3.06.55-2.73,3.62.3,6.24,2.02,9.29ZM171.26,69.86c-1.05-2.93,3.48-5.45.25-8.3-.57-.51-2.87-.28-3.08.19-1.48,3.27.46,5.69,2.83,8.11ZM165.28,136.47c-1.46,4.14-2.18,7.16-1.95,10.36.03.36,2,1.04,2.15.85,2.05-2.59.55-5.6.79-8.43.03-.41-.28-.84-.99-2.79Z" fill="#666" stroke-width="0"/>
  <path d="M764.56,145.53h-19.96c1.6-22.01,1.66-43.78-.07-65.93,8.88.15,19.2-.85,29.43,1.02,6.65,1.21,12.18,4,14.46,11.06,2.34,7.23.16,13.3-5.34,17.88-3.29,2.74-2.36,3.98-.12,6.62,6.22,7.34,10.54,16.13,17.46,22.97,7.43,7.34,10.05,6.99,14.01-2.77,6.1-15.03,11.84-30.21,17.59-45.38,1.29-3.4,2.11-7.01.49-10.5.59-.41.91-.82,1.25-.84q12.18-.46,16.66,10.53c5.71,13.96,11.46,27.9,17.15,41.87,1.9,4.67,3.94,9.24,8.95,13.76-8.15,0-14.95-.06-21.75.03-2.86.04-3.1-1.07-1.81-3.2.11-.18.11-.44.14-.67,1.13-9.32-3.67-14.88-12.85-14.88-.69,0-1.38,0-2.07,0-10.25,0-14.56,4.21-13.81,14.69.26,3.56-.32,4.17-3.59,4.1-8.51-.18-17.03-.2-25.54-.02-6.95.15-11.88-2.91-15.41-8.61-3.62-5.84-7.15-11.72-10.86-17.5-1.38-2.15-3.31-4.42-6.1-3.64-3.09.86-1.64,3.94-1.52,5.91.46,7.59-2.06,15.58,3.22,23.52ZM761.24,100.57c0,2.96.05,5.92-.02,8.88-.05,2.24.57,3.61,3.16,2.78,4.51-1.44,7.54-4.46,8.36-9.06.76-4.32.81-8.78-3.32-11.81-2.04-1.5-4.67-2.73-6.99-1.83-2.28.88-.97,3.64-1.16,5.57-.17,1.81-.04,3.64-.03,5.46ZM844.66,117.13c.21-3.1-1.52-5.64-2.57-8.34-1.06-2.71-1.46-5.78-3.84-8.22-.86,2.18-1.64,4.06-2.36,5.97q-4.48,11.9,8.76,10.59Z" fill="#989898" stroke-width="0"/>
  <path d="M1119.74,194.91H357.23c4.14-2.8,756.08-3.35,762.5,0Z" fill="#989898" stroke-width="0"/>
  <path d="M441.2,145.44h-20.06c2.96-15.84-3-30.79-3.41-46.91-3.06,2.74-3.35,6-4.43,8.83-4.41,11.51-8.75,23.05-13.11,34.58-.63,1.67-.75,3.64-3.22,3.86-2.93.25-3.26-2.07-3.97-3.88-4.7-11.89-9.29-23.82-14.02-35.69-.89-2.24-1.15-4.87-3.87-7.09-1.01,15.75-5.72,30.59-4.39,46.37h-11.83c3.11-21.87,7.41-43.36,7.74-65.96,3.91,0,9.6.15,15.28-.06,3.66-.13,3.86,2.62,4.69,4.86,4.11,11.1,8.15,22.23,12.76,34.83,4.22-11.71,8.28-22.07,11.63-32.65,1.71-5.4,4.25-7.86,10.13-7.08,4.07.54,8.26.1,12.44.1-2.34,9.89,2.9,55.49,7.65,65.9Z" fill="#989898" stroke-width="0"/>
  <path d="M485.32,146.74c-22.03-.12-36.79-13.78-36.86-34.12-.08-19.7,15.68-34.75,36.06-34.44,22.04.33,36.47,14.12,36.27,34.65-.19,19.99-14.87,34.02-35.47,33.91ZM503.62,115.98c-.05-7.72-1.76-14.98-6.42-21.28-4.7-6.36-11.18-8.57-18.85-6.97-6.64,1.39-11.23,7.06-12.25,14.9-.84,6.41-.51,12.81,1.56,18.97.86,2.57,2.05,5.1,3.51,7.38,4.89,7.63,12.55,10.5,20.77,8.03,7.86-2.36,11.87-9.58,11.68-21.04Z" fill="#989898" stroke-width="0"/>
  <path d="M908.26,145.84c2.44-22.45,2.12-44,.18-66.21,11.36.53,23.88-1.84,36.33.82,16.42,3.51,24.91,15.28,24.58,33.79-.31,17.02-9.73,28.24-26.05,31.25-11.92,2.2-23.81-.26-35.03.35ZM925.12,112.9c0,6.62.03,13.24-.02,19.86-.02,2.25.25,3.7,3.13,4.2,10.77,1.88,20.47-4.13,22.93-14.76,1.24-5.37,1.52-10.77.48-16.29-2.31-12.18-9.14-17.61-21.54-17.24-3.73.11-5.27,1.08-5.06,5.06.32,6.37.09,12.78.09,19.17Z" fill="#989898" stroke-width="0"/>
  <path d="M1113.82,79.56c8.9.25,18.78-.72,28.62.89,6.94,1.14,12.9,3.66,15.33,10.92,2.47,7.37.24,13.54-5.5,18.47-2.22,1.91-3.02,2.81-.57,5.64,4.78,5.52,8.67,11.8,13.02,17.7,3.41,4.62,7.26,8.83,12.72,11.49-14.95,4.16-23.15,1.05-30.73-11.43-2.97-4.89-5.94-9.78-9.08-14.56-1.3-1.98-3.44-3.49-5.84-2.54-2.13.85-1.07,3.3-.96,4.92.54,8.03-2.09,16.39,2.92,24.38h-19.96c2.24-21.88,2.13-43.46.02-65.89ZM1142.41,99.24c-.1-.81-.12-2.21-.48-3.51-1.32-4.75-5.34-6.77-9.43-6.23-3.45.45-1.37,4.52-1.66,6.93-.35,2.92-.28,5.93-.02,8.87.21,2.34-1.52,5.82,1.06,6.79,3.26,1.23,5.94-1.57,8.06-3.99,2.06-2.34,2.55-5.28,2.47-8.86Z" fill="#989898" stroke-width="0"/>
  <path d="M629.85,145.66h-11.76c.05-22.03,1.27-43.91-.79-65.98,6.32-1.39,12.3.53,17.94,6.74,9.23,10.16,19.56,19.34,30.38,29.87-.58-12.42,1.08-24.24-1.41-36.39h12.64c-2.85,13.31-.97,26.73-1.42,40.06-.23,6.87.02,13.75-.08,20.62-.03,1.69,1,3.99-1.19,4.94-2.47,1.07-4.26-.5-5.97-2.24-6.26-6.41-12.63-12.71-18.94-19.07-6.61-6.65-13.19-13.33-21.32-21.54.99,15.42-1.39,28.93,1.92,42.98Z" fill="#989898" stroke-width="0"/>
  <path d="M1017.59,93.81c-5.99-6.35-13-3.47-19.39-3.93-2.3-.16-2.09,1.8-2.27,3.41-1.28,11.4-.35,12.57,12.74,11.59,4.86-.36,6.03.53,5.87,5.38-.14,4.22-1.58,4.56-5.22,4.46-13.38-.38-12.86-.2-13.58,12.93-.4,7.3,2.1,9.17,8.73,8.24,6.61-.92,13.98,2.24,19.88-4.44.56,4.98-1.5,8.85-2.33,12.92-.35,1.72-1.21,1.94-2.85,1.93-13.57-.09-27.13-.05-39.51-.05,1.26-22.38,1.55-44.11-.31-66.95,11.1,0,23.57.04,36.05-.03,2.69-.02,2.14,1.77,2.17,3.24.06,3.43.02,6.86.02,11.31Z" fill="#989898" stroke-width="0"/>
  <path d="M735.09,130.65c-1.38,5.56-2.4,9.48-3.32,13.42-.34,1.46-.71,2.29-2.61,2.27-13.75-.11-27.51-.06-40.43-.06,2.21-22.76,2.36-44.54-.11-66.93,11.32,0,23.48.1,35.62-.08,2.57-.04,3.18.72,3.1,3.03-.12,3.65-.03,7.31-.03,11.5-5.92-6.39-13.16-3.54-19.78-3.89-2.18-.11-1.85,2.1-1.99,3.67q-1.03,11.51,10.23,11.46c1.38,0,2.87.31,4.12-.09,3.61-1.17,4.61.4,3.97,3.54-.5,2.47,2.32,6.44-3.93,6.3-14.47-.31-14.24.04-14.51,14.66-.09,5.04,1.04,7.19,6.39,6.43,7.44-1.06,15.66,2.55,23.27-5.23Z" fill="#989898" stroke-width="0"/>
  <path d="M1221.9,93.73c-6.02-6.09-13.01-3.41-19.45-3.94-2.39-.19-2.32,1.61-2.31,3.27.01,2.75.17,5.51-.04,8.25-.25,3.18,1.26,3.88,4.09,3.78,4.51-.17,9.03-.04,13.83-.04.06.47.11,1.36.27,2.24,1.14,6.08-1.1,7.91-7.43,7.5-10.7-.68-10.73-.22-10.73,10.57s0,10.61,10.97,10.43c6.04-.1,12.66,1.83,17.52-4.51.19,1.16.49,1.81.37,2.37q-2.73,12.18-15.21,12.17c-10.35,0-20.7,0-30.38,0,2.21-22.04,2.36-43.82-.21-66.51,11.55,0,23.88.04,36.2-.03,2.37-.01,2.54,1.3,2.52,3.07-.04,3.44-.01,6.87-.01,11.4Z" fill="#989898" stroke-width="0"/>
  <path d="M1231.73,79.54c6.59,0,13.22-.05,19.86.04,1.38.02,3.66-.92,3.81,1.59.5,8.74,6.91,14.71,10.36,23.11,4.24-6.98,8.33-13.24,10.49-20.33,1.06-3.47,2.11-4.88,5.81-4.5,3.59.37,7.24.08,11.09.08-15.88,19.23-28.83,38.94-20.41,65.81-6.34,1.05-13.08.24-20.4.43,9.93-27.45-5.51-46.42-20.6-66.24Z" fill="#989898" stroke-width="0"/>
  <path d="M1079.07,131.51c.18.44.38.67.35.86q-2.43,13.44-16.14,13.44c-9.86,0-19.73,0-28.42,0,1.67-22.11,1.5-43.85.12-65.93h19.81c-3.81,5.03-3.45,10.54-3.44,16.01.03,11.67.17,23.34-.08,35.01-.08,3.88,1.01,5.45,4.98,4.96,7.72-.96,16.27,2.71,22.82-4.35Z" fill="#989898" stroke-width="0"/>
  <path d="M551.35,79.98c-3.6,4.88-3.58,9.62-3.55,14.43.08,12.13.16,24.26-.05,36.38-.06,3.7.69,5.61,4.84,5.08,7.5-.95,15.59,2.43,22.78-3.97.21,4.86-1.53,8.41-2.29,12.14-.38,1.87-1.31,2.25-3.34,2.23-13.1-.18-26.2-.09-40.01-.09,4.8-11.27,2.61-22.44,2.56-33.38-.05-10.79,2.41-21.87-2.46-32.81h21.52Z" fill="#989898" stroke-width="0"/>
  <path d="M603.5,80.01c-1.5,21.92-1.49,43.43-.02,65.37h-17.45c1.32-21.87,1.31-43.39-.01-65.37h17.48Z" fill="#989898" stroke-width="0"/>
  <path d="M1217.72,183.54c0-3.72.05-6.42-.01-9.12-.07-3.04-.52-5.71,4.31-5.67,4.46.03,5.37,1.58,5.28,5.61-.23,11.21-.56,22.45.1,33.63.39,6.74-3.87,7.44-7.36,5.57-3.35-1.79-5.16-.49-7.74.25-6.64,1.89-13.99-.72-17.77-6.13-3.88-5.56-3.89-14.47-.03-20.09,3.74-5.46,10.9-7.98,17.71-6.14,1.54.41,3,1.13,5.51,2.11ZM1217.82,197.32c-.49-4.45-2.37-8.36-8.19-8.39-5.25-.03-7.96,2.97-8.23,8.06-.28,5.34,2.12,8.84,7.65,9.41,4.74.49,8.59-3.44,8.77-9.08Z" fill="#989898" stroke-width="0"/>
  <path d="M1255.14,194.21c-2.36-7.41-7.98-6.42-12.81-4.61-3.91,1.47-5.47.59-6.47-2.87-1.14-3.97,2.39-3.73,4.41-4.42,15.55-5.31,24.52,1.13,24.55,17.48,0,2.74-.36,5.54.08,8.21.93,5.75-2.53,7.44-6.57,5.66-3.45-1.53-5.73-.47-8.7.2-3.31.75-6.78.69-10.1-.79-4.07-1.81-6.05-4.97-5.86-9.17.18-3.95,2.45-6.55,6.36-8.05,4.83-1.86,9.95-.3,15.12-1.63ZM1250.29,200.2c-3.07.4-7.08-.53-7.13,4.19-.03,2.83,2.76,3.45,5.02,3.42,3.37-.05,6.5-1.28,6.88-5.11.41-4.16-3.19-1.64-4.77-2.5Z" fill="#989898" stroke-width="0"/>
  <path d="M1132.86,192.04c0-4.81.09-9.62-.03-14.42-.09-3.64-.36-6.39,5.12-6.39,5.49,0,5.15,2.79,5.1,6.41-.1,7.78.19,15.58-.12,23.35-.16,3.99,1.19,5.16,5.02,4.86,3.89-.3,7.82.05,11.73-.11,2.87-.11,4.6.1,4.63,3.86.03,3.89-1.54,4.47-4.86,4.38-7.13-.2-14.28-.34-21.39.04-4.49.24-5.49-1.46-5.27-5.51.31-5.48.08-10.98.08-16.48Z" fill="#989898" stroke-width="0"/>
  <path d="M1182.93,214.19c-9.06.1-12.96-3.65-13.21-12-.09-2.97-.02-5.94-.02-8.91,0-2.04.38-4.28-2.95-3.96-1.26.12-2.22-.59-2.17-2.02.05-1.55-.2-4.58.56-4.41,7.63,1.7,1.18-12.19,9.96-8.74.2.08.56-.09.67.02,3.64,3.82,6.74,8.07,11.54,10.9,1.41.83.28,4.93-3.58,4.28-3.82-.64-4.74,1.21-4.46,4.6.23,2.72.1,5.48.05,8.22-.05,2.76,1.54,5.08,3.94,4.4,4.33-1.23,5.64,1.17,5.64,4.13,0,4.6-4.36,2.51-5.97,3.48Z" fill="#989898" stroke-width="0"/>
  <path d="M1282.79,208.26c-.77,3.93-2.61,6.2-6.59,5.88-3.61-.28-5.45-2.59-5.33-5.9.13-3.75,2.5-5.68,6.39-5.5,3.75.18,4.91,2.73,5.53,5.51Z" fill="#989898" stroke-width="0"/>
  <path d="M100.86,109.33c4.3,1.07,2.85,4.38,2.97,7.83-2.37-1.58-5.75-1.27-4.92-5.28,0,0-.06-.51-.06-.51,0,0,.51-.18.51-.18,1.26-.01,1.92-.56,1.74-1.89l-.24.03Z" fill="#cbcbcb" stroke-width="0"/>
  <path d="M101.1,109.3c.18,1.32-.48,1.88-1.74,1.89.13-1.04.02-2.3,1.74-1.89Z" fill="#cbcbcb" stroke-width="0"/>
  <path d="M98.57,200.1c.26.37.51.74.77,1.11-.53,0-1.06,0-1.59.01.27-.37.55-.74.82-1.12Z" fill="#cbcbcb" stroke-width="0"/>
  <path d="M118.23,141.93c-1.57-1.19-3.88-1.55-4.52-4.27,1.75-1.5,3.09.77,4.63.68,1.55-1.73-.47-2.86-.83-4.22-.73-2.77-1.13-5.41,1.13-7.59.52-.5,1.95-.72,2.54-.37,2.65,1.59-.73,4.25.94,6.12,4.79-2.86,5.03-5.87,1.14-14.57l.09.11c-.44-7.82-2.72-15.54-.46-23.52.87-3.08,2.95-6.11,1.82-9.63,0,0-.1.14-.1.14,3.73-5.53,7.46-11.06,11.2-16.59l-.11.09c1.01,0,1.63-.37,1.49-1.5l-.11.12c1.61-.31,3.53-.31,2.84-2.87l-.1.13c4.47,1.15,7.31-4.19,12.09-2.84.24,3.42-1.88,5.1-4.67,6.47-8.84,4.35-14.42,11.55-17.5,20.98,4.73-4.31,7.64-10.52,14.38-14.52-1.66,18.69,4.2,35.58,5.4,53.02.11,1.56-.68,4.45,2.32,3.78,2.89-.64.14-2.5.13-3.79-.15-14.2-4.27-27.92-5.24-42.02-.38-5.45,1.78-10.27,4.68-15.1,11.85,10.33,10.29,23.94,8.97,37.51,6.93-12.15-2.43-25.75,5.36-37.38,10.45,20.55,1.49,40.82-1.68,61.28-3.35-.31-1.94-5.09-6.09-5.58,2.93,4.09-.06,6.68-1.6,9.64l.08-.07c-4.35,2.23-5.36,6.69-6.5,10.68-1.25,4.37-4.21,5.87-8.91,7.74,7.36-13.42,7.42-26.18,2.62-39.12.71,7.33,1.95,14.66.42,22.1-1.17,5.68-2.93,11.04-6.97,15.4-3.67,3.97-8.31,4.81-13.27,3.48-5.32-1.42-8.53-5.28-10.11-10.36-1.24-4.01,1.51-2.6,3.39-2.19,4.63.86,9.34,2.21,13.1-2.16,6.35-2.23,6.01-7.67,5.29-12.5-1.58-10.64-9.64-19.63-7.74-31.29-2.5,7.66-.87,14.79,1.21,22,1.98,6.85,4.51,13.84.65,20.93-3.63,1.74-7.45,2.16-11.41,1.63Z" fill="#cbcbcb" stroke-width="0"/>
  <path d="M187.03,111c-.88-1.38,1.28-3.96-1.59-4.47-1.95-.34-3.56.71-4.69,2.27-2.21,3.05-2.51,6.33-.51,9.56,1.76,2.84,4.57,4.09,7.66,2.85,5.97-2.39,11.57-.15,17.19,1.02,3.25.68,7.54,2.02,2.19,6.23-1.5,1.18.34,1.82.66,2.7-.41.4-.83.8-1.24,1.2-.63-.31-1.26-.61-1.89-.92l.09.07c-.01-.91-.33-1.61-1.34-1.69-1.15-.1-1.22.8-1.39,1.59-.36.27-.69.57-1.01.88-.38-.17-.76-.33-1.15-.5.86,8.09-5.85,14.44-4.85,23-4.72-2.21-3.86-6.06-4.06-9.47.29-.24.58-.47.87-.71-.58-.65-1.04-.47-1.43.21-3.54,3.71-1.84,7.91-.57,12.16q-6.99-1.8-1.82-16.41-3.8,3-8.4,14.13c-4.63-3.65-5.05-5.46-2.51-11.29,1.99-4.57,5.18-8.66,5.66-13.83.22-2.41-.19-4.7-2.64-5.83-2.03-.94-4.09-.7-5.7,1.01-2.04,2.17-1.89,4.35.27,6.91,2.01-1.7-.34-5.81,3.47-5.74,1.43.03,1.74,1.32,1.85,2.46.29,3.03.43,6.05-2.85,7.78-2.18,1.15-4.37,1.53-6.35-.38-1.97-1.9-2.26-4.4-2.35-6.96-.22-6.46.98-12.76,2.37-19,1.86-8.35,2.62-16.77,1.24-25.2-1.25-7.64,4.33-13.86,3.97-21.34-.07-1.57,2.94-1.53,4.83-1.37,7.58.65,14.95,2.43,22.3,4.25,3.63.9,5.99,2.95,3.68,6.92-1.25,2.15-.49,3.85.13,5.82,2.25,7.19,4.33,14.43,6.59,21.62,1.21,3.86.3,5.78-4.1,5.07-.9-.14-1.88.06-2.74-.17-1.84-.49-4.65,2.51-5.32-.35-.75-3.22,3.47-1.69,5.22-3.5-1.32-2.2-3.08-2.94-5.59-2.14-2.77.89-3.83,2.86-4.13,5.66-.66,6.26-3.68,7.91-10.16,5.78l.11.12ZM184.31,80.54c5.78.45,10.05,5.25,16.06,4.51,2.18-.27,4.4-.47,3.8-3.46-.53-2.64,1.51-6.11-2.24-7.78-7.88-3.52-12.3,2.34-17.62,6.73ZM204.44,69.65c-10.34-4.25-18.96-.8-26.92,5.62,9.17-.98,17.39-6.25,26.92-5.62Z" fill="#cbcbcb" stroke-width="0"/>
  <path d="M211.81,51.86c1.37,4.14-2.19,7.16-2.58,11.03-.27,2.7-3.48,1.51-5.28,1.04-16.97-4.47-34.44-4.69-51.76-6.21-6.24-.55-12.39.36-18.54,1.09-3.9.46-5.67-4.64-9.74-3.42,2.18-1.71-4-4.8,1.48-6.55,5.18-1.65,9.95-4.66,15.4-5.72,2.66-.52,6.76-3.85,6.28,3.08-.14,2.03,2.87,1.99,4.57,1.26,3.61-1.55.62-3.59-.18-6.26,16.92-.87,32.99,1.24,48.76,6.88-1.29,1.35-3.92,1.11-3.63,3.62.18,1.57,1.45,2.38,2.76,2.67,1.63.35,3.16-.05,3.98-1.86,2.48-5.51,5.79.82,8.57-.55l-.09-.1ZM185.23,53.39c-13.38-3.23-26.88-4.46-40.6-2.21,13.58-.05,27.04,1.9,40.6,2.21Z" fill="#cbcbcb" stroke-width="0"/>
  <path d="M109.19,114.72c-1.64,1.26-2.71,1.26-2.87-1.17-.96-14.59,1.86-28.7,11.44-39.58,2.93-3.32,6.57-6.85,9.82-10.41,2.79-3.05,3.08.43,3.94,2.04l.14-.15c-2.4-.71-2.33,1.5-2.88,2.64-2.55,5.27-3.55,10.95-4.16,16.72,0,0,.1-.14.1-.14-1.26,1.04-2.52,2.08-3.82,3.15-.9-2.56.49-5.21-1.35-7.87-.52,4.88-1.41,9.36-1.36,13.83.05,4.61,1.63,9.33-2.84,12.77,2.15,2.26,3.74-2.01,4.84-.11.9,1.56,1.14,3.95-.17,5.83-.6.86-1.83,1.46-.89,2.79l.11-.14c-4.17.28-3.52,3.72-4.25,6.32-1.84,6.51-3.75,12.99-6.06,20.95-4.37-10.29-3.13-18.52,1.32-26.52.13-.53.54-1.38.36-1.54-.61-.51-1.1-.06-1.39.59Z" fill="#cbcbcb" stroke-width="0"/>
  <path d="M93.36,126.84c-.93,3.65.08,6.41,4.02,6.13,3.37-.23,4.57.88,4.91,3.88.4,3.57,2.96,6.12,4.47,9.18,1.01,2.05,4.36,3.9,2.09,6.41-1.83,2.02-4.96,2.04-7.8,1.59-11.87-1.86-21.28-17.95-17.1-29.14,1.68-4.51,4.79-7.08,9.5-7.97,1.94-.36,3.69.03,5.33.88,2.7,1.4,4.01,3.68,3.7,6.76-.21,2.15-1.02,4.02-2.94,5.16-3.31,1.97-3.87-2.28-6.19-2.88Z" fill="#cbcbcb" stroke-width="0"/>
  <path d="M211.9,51.96c.73-1.08,0-1.68-.84-2.01-26.97-10.74-54.2-17.46-82.62-5.18-1.89.82-3.64,1.95-5.55,2.69-1.21.47-2.71,2.71-3.88.06-.98-2.23,1.23-2.61,2.47-3.35,5.04-2.99,11.03-4.06,15.79-7.65l-.1.1c11.67-2.91,23.41-3.48,35.3-1.45,13.89,2.38,27.64,5.25,40.43,11.43,1.53.74,4.13.93,4.02,3.17-.18,3.7-3.97-.1-5.11,2.07,0,0,.09.11.09.11Z" fill="#cbcbcb" stroke-width="0"/>
  <path d="M214.43,149.37c1.1,2.83-.72,3.63-2.92,4.06-5.18,1.03-5.37-3.74-7.23-6.99-1.71,3.04-1.17,5.33.45,7.36,1.85,2.34-.02,3.02-1.51,4.03-2.07,1.4-3.42.66-4.35-1.34-1.92-4.11-1.09-8.08.99-11.8,2.24-4.01,3.22-8.02,1.31-12.39.32-.31.66-.6,1.01-.88.91.04,1.76,1.53,2.73.1,0,0-.09-.07-.09-.07.2,4.55,2.37,8.54,3.75,12.74.63,1.92,1.62,4.35,4.64,3.87l-.13-.12c-.44,1.42.62,1.37,1.49,1.52l-.13-.09Z" fill="#cbcbcb" stroke-width="0"/>
  <path d="M195.96,117.74c2.36-2.86,4.54-5.4,6.6-8.03,3.49-4.46,8.03-1.35,10.04.35,2.93,2.48-1.45,3.9-2.9,6-4.81,6.96-9.63-1.61-13.75,1.67Z" fill="#cbcbcb" stroke-width="0"/>
  <path d="M137.27,36.53c-5.63.82-6.63-.84-3.45-5.66,2.57-3.89,4.48-8.21,6.8-12.53,3.28,2.21,4.56,5.21,6.41,7.71.98,1.31,3.09,2.86,1.05,4.59-2.28,1.94-2.93-.88-4.06-1.97-.77-.73-1.36-1.65-2.39-2.93-1.7,3.93-5.38,6.38-4.46,10.88,0,0,.11-.1.11-.1Z" fill="#cbcbcb" stroke-width="0"/>
  <path d="M166.45,26.97c-3.16.85-3.48,7.96-7.38,4.73-2.24-1.86,2.65-5.24,4.07-8.06,2.52-5,4.63-3.55,6.57.43.1.2.3.37.35.58.62,2.99,6.29,5.87,2.78,8.18-3.47,2.28-3.2-4.3-6.39-5.86Z" fill="#cbcbcb" stroke-width="0"/>
  <path d="M192.69,23.8c2.41,4.97,4.38,9.06,6.56,13.56-5.74,1.62-5-4.16-7.46-5.88-2.9.16-4.04,6.3-6.82,3.41-2.42-2.52,2.52-4.42,3.87-6.79.76-1.34,2.08-2.36,3.86-4.3Z" fill="#cbcbcb" stroke-width="0"/>
  <path d="M160.82,74.19c-3.85-2.72-5.27-5.87-5.6-9.57-.14-1.53-.52-3.74,1.23-4.24,1.86-.53,4.17-.38,6.05.2,2.5.77,1.39,3.03.99,4.68-.64,2.64-1.55,5.22-2.68,8.93Z" fill="#cbcbcb" stroke-width="0"/>
  <path d="M207.95,131.17c2.32,1.33,3.33,3.44,4.07,5.93.89,3,1.06,7.62,6.45,4.32,1.04-.64,1.47.32,1.77,1.22.55,1.63.18,3.12-.55,4.58-1.12,2.25-3.71.93-5.25,2.14,0,0,.13.09.13.09.76-1.72-.53-1.46-1.49-1.52,0,0,.13.12.13.12-2.17-5.23-4.33-10.46-6.5-15.69.41-.4.83-.8,1.24-1.2Z" fill="#cbcbcb" stroke-width="0"/>
  <path d="M219.38,31.65c.94,2.91-.67,5.17-.96,7.6-.23,1.89-.18,4.9-2.33,5.22-3.37.5-.92-2.66-1.71-3.87-1.49-2.27-2.57.2-3.74.63-1.17.44-2.16.9-2.88-.41-.64-1.16-.27-2.17.9-2.86,3.54-2.08,7.07-4.16,10.73-6.31Z" fill="#cbcbcb" stroke-width="0"/>
  <path d="M156.37,135.65c2.21,2.09,3.03-2.3,5.5-.69,1.5,7.01-4.3,9.59-8.67,14.03-1.81-5.94,5.02-8.5,3.26-13.41,0,0-.08.08-.08.08Z" fill="#cbcbcb" stroke-width="0"/>
  <path d="M186.92,110.88c-1.1,1.02-.25,1.96.01,3,.41,1.64,4.7,1.75,2.01,4.4-1.57,1.54-3.88,1.2-5.59-.24-1.89-1.6-2.44-3.68-1.42-6.07,1.23-2.89,3.12-2.07,5.1-.96,0,0-.11-.12-.11-.12Z" fill="#cbcbcb" stroke-width="0"/>
  <path d="M131.51,65.6c3.25-1.87,3.87-8.57,9.98-5.04-.49,1.06-1.09,2.35-1.69,3.64,0,0,.1-.13.1-.13-1.8.13-3.2.64-2.84,2.87,0,0,.11-.12.11-.12-1.36-.35-2.25-.24-1.49,1.5,0,0,.11-.09.11-.1-1.12-1.31-4.86,1.25-4.15-2.78l-.14.15Z" fill="#cbcbcb" stroke-width="0"/>
  <path d="M115.39,29.74c3.31.82,4.95,3.62,7.75,5.33q-6.41,3.09-7.75-5.33Z" fill="#cbcbcb" stroke-width="0"/>
  <path d="M170.92,149.66c-1.72-3.05-4.74-5.67-2.02-9.29.77-1.02,2.23-1.31,3.06-.55,3.82,3.51-.68,6.58-1.04,9.84Z" fill="#cbcbcb" stroke-width="0"/>
  <path d="M123.26,117.72c.7,4.97-2.86,4.53-6.03,4.85-1.07-3.12,2.19-4.93,1.99-7.64,0,0-.11.14-.11.14,3.26-1.88,2.5,2.35,4.24,2.76l-.09-.11Z" fill="#cbcbcb" stroke-width="0"/>
  <path d="M171.26,69.86c-2.36-2.41-4.31-4.84-2.83-8.11.21-.47,2.51-.7,3.08-.19,3.23,2.85-1.3,5.37-.25,8.3Z" fill="#cbcbcb" stroke-width="0"/>
  <path d="M165.28,136.47c.71,1.95,1.02,2.38.99,2.79-.24,2.83,1.26,5.84-.79,8.43-.15.19-2.12-.5-2.15-.85-.23-3.2.49-6.22,1.95-10.36Z" fill="#cbcbcb" stroke-width="0"/>
  <path d="M129.63,140.3c3.87-7.09,1.34-14.08-.64-20.93-2.08-7.2-3.71-14.34-1.21-22-1.9,11.66,6.17,20.65,7.74,31.29.72,4.84,1.06,10.28-5.29,12.5-.2-.29-.4-.58-.6-.86Z" fill="#cbcbcb" stroke-width="0"/>
  <path d="M123.35,117.83c-1.75-.41-.99-4.64-4.24-2.76-.94-1.33.29-1.93.89-2.79,1.32-1.88,1.07-4.27.17-5.83-1.09-1.9-2.69,2.37-4.84.11,4.47-3.44,2.89-8.16,2.84-12.77-.05-4.47.84-8.94,1.36-13.83,1.84,2.67.46,5.31,1.35,7.87,1.3-1.08,2.56-2.11,3.82-3.15,1.13,3.51-.95,6.55-1.82,9.63-2.26,7.98.02,15.7.46,23.52Z" fill="#cbcbcb" stroke-width="0"/>
  <path d="M131.65,65.45c-.71,4.03,3.03,1.46,4.15,2.78-3.73,5.53-7.46,11.06-11.2,16.59.61-5.77,1.61-11.45,4.16-16.72.55-1.15.48-3.35,2.88-2.64Z" fill="#cbcbcb" stroke-width="0"/>
  <path d="M118.23,141.93c3.96.54,7.78.11,11.41-1.63.2.29.4.57.6.86-3.76,4.37-8.47,3.01-13.1,2.16.36-.46.73-.93,1.09-1.39Z" fill="#cbcbcb" stroke-width="0"/>
  <path d="M137.07,66.94c-.36-2.23,1.04-2.74,2.84-2.87.69,2.56-1.23,2.56-2.84,2.87Z" fill="#cbcbcb" stroke-width="0"/>
  <path d="M135.69,68.32c-.76-1.74.13-1.85,1.49-1.5.14,1.13-.48,1.5-1.49,1.5Z" fill="#cbcbcb" stroke-width="0"/>
  <path d="M184.31,80.54c5.32-4.39,9.74-10.26,17.62-6.73,3.75,1.68,1.71,5.14,2.24,7.78.6,2.99-1.62,3.19-3.8,3.46-6.01.74-10.28-4.06-16.06-4.51ZM192.19,79.75c1.03,1.4,2.67,1.99,4.38,2.18,1.43.16,3.73,1.29,4.1-.73.37-2.03-1.33-3.1-3.66-2.49-1.5.4-3.45-2.04-4.83,1.04Z" fill="#666" stroke-width="0"/>
  <path d="M204.44,69.65c-9.53-.63-17.75,4.64-26.92,5.62,7.96-6.42,16.58-9.87,26.92-5.62Z" fill="#666" stroke-width="0"/>
  <path d="M206.71,132.37c2.17,5.23,4.33,10.46,6.5,15.69-3.02.48-4-1.94-4.64-3.87-1.38-4.2-3.56-8.19-3.75-12.74.63.31,1.26.61,1.89.92Z" fill="#cbcbcb" stroke-width="0"/>
  <path d="M204.91,131.52c-.97,1.43-1.82-.07-2.73-.1.16-.79.24-1.69,1.39-1.59,1.02.08,1.33.79,1.34,1.69Z" fill="#cbcbcb" stroke-width="0"/>
  <path d="M190.56,144.83c.39-.68.84-.86,1.43-.21-.29.23-.58.47-.87.71-.18-.17-.37-.33-.55-.5Z" fill="#cbcbcb" stroke-width="0"/>
  <path d="M185.23,53.39c-13.56-.31-27.02-2.26-40.6-2.21,13.72-2.25,27.22-1.02,40.6,2.21Z" fill="#cbcbcb" stroke-width="0"/>
  <path d="M109.19,114.72c.28-.65.78-1.1,1.39-.59.19.16-.22,1.01-.36,1.54-.34-.32-.68-.64-1.03-.96Z" fill="#cbcbcb" stroke-width="0"/>
  <path d="M213.08,147.93c.95.06,2.25-.2,1.49,1.52-.87-.15-1.93-.11-1.49-1.52Z" fill="#cbcbcb" stroke-width="0"/>
  <path d="M192.19,79.75c1.39-3.08,3.33-.64,4.83-1.04,2.32-.61,4.03.46,3.66,2.49-.37,2.02-2.67.89-4.1.73-1.71-.19-3.36-.78-4.38-2.18Z" fill="#cbcbcb" stroke-width="0"/>
</svg>