<?xml version="1.0" encoding="UTF-8"?>
<svg id="Capa_1" data-name="Capa 1" xmlns="http://www.w3.org/2000/svg" viewBox="0 0 774.56 209.19">
  <path d="M82.84,172.49c-12.11,5.86-24.23,11.72-36.34,17.58-1.6.78-3.15,1.71-4.81,2.31-4.37,1.56-8.2,1-10.18-3.7-1.88-4.47.62-7.38,4.33-9.26,8.39-4.26,16.91-8.27,25.32-12.51,2.21-1.12,4.9-1.62,6.31-4.04,4.64-2.5,9.28-5.01,13.92-7.51,7.61-1.73,13.41-6.98,20.08-10.5,25.68-13.54,49.06-30.12,67.47-52.96,9.66-11.97,18.16-24.59,21.75-39.84,4.35-18.42-5.93-34.74-23.35-36.93-9.8-1.24-19.08,1.04-28.05,5-16.78,7.41-29.65,19.53-40.9,33.63-4.38-1.86-9.81-1.86-12.38-6.96,14.68-19.96,32.69-35.61,56.65-43.42,10.6-3.46,21.46-4.79,32.37-1.51,23.33,7.02,36.23,28.78,29.45,54.61-5.28,20.1-17.36,36-31.02,51.6-18.04,20.59-40.07,35.03-63.21,48.47-4.3,2.5-9.5,3.51-12.81,7.66-4.86,2.76-9.73,5.51-14.59,8.26Z" fill="gray" stroke-width="0"/>
  <path d="M86.01,46.81c2.57,5.09,8,5.09,12.38,6.95-2.82,3.51-3.18,6.62-.15,10.63,4.45,5.9,7.85,12.57,9.82,19.76,4.62,16.89-5.43,31.91-20.47,30.84-12.04-.86-20.58-11.52-20-25.44.36-8.75,2.92-16.98,7.07-24.72,1.28-2.38,3.09-4.66.29-7.52-6.49-6.65-13.34-12.57-22.66-14.97-21.49-5.55-37.75,8.23-36.06,30.36,1.11,14.57,7.11,26.89,16,38.16,13.89,17.6,30.46,32.21,49.14,44.51-4.64,2.5-9.28,5.01-13.92,7.51-22.42-14.4-40.69-33.01-55.06-55.34-7.01-10.9-10.43-23.21-10.72-36.16C.91,38.3,28.96,18.5,60.3,29.57c10.15,3.59,17.55,10.89,25.71,17.24ZM86.94,73.54c-3.54,6.73-4.99,12.36-4.61,18.34.27,4.37,1.78,8.79,6.8,8.52,5.37-.29,5.66-5.43,5.36-9.41-.46-6.16-3.78-11.29-7.55-17.44Z" fill="gray" stroke-width="0"/>
  <path d="M276.58,131c6.18,5.62,11.22,10.91,19.4,11.44,4.02.26,6.41,3.21,6.38,7.31-.03,4.15-2.64,6.57-6.55,7.3-7.91,1.46-14.69-1.5-20.44-6.48-5.96-5.17-11.36-10.97-17.06-16.44-1.63-1.57-3.43-3.63-5.93-2.36-2.25,1.15-.98,3.66-1.1,5.54-.2,3.05-.1,6.12-.04,9.17.13,6.24-2.27,10.82-8.99,10.76-6.32-.05-8.61-4.54-8.61-10.4,0-13.76-.02-27.53-.03-41.29-.01-20.16-1.88-19.89,19.36-19.61,6.62.09,13.3-.06,19.85.76,12.16,1.52,19.64,8.52,21.09,18.8,1.53,10.85-3.16,18.59-14.58,24.06-.67.32-1.32.69-2.75,1.45ZM261.2,118.79c2.77-.24,5.64-.12,8.29-.81,5.87-1.53,7.45-5.84,5.83-11.21-1.44-4.79-20.07-8.19-23.4-4.45-.31.35-.41.89-.58,1.35-3.35,8.91.62,14.92,9.86,15.11Z" fill="gray" stroke-width="0"/>
  <path d="M372.42,121.47c0-8.67.22-17.35-.07-26.01-.22-6.46,2.42-9.58,8.92-9.4,9.94.28,19.91-.69,29.82.72,18.69,2.67,29.81,16.37,29.18,35.87-.61,19.02-12.49,32.07-31.07,33.33-9.66.66-19.38.21-29.08.31-5.49.06-7.8-2.69-7.73-8.06.11-8.92.03-17.85.03-26.77ZM390.12,121.34c0,3.06-.04,6.12,0,9.17.17,11.63-1.55,10.37,10.73,10.53.51,0,1.02-.01,1.53,0,7.4.19,13.76-1.96,17.33-8.88,3.89-7.54,3.71-15.31-.55-22.66-3.92-6.77-17.98-11.48-26.16-7.84-6.32,2.81-1.61,9.54-2.81,14.35-.42,1.68-.07,3.55-.07,5.34Z" fill="gray" stroke-width="0"/>
  <path d="M307.72,120.95c0-8.93.09-17.86-.03-26.79-.07-5.47,2.62-8.03,7.89-8.05,13.28-.05,26.56-.05,39.83,0,4.99.02,8.74,2.25,8.79,7.51.05,5.75-3.89,7.76-9.25,7.71-8.43-.07-16.86.19-25.28-.07-4.83-.15-5.17,2.44-5.28,6.21-.12,4.16,1,6.08,5.54,5.82,5.6-.32,11.23.02,16.85-.1,5.21-.11,9.65,1.47,9.77,7.2.14,6.28-4.61,7.76-10.07,7.68-5.62-.08-11.25.25-16.85-.08-4.9-.29-5.35,2.35-5.21,6.14.14,3.61-.59,7.22,5.17,6.98,8.16-.34,16.34-.07,24.51-.08,5.43,0,10.13,1.59,10.07,7.83-.06,6.26-4.7,7.56-10.21,7.49-12.51-.16-25.03-.2-37.53,0-6.17.1-8.9-2.42-8.76-8.62.19-8.93.05-17.86.05-26.79Z" fill="gray" stroke-width="0"/>
  <path d="M709.55,121.23c0-8.9.09-17.81-.03-26.71-.07-5.27,2.18-8.38,7.55-8.38,9.66,0,19.36-.75,28.98.74,17.7,2.73,28.66,16.22,28.51,34.94-.15,18.48-10.86,31.46-28.33,34.31-9.62,1.57-19.31.68-28.98.78-5.32.05-7.78-2.88-7.73-8.2.09-9.16.02-18.32.02-27.48ZM720.41,121.54c0,6.87,0,13.75,0,20.62,0,2.36-.1,4.86,3.29,4.82,7.62-.09,15.35,1.12,22.82-1,11.67-3.3,17.62-13.43,16.58-27.54-.89-12.1-8.65-20.81-20.38-22.12-5.8-.65-11.71-.18-17.56-.41-3.69-.15-4.89,1.47-4.8,5.01.18,6.87.05,13.75.06,20.62Z" fill="gray" stroke-width="0"/>
  <path d="M472.6,85.32c8.44-.26,15.22,1.95,21.84,4.74,3.04,1.28,5.45,3.3,3.74,7.06-1.47,3.25-4.31,3.31-7.17,2.16-4.77-1.91-9.7-3.11-14.75-3.94-3.92-.65-7.66-.12-11.17,1.64-3.17,1.59-5.25,4.18-5.31,7.82-.06,3.91,2.56,6.05,5.93,7.08,6.58,2.03,13.28,3.65,19.85,5.69,11.82,3.67,16.9,9.31,16.68,18.1-.25,9.58-7.03,17.36-17.81,20.39-9.75,2.74-19.24,1.31-28.56-1.95-3.02-1.06-5.87-2.94-4.7-6.69,1.25-4,4.48-4.48,8.09-3.06,6.81,2.68,13.85,3.63,21.05,2.31,5-.91,9.52-3.08,10.21-8.82.77-6.34-4.2-8.15-8.9-9.63-5.1-1.61-10.33-2.84-15.5-4.22-13.09-3.5-18.37-9.67-17.41-20.34.93-10.38,9.65-17.67,21.96-18.34,1.02-.06,2.04,0,1.95,0Z" fill="gray" stroke-width="0"/>
  <path d="M635.89,111.61c0-6.11.06-12.23-.02-18.34-.05-3.85,1.44-6.81,5.43-6.9,4.07-.09,5.54,2.86,5.52,6.72-.05,10.95-.1,21.91.02,32.86.15,13.91,6.77,21.05,19.46,21.26,13.26.22,20.55-6.85,20.89-20.74.26-10.69.09-21.4.05-32.1-.01-3.8.36-7.71,5.07-7.93,5.1-.24,6.02,3.64,6.01,7.86-.04,11.21.29,22.43-.12,33.62-.7,18.82-13.34,30.1-32.59,29.63-18.54-.46-29.42-11.66-29.7-30.65-.07-5.09-.01-10.19-.01-15.28Z" fill="gray" stroke-width="0"/>
  <path d="M572.74,151.59c-.32,2.31-1.37,3.89-3.48,4.77-1.89.78-3.54.26-4.98-.9-.76-.61-1.64-1.53-1.77-2.42-1.96-12.66-10.8-13.35-20.83-12.18-2.01.23-4.12.29-6.11,0-9.34-1.38-16.36.56-18.46,11.26-.62,3.14-3.09,5.6-6.83,4.26-4.16-1.49-4.02-4.8-2.6-8.21,7.7-18.57,15.45-37.12,23.16-55.69,1.64-3.94,4.61-6.17,8.79-6.24,3.87-.07,6.99,1.87,8.5,5.47,8.07,19.24,16.03,38.54,24.01,57.82.29.7.43,1.45.61,2.07ZM539.65,97.53c-4.96,11.66-9.15,21.62-13.43,31.53-1.21,2.8-.15,3.65,2.54,3.64,7.36-.03,14.73,0,22.09-.02,2.04,0,3.63-.41,2.48-3.09-4.34-10.12-8.64-20.24-13.68-32.07Z" fill="gray" stroke-width="0"/>
  <path d="M82.84,172.49c4.86-2.75,9.72-5.51,14.59-8.26,25.36,12.94,52.14,20.43,80.73,20.76,4.92.06,8.95,1.33,9.16,6.83.24,6.03-3.98,7.62-9.21,7.54-34.14-.51-65.87-9.57-95.26-26.87Z" fill="gray" stroke-width="0"/>
  <path d="M581.88,120.83c0-8.93.08-17.85-.04-26.78-.05-3.96.64-7.62,5.32-7.64,4.56-.03,5.61,3.47,5.59,7.5-.06,15.3.25,30.61-.17,45.9-.16,5.89,1.76,7.47,7.37,7.13,7.63-.46,15.31-.09,22.97-.12,3.74-.02,7.89.1,7.85,4.96-.03,4.41-3.97,4.52-7.43,4.51-10.98-.02-21.95-.16-32.93.04-6.24.12-8.76-2.55-8.59-8.73.25-8.92.06-17.85.06-26.78Z" fill="gray" stroke-width="0"/>
  <path d="M21.83,197.81c0,6.19-4.97,11.39-10.87,11.39C5,209.19.03,204.07,0,197.92c-.03-6.24,4.83-11.31,10.85-11.33,6.05-.02,10.98,5.02,10.98,11.21Z" fill="gray" stroke-width="0"/>
  <path d="M218.65,192.87c-.08,6.11-5.28,11.25-11.32,11.18-5.95-.07-11.1-5.43-11.02-11.47.08-6.16,5.19-11.18,11.3-11.09,6.08.09,11.12,5.28,11.04,11.38Z" fill="gray" stroke-width="0"/>
  <path d="M593.27,190.32c-.99,3.48,1.46,10.3-1.69,10.01-4.65-.43-1.92-6.68-2-10.3-.07-3.15-2.52-8.1,1.71-9.38,3.51-1.06,4.34,4.16,6.52,6.43.7.72,1.3,1.55,1.95,2.33,2.54-.91,2.96-3.45,4.34-5.16,1.37-1.7,2.15-4.67,5-3.78,2.51.78,1.46,3.47,1.52,5.37.12,3.81,0,7.62.03,11.44.01,1.59-.04,3.51-1.88,3.63-2.69.17-2.17-2.24-2.24-3.89-.1-2.25-.02-4.51-.02-8.61-4.6,7.15-8.51,7.56-11.89.99-.32-.32-.63-.63-.95-.95-.13.63-.27,1.26-.4,1.89Z" fill="gray" stroke-width="0"/>
  <path d="M569.41,201.51c-5.96-.22-10.36-4.96-10.25-11.05.12-6.47,4.95-10.89,11.45-10.48,6.06.39,10.19,5.11,9.87,11.29-.31,6.03-5.09,10.45-11.07,10.24ZM576.17,190.55c-.18-3.91-1.72-6.99-6.13-7.07-4.87-.09-6.5,3.16-6.44,7.52.06,4.17,2.09,6.88,6.41,6.78,4.38-.1,6-3.11,6.16-7.23Z" fill="gray" stroke-width="0"/>
  <path d="M640.54,190.93c-.12,6.13-4.67,10.65-10.66,10.59-5.97-.06-10.59-4.7-10.65-10.71-.07-6.4,4.73-11.04,11.18-10.83,6.18.2,10.26,4.61,10.14,10.95ZM636.24,190.66c-.21-3.94-1.63-7.06-6.09-7.19-4.4-.13-6.38,2.72-6.53,6.74-.15,4.32,1.67,7.59,6.46,7.57,4.4-.02,6.01-3.09,6.16-7.13Z" fill="gray" stroke-width="0"/>
  <path d="M737.71,186.06c2.87-.65,5.81-.92,7.11,2.4,1.42,3.61,1.05,7.53.34,11.22-.29,1.51-2.24,2.05-3.39.12-.35-.59-.08-1.52-.31-2.22-.88-2.7,2.3-7.86-2.94-7.72-4.88.13-2.2,5.18-2.88,8.04-.28,1.19-.04,2.87-1.61,2.99-2.11.17-2.18-1.67-2.2-3.18-.05-4.56-.16-9.12.03-13.67.07-1.77-1.26-4.84,1.65-5.02,3.82-.24,1.2,3.62,2.45,5.21-.62,1.74-.28,2.58,1.74,1.83Z" fill="gray" stroke-width="0"/>
  <path d="M649.32,197.78c.89-.15,1.62-.43,2.3-.36,2.18.23,4.91,1.54,5.75-1.59.66-2.49-2.02-3.21-3.68-4.17-3.78-2.18-6.39-5.24-3.25-9.14,3-3.72,7.11-3.69,11.37.12-1.26.52-1.86.93-2.5.99-1.86.18-4.44-1.38-5.26,1.34-.79,2.61,1.96,3.21,3.59,4.15,3.76,2.15,6.39,5.17,3.64,9.2-2.83,4.15-7.27,4.13-11.52,1.65-.4-.23-.29-1.32-.45-2.19Z" fill="gray" stroke-width="0"/>
  <path d="M770.12,182.59c-5.48.72-11.64-.33-12.07,7.56-.49,9.06,6.57,7.55,12.32,8.39-4.41,3.86-9.02,3.84-13.49.3-4.27-3.38-4.69-11-.84-15.1,4.25-4.52,9.12-4.89,14.07-1.15Z" fill="gray" stroke-width="0"/>
  <path d="M723.71,183.07c-6.1.54-13.14-.37-12.67,8.15.45,8.12,7.29,6.23,12.44,7.47-4.67,3.79-9.36,3.61-13.73-.13-4.23-3.62-4.19-10.76-.31-15.1,3.65-4.09,8.74-4.46,14.27-.39Z" fill="gray" stroke-width="0"/>
  <path d="M698.77,198.59c-4.54,3.94-9.36,3.93-13.56.03-4.54-4.21-4.59-9.6-.97-14.45,3.85-5.17,8.9-4.83,14.24-2.2-5.13,1.92-12.55.36-12.13,9.04.4,8.29,7.11,6.54,12.42,7.57Z" fill="gray" stroke-width="0"/>
  <path d="M536.3,198.78c2.36-.93,2.98-1.37,3.61-1.39,2.33-.06,5.52,1.92,6.54-1.42.85-2.76-2.49-3.35-4.26-4.53-3.22-2.15-6.07-4.66-3.16-8.57,3-4.03,6.9-3.82,11.44-.65-1.2.71-1.73,1.24-2.32,1.32-1.86.27-4.47-1.2-5.33,1.34-.87,2.57,1.89,3.2,3.51,4.19,3.79,2.3,7.24,5.11,3.53,9.56-3.53,4.23-7.9,3.49-13.56.15Z" fill="gray" stroke-width="0"/>
</svg>