<?xml version="1.0" encoding="UTF-8"?>
<svg id="Capa_1" data-name="Capa 1" xmlns="http://www.w3.org/2000/svg" viewBox="0 0 345.23 158.81">
  <g id="HATCH">
    <polygon points="52.38 53.39 39.95 53.39 24.17 126.05 4.04 126.05 19.82 53.39 0 53.39 10.5 38.92 62.94 38.92 52.38 53.39" fill="gray" stroke-width="0"/>
  </g>
  <g id="HATCH-2" data-name="HATCH">
    <polygon points="70.75 126.05 81.31 111.52 92.24 111.52 90.5 75.1 65.84 126.05 44.53 126.05 88.21 38.92 108.4 38.92 114.3 126.05 70.75 126.05" fill="gray" stroke-width="0"/>
  </g>
  <g id="POLYLINE">
    <polyline points="173.55 126.05 127.76 126.05 146.65 38.92 166.78 38.92 151.06 111.52 184.18 111.52 173.55 126.05" fill="gray" stroke-width="0"/>
  </g>
  <g id="POLYLINE-2" data-name="POLYLINE">
    <polyline points="238.77 126.05 192.98 126.05 211.86 38.92 265.11 38.92 254.55 53.39 228.89 53.39 224.11 75.22 246.6 75.22 236.1 89.75 221 89.75 216.28 111.52 249.39 111.52 238.77 126.05" fill="gray" stroke-width="0"/>
  </g>
  <g id="HATCH-3" data-name="HATCH">
    <path d="M293.64,89.93h-45.74c-.25-.45-.5-.91-.75-1.36,8.61-8.7,17.21-17.4,25.82-26.11-.36-.43-.72-.87-1.08-1.3-4.93,3.68-9.86,7.36-14.79,11.03-.21-.21-.42-.43-.63-.64,21.07-23.85,42.14-47.7,63.21-71.55.28.19.57.39.85.58-9.26,22.37-18.51,44.74-28.12,67.96h52.82c-24.55,30.91-48.12,60.59-71.69,90.27-.27-.18-.53-.36-.8-.54,4.24-9.15,8.49-18.29,12.73-27.44-.3-.19-.6-.38-.9-.56-6.08,9.23-12.16,18.46-18.24,27.69l-.71-.37c9.17-22.14,18.34-44.28,28.02-67.66Z" fill="gray" stroke-width="0"/>
  </g>
  <g id="POLYLINE-3" data-name="POLYLINE">
    <polyline points="200.76 139.91 200.24 143.37 190.22 143.37 192.49 128.35 202.26 128.35 201.76 131.64 195.93 131.64 195.58 133.99 200.47 133.99 199.98 137.25 195.09 137.25 194.69 139.91 200.76 139.91" fill="gray" stroke="#000" stroke-linecap="round" stroke-linejoin="round" stroke-width="0"/>
  </g>
  <g id="HATCH-4" data-name="HATCH">
    <polygon points="200.76 139.91 200.24 143.37 190.22 143.37 192.49 128.35 202.26 128.35 201.76 131.64 195.93 131.64 195.58 133.99 200.47 133.99 199.98 137.25 195.09 137.25 194.69 139.91 200.76 139.91" fill="gray" stroke-width="0"/>
  </g>
  <g id="POLYLINE-4" data-name="POLYLINE">
    <polyline points="211.72 139.76 211.19 143.37 201.9 143.37 204.17 128.35 208.3 128.35 206.57 139.76 211.72 139.76" fill="gray" stroke="#000" stroke-linecap="round" stroke-linejoin="round" stroke-width="0"/>
  </g>
  <g id="HATCH-5" data-name="HATCH">
    <polygon points="211.72 139.76 211.19 143.37 201.9 143.37 204.17 128.35 208.3 128.35 206.57 139.76 211.72 139.76" fill="gray" stroke-width="0"/>
  </g>
  <g id="POLYLINE-5" data-name="POLYLINE">
    <polyline points="223.18 139.91 222.66 143.37 212.64 143.37 214.91 128.35 224.68 128.35 224.18 131.64 218.35 131.64 218 133.99 222.9 133.99 222.4 137.25 217.51 137.25 217.11 139.91 223.18 139.91" fill="gray" stroke="#000" stroke-linecap="round" stroke-linejoin="round" stroke-width="0"/>
  </g>
  <g id="HATCH-6" data-name="HATCH">
    <polygon points="223.18 139.91 222.66 143.37 212.64 143.37 214.91 128.35 224.68 128.35 224.18 131.64 218.35 131.64 218 133.99 222.9 133.99 222.4 137.25 217.51 137.25 217.11 139.91 223.18 139.91" fill="gray" stroke-width="0"/>
  </g>
  <g id="SPLINE">
    <path d="M233.67,134.04l2.6,9.33h-4.01l-1.54-6.2-2.06,2.54-.55,3.66h-3.79l2.27-15.02h3.78l-1.04,6.9c.22-.57.55-1.14.98-1.7.43-.56,1.14-1.49,2.11-2.79l1.94-2.41h3.88l-4.57,5.69Z" fill="gray" stroke="#000" stroke-linecap="round" stroke-linejoin="round" stroke-width="0"/>
  </g>
  <g id="HATCH-7" data-name="HATCH">
    <path d="M233.67,134.04l2.6,9.33h-4.01l-1.54-6.2-2.06,2.54-.55,3.66h-3.79l2.27-15.02h3.78l-1.04,6.9c.22-.57.55-1.14.98-1.7.43-.56,1.14-1.49,2.11-2.79l1.94-2.41h3.88l-4.57,5.69Z" fill="gray" stroke-width="0"/>
  </g>
</svg>