<svg width="827" height="320" viewBox="0 0 827 320" fill="none" xmlns="http://www.w3.org/2000/svg">
<path d="M115.521 28.4C118.408 28.6112 121.257 28.056 123.921 28.6545C125.458 30.1469 123.528 29.8309 124.647 32.4596C126.227 33.3934 126.693 33.1086 128.678 33.1705C128.752 34.7107 129.041 38.3289 128.519 39.5951C127.178 42.8481 126.044 40.9337 124.288 41.7669C123.496 46.2671 130.19 45.2764 132.081 47.4659C133.977 49.6582 137.726 58.2255 137.925 60.9891C142.437 63.9107 140.897 63.9026 143.828 66.5188C152.03 60.4109 150.755 69.2388 158.695 71.4776C162.593 72.577 161.522 71.7358 164.792 70.2149C166.308 70.6663 166.343 71.9616 168.186 73.4925C172.149 75.0699 178.554 66.7156 180.81 79.9463C182.608 80.0586 184.673 79.9951 186.493 79.9842C186.755 82.0279 186.435 84.8768 188.608 85.3414C190.022 84.9758 191.068 83.956 192.204 83.0246C195.263 86.737 196.503 89.2772 200.074 93.1022C201.005 100.385 201.486 109.27 195.346 115.227C194.283 116.259 191.319 117.907 190.828 119.217C194.405 121.402 196.255 118.032 199.1 116.543C199.891 116.12 200.818 116.035 201.672 116.305C207.505 118.189 200.939 124.914 201.187 125.322C203.3 128.813 210.51 134.937 200.937 140.453C211.202 155.669 216.973 173.472 217.59 191.82C219.662 240.692 186.128 283.107 137.636 292.756C133.032 293.672 127.748 293.714 123.042 293.909C96.9331 294.377 77.2026 288.097 56.4299 271.611C43.0602 260.475 32.2462 244.819 26.4032 228.523C16.9503 202.16 20.2567 163.017 37.9355 140.738C34.7364 138.434 34.4826 137.376 33.2433 133.699C33.624 132.126 34.3787 129.908 34.8729 128.307C35.7367 127.482 37.1583 126.369 38.1121 125.573C35.6438 123.166 34.0454 120.654 35.6753 117.095C39.1924 114.131 43.0416 120.054 47.2316 119.554C47.8793 117.312 38.6302 112.705 45.7488 99.2598C42.9387 99.2525 40.1287 99.2646 37.3189 99.2958C37.2353 96.379 36.4535 89.3172 37.6772 87.16C39.2886 85.6642 47.7533 86.4238 50.7277 86.4335C51.3653 85.2869 52.4278 83.257 53.3598 82.3939C60.0133 76.2315 58.1772 67.543 69.567 73.1669C73.8559 72.3358 75.2058 72.1693 79.493 72.9038C82.6787 69.1883 85.0914 65.4768 88.651 62.2384C90.7133 64.3042 92.572 65.8493 94.7994 67.7038C96.7155 63.0424 99.0067 63.3883 100.658 60.3446C101.707 58.4129 98.6239 59.1309 103.417 55.7208C104.156 52.5147 104.599 50.4448 106.285 47.6129C110.163 44.9867 113.882 45.8113 115.105 44.5737C115.494 43.1487 115.524 42.962 115.251 41.5147C113.393 40.3928 113.799 41.2396 111.574 40.6622C110.278 39.1699 111.073 35.1767 111.462 33.3792C111.622 32.6418 113.043 33.5275 114.403 33.2076C115.806 31.7806 115.509 30.4644 115.521 28.4ZM124.561 291.259C177.221 288.429 217.605 243.402 214.739 190.714C211.873 138.026 166.843 97.6509 114.188 100.556C61.5853 103.457 21.2818 148.458 24.145 201.093C27.0081 253.728 71.9547 294.087 124.561 291.259ZM101.548 76.2808C101.201 76.777 99.5284 79.1818 99.1561 79.4331C95.0595 82.1996 86.296 79.0509 84.6909 85.3628L85.0458 85.8105C86.7802 85.5261 87.7663 84.3899 89.3302 83.716C97.9737 79.9923 105.86 88.3378 99.6847 96.1685C99.6047 96.2699 99.524 96.3705 99.4424 96.4703C97.8603 97.0861 96.925 97.44 95.2674 97.8109C92.8862 98.3438 86.8153 97.5232 85.3773 99.2808C89.4885 103.8 108.891 97.6848 114.2 95.8469C115.833 96.6893 117.716 97.6085 119.292 98.5018C121.203 97.6012 123.1 96.6727 124.984 95.7168C130.624 98.3253 135.507 99.6283 141.654 100.152L142.395 99.9236C142.067 95.261 130.351 95.1802 141.987 81.3685C140.433 80.2315 138.112 78.2792 137.684 76.3204C139.489 73.4477 144.482 67.4105 139.499 64.6129C138.321 63.9438 136.991 63.5871 135.636 63.5774C133.544 64.2428 132.698 65.9976 131.736 67.8453L131.638 68.0347C132.402 70.2885 133.275 73.118 134.135 75.2873L130.728 76.7083C129.764 74.939 128.527 71.9907 126.698 71.3657L126.097 72.0154C126.202 73.8448 128.049 75.0182 127.8 76.6663C125.489 79.1657 122.22 79.6117 119.223 82.4857C116.219 79.7511 114.299 78.3911 110.399 77.0602C111.117 75.6622 112.283 73.8424 112.162 72.3584L111.7 72.0941C109.366 73.7903 109.107 75.659 107.082 76.2848L106.147 75.9285C104.609 72.4457 110.51 63.1139 101.334 63.4303C95.0861 67.8339 96.5225 71.6776 101.548 76.2808ZM78.2824 75.1434C74.8517 75.1232 71.5303 75.3337 68.1383 75.185C66.3915 75.1083 64.6769 74.3297 63.0055 74.3071C60.7333 75.9297 60.9247 75.9822 60.4236 79.0008L60.3036 79.7463C58.7029 81.2008 54.5619 84.543 54.555 86.499C54.5425 90.0941 65.0678 102.682 67.5189 105.429C69.1616 104.272 70.7865 103.065 72.5503 102.106C76.0978 99.558 79.065 98.6335 83.4794 98.2739C83.0389 93.0715 80.3883 79.3976 78.2824 75.1434ZM157.391 91.4234C161.038 97.4129 166.12 99.1111 172.689 100.139C177.079 97.3693 173.789 92.3099 178.573 86.5762C175.41 85.0671 174.349 84.505 172.944 81.0768C168.938 81.0461 168.601 81.823 164.683 80.1943C164.308 86.9034 161.127 86.0053 157.391 91.4234ZM183.71 111.291C183.735 112.743 182.871 113.301 184.266 114.451L184.922 113.915C185.622 112.501 185.521 111.946 185.469 110.342C186.093 108.552 189.041 106.167 189.039 106.437C189.058 104.083 186.818 102.63 188.377 100.526C191.741 99.1434 192.764 100.497 194.78 102.901L196.272 109.851C197.386 104.872 198.644 99.4016 197.122 94.3467L196.415 93.5737C193.759 94.202 193.017 98.1992 190.395 98.2133C187.975 95.5846 193.848 92.0703 192.837 87.8186C191.492 87.3923 190.277 88.0368 189.249 88.9459C188.902 90.562 190.001 90.1394 189.281 92.2671C186.732 93.9143 182.768 90.2291 182.157 94.2642C181.678 97.4259 181.662 100.737 181.573 103.916C180.595 104.712 179.625 105.518 178.665 106.335L178.727 106.968C180.188 107.884 180.777 107.88 181.253 109.277C181.016 110.632 180.874 111.336 180.449 112.638C181.571 112.487 182.689 111.818 183.71 111.291ZM46.7615 124.678C41.8347 126.836 37.6083 127.81 35.6284 132.907C35.5094 133.213 35.398 133.52 35.2943 133.831C36.2718 135.387 37.1774 137.216 39.105 137.622C41.386 138.102 43.1648 135.8 43.0081 133.675L42.6112 133.215C41.5068 133.531 40.6547 134.825 39.4636 135.576C38.2238 135.222 38.655 135.499 37.8204 134.54C37.593 132.905 38.3066 131.931 39.1527 130.505C42.5999 128.841 49.0923 125.85 52.2675 124.005C56.4465 121.578 64.584 113.681 67.2576 109.619C67.3053 108.288 67.4519 108.794 66.7226 107.703C63.5644 108.568 64.1766 113.585 56.0754 116.702C49.27 115.083 48.2088 114.672 46.7195 107.824C47.1149 106.688 47.6584 104.957 48.1644 103.922C50.2407 102.251 56.266 99.3127 56.6124 98.5778L56.3726 97.6594L55.7341 97.3281C51.6989 98.7681 47.8926 100.213 45.8626 104.386C44.7833 106.598 44.6213 109.148 45.4116 111.48C47.0026 116.061 51.4845 117.992 55.8016 119.117C44.0386 124.517 40.4492 118.948 38.0962 119.8C36.8334 123.831 44.1448 124.212 46.7615 124.678ZM89.2701 88.9345C87.9048 88.9091 85.465 88.7851 84.2039 89.0101C83.8485 90.0824 83.7379 90.2897 84.0003 91.4073C85.7876 93.3519 87.1133 92.402 89.3371 93.183C90.0466 93.4319 90.6026 95.1701 91.7252 95.8517C99.3398 98.6549 102.587 85.0752 92.4048 84.8C90.2792 85.9196 90.3175 86.4283 89.2701 88.9345ZM59.2416 106.309C60.3719 105.082 62.3586 103.307 62.6122 101.834C62.1898 100.752 61.8131 100.261 60.6118 99.7273C55.863 106.885 56.1283 101.286 50.3461 105.262C50.4277 108.92 49.7307 111.604 53.1332 113.677C58.4179 113.317 63.6488 113.015 59.2416 106.309ZM39.9576 88.9006C40.294 90.8303 40.555 95.1915 41.1377 96.1131C42.4472 96.7418 47.0704 96.8626 48.3457 96.4372L48.6841 95.7156C48.0436 94.9269 47.6414 94.5184 47.301 93.5531C47.5708 93.2202 47.7601 92.9071 48.145 92.7418C50.0235 92.6053 53.0747 92.7507 54.4093 91.9988L54.6632 91.244C52.7116 87.459 43.9308 88.9988 39.9576 88.9006ZM103.996 61.1774C107.989 61.2824 133.702 61.5358 135.278 60.7273L135.582 60.1495L135.242 60.2461L135.743 59.7095C135.485 59.4428 135.118 58.9992 134.814 58.8582C130.357 58.8695 105.025 58.3192 103.152 59.6283C102.799 60.6012 102.778 60.2323 103.112 61.0541L103.996 61.1774ZM154.639 77.9741C155.61 75.819 155.651 75.3487 157.74 74.3341L156.637 73.6497C155.114 74.3079 154.86 76.0343 153.633 75.5992C150.283 74.4125 151.014 71.3782 148.424 69.0909C147.028 68.7523 147.561 68.6877 146.247 69.2238C144.436 72.4739 150.821 73.7939 149.341 76.777C147.909 79.6634 141.894 83.1539 141.535 86.3584C142.028 87.242 142.14 87.379 142.859 88.0921C143.338 89.7653 142.55 91.8756 142.234 93.7527L142.738 93.8804C144.008 92.5762 145.601 89.8594 146.582 89.36C147.642 90.4392 149.75 92.8149 151.029 93.2861L151.669 93.2178C150.737 91.242 147.94 89.556 149.093 86.2513C149.826 84.1547 152.671 82.2646 154.42 80.7725L156.067 80.2432C158.003 81.3253 157.586 83.6933 156.645 85.3786C153.725 87.4711 153.345 90.2525 152.796 93.5705L152.723 94.0162C154.304 95.2424 154.593 95.941 155.828 97.3891C156.62 98.3184 159.837 100.091 160.379 101.031C162.563 104.817 160.138 105.792 165.589 103.739C169.331 104.644 172.701 104.835 176.524 105.158C177.54 102.821 178.302 101.81 179.783 99.7147C179.819 94.5624 178.839 91.2832 184.228 88.9762C184.717 88.0764 184.782 87.0444 184.855 86.0077C185.112 82.3273 180.288 83.7152 178.502 81.1713C177.35 79.5289 177.809 77.3956 176.318 75.7248C171.299 73.4707 171.901 79.2586 163.956 74.5947L163.793 74.6549C160.793 75.756 160.533 75.6295 157.74 74.3341C159.179 76.263 161.21 80.1196 159.941 82.4877C158.962 82.2582 158.48 81.8376 157.961 80.8796C156.926 78.9685 156.486 78.9685 154.639 77.9741ZM54.6402 96.0869L55.863 95.3543L55.7834 94.8497C54.1201 94.4776 53.6618 94.5269 51.9432 94.638L50.9692 95.6541L51.1344 96.2853C52.7072 96.6319 53.0597 96.5018 54.6402 96.0869ZM123.362 72.6295C125.494 70.2234 127.475 67.9673 129.497 65.4549L130.17 63.8513L129.925 63.3685C124.882 63.1507 123.119 75.0024 116.38 69.8315C113.193 67.3863 112.601 63.3499 108.598 62.9838C108.833 66.503 115.393 72.1842 118.448 73.7935L118.614 73.8796L123.362 72.6295ZM88.8392 77.1749L90.0668 76.9022L90.433 75.5879C88.9139 74.7442 88.1555 74.4618 87.6677 72.9034C87.9435 71.6457 88.0211 71.5131 88.968 70.6404C91.132 71.0255 90.8768 73.743 92.8442 73.337C93.9829 71.9939 94.0108 72.3931 94.0322 70.9592C89.073 69.764 91.5782 68.143 88.9365 66.4525C88.1426 67.0695 80.6112 76.4129 80.5086 76.7624C80.6774 78.1002 80.4355 77.8513 81.2524 78.5996C83.2549 78.2566 85.1314 74.8913 86.5322 74.64C87.2688 75.5139 88.0384 76.3596 88.8392 77.1749ZM118.536 48.9269C115.343 47.9083 113.55 47.3111 110.35 48.956C108.01 50.1592 105.875 53.1745 106.92 55.819L107.613 56.1438C109.406 55.2598 109.558 54.1301 110.328 52.1794C111.826 51.4614 113.307 50.7151 114.868 50.1491C115.229 50.3099 119.653 52.5414 119.38 52.4776C129.018 46.5895 126.916 55.7523 132.551 56.6711L132.938 56.1366C132.466 53.8465 131.156 50.1701 129.205 49.4432C118.671 45.5188 121.76 52.6174 121.054 38.5684C122.506 38.4986 124.716 38.5913 125.828 37.8103L125.886 36.8472C124.515 35.5351 122.113 36.1921 121.79 35.8206C119.606 33.3042 122.986 31.65 118.507 30.8599C118.553 32.6846 118.824 34.0025 117.943 35.4586C116.419 35.9581 114.517 36.4438 113.287 37.4115L113.424 37.9367C115.36 38.5801 116.398 38.5341 118.406 38.5869C118.33 42.3083 118.329 45.2016 118.536 48.9269ZM122.918 77.4295C124.403 76.7907 124.517 77.0578 124.984 75.9438C123.906 75.398 119.781 76.0861 118.272 76.0396C116.343 75.9798 114.97 75.638 113.096 75.2408C113.576 76.7555 117.46 78.2566 119.544 79.9426C120.874 78.636 121.297 78.3648 122.918 77.4295ZM148.349 98.2683L147.482 98.6283L147.263 99.8861C148.456 101.321 151.868 100.03 153.749 99.8683L154.922 99.7285L155.264 99.1956C154.416 98.3418 152.31 98.2129 151.129 98.2057C150.202 98.2061 149.276 98.2267 148.349 98.2683ZM83.8259 83.1992C84.9501 82.0792 86.6857 80.6497 87.0261 79.1915C86.504 78.3713 86.7838 78.6048 85.9923 78.1903C84.8298 79.4356 83.5844 80.5834 82.9585 82.1608L83.1645 82.996L83.8259 83.1992ZM189.497 114.44C186.714 115.76 185.612 116.069 182.608 116.836L180.614 119.348C181.486 120.023 183.359 121.392 184.014 122.145C187.675 126.355 198.405 127.64 200.987 132.472C200.932 134.002 201.032 133.469 200.185 134.878C198.409 135.539 197.626 134.61 196.064 133.56C195.199 134.292 195.399 135.743 195.98 136.646C198.015 138.386 201.121 137.496 202.829 135.744C204.2 128.781 197.015 126.295 191.445 124.815C194.751 124.291 200.883 124.144 200.909 119.833L200.083 119.544C197.976 120.564 197.687 121.855 195.154 121.793C192.86 121.737 186.231 121.729 184.778 119.779L184.951 118.915C189.281 116.754 192.045 115.873 193.747 110.767C193.979 110.086 194.189 109.398 194.375 108.704C193.669 106.03 193.139 102.451 190.022 101.593C189.948 104.052 191.275 105.977 192.179 108.27C191.381 110.946 191.01 112.054 189.497 114.44ZM182.033 86.2125C180.992 88.7253 178.764 89.636 177.76 91.8384C176.837 93.9907 177.846 98.6234 175.875 100.268C171.078 104.194 162.056 100.08 158.289 96.2453C154.735 92.6283 155.624 89.265 158.986 86.1083C165.032 81.758 160.632 81.3374 163.297 77.7313C165.024 77.1059 167.525 79.3463 169.096 79.4537C170.758 79.5673 171.731 77.3438 173.925 77.4263C176.188 79.8343 174.534 80.8343 176.232 82.8913C177.851 84.8517 180.591 84.1168 182.033 86.2125ZM169.92 105.645C170.084 108.378 173.157 112.822 176.049 112.801C174.425 109.663 173.244 107.143 169.92 105.645Z" fill="white"/>
<path d="M113.682 123.241C153.727 119.964 188.861 149.75 192.205 189.811C195.55 229.873 165.842 265.079 125.809 268.495C85.6783 271.92 50.3871 242.105 47.0342 201.945C43.6814 161.785 73.5398 126.526 113.682 123.241ZM121.218 197.114C121.158 219.876 121.518 243.202 121.287 265.928C134.974 264.34 143.824 263.447 155.934 255.608C161.468 252.026 162.543 251.882 167.383 246.667C180.866 234.147 188.848 216.796 189.585 198.405C189.605 197.932 189.611 197.459 189.602 196.986L125.572 196.966L121.218 197.114ZM71.7615 223.097C64.6831 220.884 62.4666 217.152 63.6118 209.821C64.3976 204.79 73.4098 205.27 76.5829 203.924C75.166 202.681 69.635 202.892 67.6878 203.003C61.9695 203.953 57.9698 209.723 58.945 215.412C59.3775 217.95 60.8186 220.205 62.9403 221.663C63.8169 222.261 72.2731 225.383 73.0557 225.277L73.5023 224.76C73.2729 223.89 72.7387 223.232 71.7615 223.097ZM104.031 232.613C100.869 233.792 92.4417 235.837 94.0105 240.556C94.3218 241.494 94.8965 242.141 95.7198 242.657L96.3801 242.532C96.6114 241.319 96.227 241.03 95.4517 239.721C95.5979 238.802 95.6802 238.278 96.6155 237.697C99.2015 236.09 102.458 235.112 104.962 233.45C106.118 232.683 107.534 229.343 108.893 228.785C110.685 228.051 113.232 229.154 114.909 228.101L115.011 227.444C113.958 226.184 111.675 225.472 110.076 225.384C106.406 227.612 105.998 228.83 104.031 232.613ZM86.1055 196.183C85.6093 197.426 84.5997 199.69 83.7849 200.641C81.1613 203.704 82.8307 203.673 81.8377 206.886C84.1079 206.438 87.6768 200.981 89.754 202.082C89.634 205.053 79.2069 209.008 80.4151 213.662C83.7869 214.158 89.4955 207.357 94.4066 207.09C93.0704 209.642 90.988 209.855 89.2738 212.267L89.3683 212.621C92.1691 211.928 93.1778 210.492 95.5914 209.107C100.971 206.907 105.233 208.898 109.302 212.39C123.14 212.657 113.292 215.843 114.612 222.626C114.83 223.746 116.974 224.629 118.105 225.199C117.769 216.048 118.28 206.418 117.903 196.954C113.966 196.953 62.4795 196.818 61.2568 197.4L64.0443 200.681C70.7317 199.37 73.4962 199.147 79.4261 202.339C81.3903 200.307 83.9694 198.025 86.1055 196.183ZM121.234 194.438C137.984 194.836 155.278 194.456 172.083 194.51C177.416 194.527 184.414 194.853 189.522 194.372C189.514 183.602 185.824 170.736 180.382 161.437C180.233 160.984 179.273 159.483 178.967 158.981C168.072 142.554 152.524 131.002 133.071 127.04C129.142 126.25 125.141 125.87 121.133 125.909C121.2 148.423 120.76 172.085 121.234 194.438ZM105.798 220.579C107.593 220.063 111.898 219.128 112.735 217.737C112.07 216.992 110.886 216.953 109.862 216.788L110.1 216.327C111.571 215.989 112.757 215.731 114.192 215.221L114.413 214.674C113.176 213.826 108.976 214.233 107.165 214.275C106.638 215.215 105.845 216.907 105.028 217.451C102.914 214.753 109.165 209.479 97.4085 211.004L95.7792 211.923C95.3221 214.692 97.5107 215.135 96.7734 216.926C93.6628 218.006 95.61 213.948 92.497 214.062C90.6759 214.129 88.6503 213.97 87.0068 214.995L87.189 215.373L90.6439 216.128C89.8347 217.559 88.4351 217.034 88.3031 218.423C91.0962 220.202 92.4029 218.269 93.0523 220.697C91.5457 221.893 90.0568 220.82 88.893 222.105L88.8728 222.712C90.8249 223.991 99.0149 223.52 101.659 223.49C103.879 223.543 109.737 223.963 111.26 222.392C110.232 220.614 107.672 220.954 105.798 220.579ZM90.7336 228.438C92.4199 230.22 92.9142 230.579 93.7452 232.926L95.2441 233.314L95.6665 232.87C95.0261 229.133 91.5097 225.506 87.5617 225.346C86.1722 226.17 85.5418 226.252 84.7895 227.544C85.9614 228.926 88.979 228.511 90.7336 228.438ZM68.3844 227.036C60.3595 223.581 55.3773 221.644 55.9794 211.405C54.3444 210.468 52.012 209.29 51.0089 207.761L51.1608 207.245L51.7019 207.009C53.0772 207.198 54.9889 208.649 56.229 209.461C56.598 209.223 57.5106 206.843 58.2028 205.777L59.8233 204.104C60.712 203.459 61.2233 203.098 62.0095 202.317C61.8706 200.293 60.5695 200.815 60.3906 197.351C58.6639 196.723 51.8755 196.996 49.5346 197.04C50.8123 213.6 55.1342 228.904 66.6052 241.608C67.4294 243.174 68.5758 243.764 70.0356 244.736C75.6312 252.166 90.4905 260.14 99.277 262.888C104.128 264.406 112.79 265.467 117.997 265.996C118.065 261.526 118.443 230.02 117.707 228.034C117.586 228.781 117.245 229.474 116.95 230.178C115.452 231.286 112.387 231.407 110.518 231.519C109.517 232.573 108.4 233.65 107.366 234.684C109.329 240.045 108.469 238.39 107.258 243.934C106.3 248.318 106.519 263.17 98.2771 261.303C95.8062 260.743 93.0955 250.552 92.518 247.998C92.3282 247.157 93.8643 243.594 91.2957 241.373C90.1545 240.244 91.7237 236.214 92.2568 234.607L88.8595 231.623C86.1851 231.522 82.1793 230.657 81.2316 227.738C81.8781 224.34 84.0958 224.813 86.4112 222.197C86.5106 220.732 84.6841 215.244 83.4776 214.49L82.659 214.75C81.379 216.126 80.382 218.602 79.5594 220.373L75.8545 221.97C74.3991 226.074 84.4358 246.606 69.8304 243.09C68.4377 242.36 68.2721 242.184 67.4597 240.821L67.4476 240.668C67.1031 235.637 67.7646 231.974 68.3844 227.036ZM97.0298 244.508C96.2052 245.755 95.3612 246.804 95.1791 248.291C95.5046 249.558 95.4392 249.899 96.8141 250.475C97.8212 248.616 96.5408 247.908 97.367 246.902C99.8407 243.888 106.898 244.031 105.254 238.573C104.888 237.358 104.414 237.169 103.139 237.135C104.985 242.092 100.846 242.999 97.0298 244.508ZM99.3937 258.108C100.1 257.263 100.821 256.613 100.864 255.533C99.3694 250.821 103.401 252.516 104.552 248.275C104.26 246.941 104.51 247.308 103.645 246.321C102.239 249.767 99.539 251.154 96.8949 253.788C97.7514 255.21 98.6386 256.632 99.3937 258.108ZM100.813 231.776C101.816 229.856 102.151 227.436 100.396 225.902L98.2557 225.886C98.2101 227.761 97.9182 230.32 98.7532 231.877C99.7833 232.252 99.5685 232.105 100.813 231.776ZM117.913 125.961C85.6105 125.656 55.9112 152.304 50.7998 183.6C50.1908 187.329 50.0135 190.818 49.6497 194.545C62.6996 194.707 75.7503 194.743 88.801 194.652C98.0361 194.669 109.102 194.94 118.178 194.441C117.513 186.716 118.453 176.208 118.145 168.25C118.073 166.425 118.204 160.588 117.868 159.041C118.062 153.256 118.731 149.732 118.018 143.747C118.123 137.819 118.088 131.888 117.913 125.961ZM72.7435 240.83C73.5414 240.49 74.5703 240.312 74.8219 239.396C75.403 237.28 75.3578 229.053 73.3395 228.132C72.4718 228.449 71.3932 228.613 71.0665 229.604C70.0311 232.745 69.6637 236.139 70.4616 239.368C70.6671 240.201 71.986 240.588 72.7435 240.83Z" fill="white"/>
<path d="M150.849 198.102C155.861 197.976 156.086 200.804 156.884 204.954C161.107 205.922 163.353 206.389 167.659 206.792C170.201 205.367 174.171 203.195 176.971 205.41C178.738 208.505 175.673 211.796 174.843 213.713C174.551 214.386 176.204 219.022 176.828 219.634C183.161 225.842 179.149 232.034 169.719 231.985C167.858 235.283 164.718 245.179 162.663 249.743C160.382 248.598 157.168 247.754 154.666 247.009C154.723 248.725 154.975 251.093 154.363 252.619C153.094 253.804 153.414 253.452 151.397 253.821C146.711 252.767 147.728 249.999 147.629 245.663C141.217 242.537 138.725 243.115 131.943 241.514C130.509 241.176 129.979 240.867 129.325 239.735C129.166 237.308 131.373 234.674 132.774 232.65L132.641 232.171C127.827 229.637 125.811 235.979 122.432 223.977C124.632 221.187 125.824 219.037 127.3 215.825C128.97 212.188 126.285 213.627 125.384 211.27C124.76 209.638 124.407 207.419 125.21 205.702C128.559 202.802 132.876 206.784 137.207 206.492C140.437 206.274 142.064 205.775 145.169 204.99C146.13 200.537 145.996 198.492 150.849 198.102ZM132.75 238.267C136.783 239.473 137.961 239.311 142.156 238.767C144.352 239.416 144.833 239.804 146.673 241.145C147.707 239.961 146.239 227.818 145.958 225.515C144.218 225.302 142.473 225.134 140.724 225.012C138.372 229.672 135.022 233.629 132.75 238.267ZM162.322 241.419C163.474 238.519 165.06 234.143 166.335 231.446C161.81 229.813 159.978 228.792 155.688 226.878C155.426 231.817 154.966 238.435 154.992 243.288C157.122 244.486 157.802 244.76 160.14 245.484C160.885 244.189 161.748 242.785 162.322 241.419ZM154.986 210.419C158.329 210.517 171.871 211.269 173.742 209.724L174.302 208.755L174.003 207.908C172.231 207.407 171.361 208.28 169.798 209.229C165.52 209.146 157.872 208.794 154.396 206.095C153.46 205.369 154.466 197.545 149.331 201C148.288 202.334 148.752 205.042 148.571 205.294C146.013 208.86 137.09 209.109 133.118 209.119C131.545 209.123 130.035 207.269 128.356 207.63C127.782 208.564 127.933 208.233 128.043 209.479C130.179 211.265 143.733 210.661 147.035 210.379C148.694 214.81 150.002 239.559 150.288 245.389C150.226 246.836 149.977 248.576 150.638 249.807L151.197 249.521C152.097 247.954 152.106 246.156 152.28 244.34C154.054 235.819 153.019 222.667 154.474 213.632C154.671 212.407 154.625 211.714 154.986 210.419ZM156.173 224.063C158.762 224.92 162.219 226.887 164.864 228.072C164.713 226.783 164.393 224.621 164.388 223.394C167.482 219.885 167.914 216.835 170.17 213.347C167.042 213.335 159.588 213.505 156.742 213.213C156.772 217.176 156.415 220.173 156.173 224.063ZM130.623 214.397C129.051 217.305 127.97 219.282 126.776 222.403C127.56 222.397 129.437 222.329 130.127 222.392C131.234 222.415 132.653 222.602 133.5 221.977C133.254 220.756 131.446 215.025 130.623 214.397ZM166.77 224.26C167.504 228.393 171.273 231.159 175.031 228.199C175.744 227.214 176.632 226.278 176.495 225.103C174.616 223.363 169.625 224.543 166.77 224.26ZM145.25 223.36C146.3 222.227 145.258 215.488 145.304 213.387C141.376 213.304 136.303 213.489 132.602 213.267C136.456 223.089 134.453 221.981 145.25 223.36ZM125.344 224.401C126.089 229.432 130.576 231.387 134.23 227.651C134.904 226.017 135.141 226.228 134.712 224.91C132.469 223.457 128.387 224.53 125.344 224.401Z" fill="white"/>
<path d="M150.288 245.389L152.279 244.34C152.106 246.156 152.097 247.954 151.197 249.521L150.638 249.807C149.977 248.576 150.226 246.836 150.288 245.389Z" fill="white"/>
<path d="M147.611 137.49C150.441 136.96 151.617 136.971 154.519 136.998C161.398 141.228 159.209 144.66 160.778 151.469C161.053 152.663 162.584 155.859 163.162 157.187C169.573 157.082 173.139 156.301 178.218 160.578L179.777 163.008C180.096 163.845 180.514 166.883 180.682 167.926C178.795 173.115 177.151 175.63 171.431 174.753L170.502 175.461C171.148 179.983 177.607 189.694 175.121 193.479C172.437 194.624 170.464 191.917 169.054 190.133C158.888 189.361 147.243 190.363 136.978 190.002C135.777 189.959 131.712 193.275 128.912 193.495C127.618 192.984 127.961 193.336 127.385 192.187C127.305 188.911 131.705 179.433 133.162 175.562C127.77 174.964 123.094 173.551 123.14 166.803C123.212 156.194 132.925 157.123 140.554 157.175C141.418 155.214 142.755 151.907 143.136 149.882C143.914 145.751 143.238 144.038 144.771 140.014L147.611 137.49ZM153.591 183.939C153.574 180.228 152.734 174.148 154.747 171.822L155.477 171.729C157.339 174.159 156.156 183.481 156.324 186.847C156.343 187.235 158.711 187.381 158.915 187.113C161.065 184.284 160.305 173.176 158.297 170.812C156.7 168.933 147.77 169.78 145.484 169.874C143.349 173.472 141.745 184.11 144.265 187.35C145.127 187.73 144.894 187.6 146.047 187.173C148.309 184.477 145.43 174.581 147.354 172.138C151.926 172.225 149.75 180.979 150.217 184.124C150.512 186.11 149.33 186.952 152.007 187.417C153.205 186.821 152.992 187.124 153.672 186.094L153.591 183.939ZM133.099 186.084C137.738 177.838 145.112 163.833 150.116 156.106C149.261 155.055 146.754 151.784 145.809 151.225C143.863 156.747 132.072 184.097 131.981 187.581C132.728 187.107 132.651 186.935 133.099 186.084ZM157.655 151.632C155.536 152.804 154.557 153.248 152.285 154.08C156.75 162.598 163.062 172.435 166.895 180.443C167.703 182.385 171.088 187.395 172.363 189.112C171.299 186.2 170.312 183.388 168.989 180.575C165.686 171.645 161.513 160.157 157.655 151.632ZM152.839 150.528C155.763 149.808 157.547 146.85 156.82 143.926C156.092 141.003 153.13 139.227 150.21 139.964C147.303 140.697 145.537 143.646 146.262 146.557C146.986 149.468 149.928 151.244 152.839 150.528ZM151.626 160.149C150.115 162.364 148.54 164.535 146.903 166.658L151.63 166.736C152.96 166.707 154.497 166.714 155.804 166.64C155.014 165.036 153.171 160.665 151.626 160.149ZM168.961 165.505C168.423 167.093 167.899 168.918 168.678 170.535C169.053 171.321 169.738 171.916 170.569 172.177C175.503 173.742 181.325 166.62 173.262 160.516C170.294 160.416 167.325 160.397 164.357 160.46C164.68 161.665 164.948 163.421 165.885 164.114C167.405 164.221 172.096 160.846 174.547 163.78C175.367 164.753 175.76 166.016 175.636 167.282C175.399 169.636 173.704 170.274 171.646 170.769L171.018 170.469C170.944 168.151 172.207 166.858 171.482 165.47C170.412 165.151 170.05 165.291 168.961 165.505ZM130.544 160.557C123.034 163.459 124.582 172.747 132.175 172.686C134.831 172.664 137.654 164.421 131.635 165.612L131.041 166.127C131.555 167.019 131.646 167.143 132.413 167.825C132.95 168.62 132.923 168.992 132.905 169.896L132.334 170.573C129.173 170.765 126.045 167.65 127.431 164.488C130.662 161.53 134.123 162.698 137.382 164.612C137.951 163.207 138.502 161.793 139.034 160.373C136.517 160.41 132.976 160.355 130.544 160.557Z" fill="white"/>
<path d="M168.989 180.575C170.312 183.388 171.299 186.2 172.363 189.112C171.088 187.395 167.703 182.385 166.895 180.443C168.167 180.8 167.845 180.899 168.989 180.575Z" fill="white"/>
<path d="M94.1662 131.237C97.987 131.583 101.702 131.471 105.522 131.341L105.214 144.707C109 144.79 112.942 144.751 116.743 144.764C117.396 146.781 116.977 153.168 117.215 155.992C113.236 155.74 109.181 155.873 105.19 155.937C105.804 166.671 104.304 183.232 105.745 193.26C102.198 193.441 98.0633 193.289 94.471 193.243C94.6229 186.032 94.3656 178.386 94.4823 171.107C94.5352 167.794 94.677 159.283 94.3208 156.361L93.8132 156.143C90.8174 155.772 88.9918 155.312 86.136 156.354C86.4312 156.514 86.6363 156.815 86.8576 157.065C87.467 157.065 88.6542 157.106 89.1989 156.983C90.2488 158.18 90.9902 158.007 91.8535 159.607C91.5446 160.221 91.2777 160.282 90.6555 160.599L90.4354 160.71C91.2644 160.939 91.753 160.974 92.3078 161.616C94.1314 167.844 90.0134 171.578 85.6644 175.135C85.3534 177.36 84.6028 184.781 85.5929 186.538C86.94 188.928 87.6216 190.323 88.6299 193.151C85.6959 193.377 73.1071 193.948 71.0102 192.958C69.4248 190.86 72.3637 187.019 72.9557 184.63C73.1681 183.774 73.1911 181.873 73.1984 180.935C70.4044 178.693 66.7379 177.305 64.1914 174.865C59.5719 170.552 59.5598 161.733 63.8684 157.221C67.5188 153.399 77.8139 154.568 83.0852 154.523C82.992 151.2 82.9823 147.876 83.0562 144.553C87.2251 144.933 90.3655 144.977 94.5619 144.977C94.5191 140.652 94.5825 135.461 94.1662 131.237ZM97.0449 146.979L85.0877 147.082C85.1439 148.886 85.2985 151.485 85.2234 153.224L96.9452 153.097L96.8616 191.057L102.941 191.087C103.058 178.452 102.794 165.605 103.004 153.032C106.898 153.139 110.864 153.301 114.754 153.194C114.295 150.673 114.304 149.619 114.331 147.042L102.973 147.083L102.936 134.036C101.018 134.044 98.6714 134.118 96.8075 133.934C96.866 137.903 96.7905 143.114 97.0449 146.979ZM81.4773 181.495C79.3335 182.056 77.3346 182.464 75.3996 183.545L75.1011 184.107C75.9314 184.746 75.549 184.567 76.8315 184.59C78.6975 184.171 81.6186 183.537 82.9855 182.186L82.7945 181.597C82.4981 181.568 81.7289 181.476 81.4773 181.495ZM66.8909 170.623C64.7996 166.709 64.4891 162.266 68.8583 159.507C72.8697 156.973 80.6055 163.718 83.9498 159.576C83.8892 156.169 74.2689 156.925 71.752 156.866C69.2903 157.195 66.9042 157.601 65.5672 159.865C60.7211 168.068 65.2967 174.415 73.0833 176.604L73.6462 176.42C72.2931 174.539 69.0743 173.206 66.8909 170.623ZM83.5666 172.868C85.92 171.224 90.4091 167.863 88.4228 164.745C85.3514 162.783 76.7523 163.697 72.8871 163.862C71.4762 163.921 70.016 163.739 68.981 164.423C68.041 168.355 76.802 178.698 83.5666 172.868ZM85.5598 190.683C83.7972 189.007 81.5407 186.794 79.2547 185.852C76.1418 187.24 75.7339 187.859 73.9866 190.804C75.8962 190.878 78.2194 191.031 80.0942 191.021C81.8734 190.903 83.7903 190.743 85.5598 190.683Z" fill="white"/>
<path d="M103.138 237.135C104.413 237.169 104.888 237.358 105.254 238.573C106.898 244.031 99.8403 243.888 97.3665 246.902C96.5404 247.908 97.8208 248.616 96.8137 250.475C95.4388 249.899 95.5042 249.558 95.1787 248.291C95.3608 246.804 96.2048 245.755 97.0294 244.508C100.845 242.999 104.984 242.092 103.138 237.135Z" fill="white"/>
<path d="M116.743 144.764L118.017 143.747C118.731 149.732 118.062 153.256 117.868 159.041C117.63 158.202 117.4 156.884 117.215 155.992C116.977 153.168 117.396 146.781 116.743 144.764Z" fill="white"/>
<path d="M94.4062 207.09C94.8395 208.587 94.5205 208.328 95.591 209.107C93.1775 210.492 92.1687 211.928 89.3679 212.621L89.2734 212.267C90.9876 209.855 93.07 209.642 94.4062 207.09Z" fill="white"/>
<path d="M58.2027 205.777C57.1613 204.88 55.4059 203.643 55.8158 202.177C57.0959 202.045 58.6655 203.343 59.8232 204.104L58.2027 205.777Z" fill="white"/>
<path d="M89.1991 156.983C88.6544 157.106 87.4672 157.065 86.8578 157.065C86.6365 156.815 86.4314 156.514 86.1362 156.354C88.992 155.312 90.8176 155.772 93.8134 156.143C92.1077 156.454 90.1747 156.234 89.1991 156.983Z" fill="white"/>
<path d="M178.967 158.981C179.273 159.483 180.233 160.984 180.381 161.437L179.777 163.008L178.218 160.578L178.967 158.981Z" fill="white"/>
<path d="M67.4594 240.821C68.2719 242.184 68.4375 242.36 69.8302 243.09L70.0353 244.736C68.5756 243.764 67.4292 243.174 66.605 241.608L67.4594 240.821Z" fill="white"/>
<path d="M202.722 196.381C205.225 196.398 207.126 196.889 208.517 199.147C209.661 201.002 211.95 204.678 211.578 206.815L210.844 207.15L209.71 206.472L208.89 206.755C208.201 208.184 207.9 208.385 206.645 209.389C199.108 212.079 196.967 206.653 197.066 200.372C199.153 197.747 199.479 197.214 202.722 196.381ZM205.213 206.956C211.219 202.95 208.089 198.937 202.357 199.154C195.989 202.211 198.144 207.31 205.213 206.956Z" fill="white"/>
<path d="M123.428 105.191C134.524 107.017 130.541 107.593 129.883 114.086C129.627 116.608 135.413 117.349 137.95 118.569L139.279 117.97C140.94 115.15 136.412 113.916 137.068 110.126C137.193 109.419 137.597 108.79 138.19 108.384C140.055 107.105 144.972 107.814 144.168 111.053L143.603 111.368C142.501 110.813 141.395 110.266 140.286 109.725C138.41 112.533 143.432 113.848 142.892 117.741C140.749 122.368 133.877 119.123 130.467 117.843C127.73 116.816 127.464 113.77 125.993 113.107L125.336 113.417C124.827 115.041 126.524 116.354 125.933 118.276C124.813 118.524 123.49 118.156 122.34 117.928C121.879 116.106 123.159 115.865 123.429 114.194C123.781 112.014 122.627 106.85 123.428 105.191Z" fill="white"/>
<path d="M45.6823 233.227C51.3251 232.78 55.6458 235.616 53.7516 242.179C53.1184 244.373 50.8627 245.189 48.8574 246.048C42.8039 248.235 36.5042 235.638 45.6823 233.227ZM47.2341 243.978C53.6264 241.665 53.947 234.85 47.9533 234.686C45.213 236.189 42.2043 238.784 43.2792 242.266C44.1781 243.543 45.7069 244.083 47.2341 243.978Z" fill="white"/>
<path d="M74.1048 260.12C77.7221 262.159 85.6376 265.738 82.8739 271.656C81.9011 273.74 78.7381 274.442 76.6443 274.931C74.5421 274.342 70.6643 273.036 69.0612 271.659C67.4181 268.337 74.4343 266.811 74.1048 260.12ZM76.8034 273.568C79.4742 272.137 79.6826 271.14 80.871 268.404C79.5518 264.866 79.725 264.653 76.1872 263.317C74.1262 268.248 69.7465 272.128 76.8034 273.568Z" fill="white"/>
<path d="M158.744 114.172C159.171 114.346 159.594 114.531 160.012 114.726C166.733 117.842 171.647 125.932 162.405 128.808C157.802 128.422 156.761 127.403 152.848 125.091C154.878 122.697 157.397 117.138 158.744 114.172ZM161.393 127.185C166.258 124.862 165.921 118.623 160.747 116.964C159.438 119.91 156.556 123.452 157.4 125.722C158.795 126.975 159.357 126.962 161.393 127.185Z" fill="white"/>
<path d="M185.499 134.373C190.343 135.854 195.884 149.641 182.608 148.541C179.871 147.077 177.693 144.348 175.708 142.007C180.078 139.627 181.936 137.748 185.499 134.373ZM183.042 146.872C188.436 147.353 190.194 141.653 186.365 137.314C183.976 139.998 180.219 141.73 180.214 144.161C180.584 145.441 181.907 146.104 183.042 146.872Z" fill="white"/>
<path d="M129.991 273.077C131.595 273.287 132.917 272.862 134.232 273.697C135.21 275.84 133.846 278.251 134.478 281.149C134.914 283.153 135.855 283.679 136.046 285.219C134.608 286.02 133.628 286.496 132.114 285.782C131.415 284.654 132.084 282.705 131.691 280.758C130.286 279.856 127.433 280.389 126.354 281.83C126.273 283.382 127.459 285.329 128.185 286.795C126.587 286.728 124.923 286.747 123.32 286.743C124.483 281.034 123.399 280.314 122.797 274.705C122.728 274.067 123.305 273.817 123.789 273.478C125.086 273.503 125.281 273.64 126.43 274.247C125.922 275.882 125.014 277.692 126.078 279.099C127.885 279.372 128.361 279.467 130.133 279.067C132.567 277.185 131.221 275.391 129.991 273.077Z" fill="white"/>
<path d="M43.8603 216.93L44.4761 217.587C44.7967 219.868 40.8035 226.244 39.4594 228.718C44.0586 226.952 42.554 227.373 46.2238 225.004L48.131 227.459C48.0611 227.63 47.9913 227.802 47.921 227.975C44.7297 228.704 39.4784 230.174 36.6242 231.448L35.7909 231.233C35.415 229.342 39.9073 222.031 41.0421 220.044C38.1624 221.05 35.7756 222.65 33.3016 223.368C32.9232 222.17 32.827 221.969 33.1876 220.771C34.8068 219.874 40.1887 218.715 43.8603 216.93Z" fill="white"/>
<path d="M79.5006 114.236L81.3694 114.495C82.7755 115.474 86.0306 123.199 87.2824 125.481C83.1046 124.579 78.764 123.403 74.6052 122.338C76.0626 124.575 77.7549 126.151 79.0386 128.223C79.2777 128.61 78.2851 129.762 77.891 130.333L77.1141 130.354C76.9303 130.257 76.707 130.14 76.4446 130.002C75.0341 126.025 72.8224 121.657 70.9697 117.955C74.201 119.33 79.9843 120.927 83.5261 122.003C82.1144 119.116 81.1344 118.242 79.3261 115.695C79.0285 115.277 79.308 114.849 79.5006 114.236Z" fill="white"/>
<path d="M65.248 122.93L66.3714 123.307C67.0522 124.404 68.2717 125.754 69.0268 126.78C74.8933 134.747 68.6327 141.676 61.1481 134.116C59.7295 132.683 58.0024 131.577 56.2891 130.51L60.8755 127.541C61.8156 131.169 65.4543 137.498 69.9628 134.165C71.066 131.062 65.3271 127.781 64.3022 124.944C64.131 124.472 64.9455 123.428 65.248 122.93Z" fill="white"/>
<path d="M44.9307 144.235C47.7484 144.669 55.6514 146.578 57.9196 145.823L58.3844 146.363C58.1691 148 57.7661 149.003 56.2987 149.802C55.4515 149.446 54.9298 149.185 54.1318 148.754C52.7504 149.298 53.1001 149.265 52.131 150.743C52.1548 152.597 51.9852 151.941 53.4882 153.562C53.5346 154.668 52.746 156.169 51.7425 156.658C50.4313 151.946 45.5279 147.657 44.9307 144.235Z" fill="white"/>
<path d="M176.604 126.112L176.747 126.144C178.003 127.655 174.714 136.293 174.464 140.741C174.042 140.29 173.625 139.835 173.215 139.375C170.461 136.245 172.124 136.539 172.275 133.688L172.287 133.439C167.66 131.021 169.688 133.854 165.813 133.907C164.881 133.082 165.156 133.357 164.712 132.109C165.701 130.789 166.397 131.528 168.24 130.609C171.064 129.201 173.796 127.584 176.604 126.112Z" fill="white"/>
<path d="M60.6135 246.715C61.5705 247.24 62.5094 248.633 63.2136 249.537C59.9577 251.695 56.5932 254.106 54.3545 257.364L54.2551 257.511C53.1467 257.374 53.4467 257.363 52.5087 256.304C50.6608 254.141 48.7383 252.724 50.6822 249.669C53.0211 247.68 55.0971 249.222 56.8904 250.897C58.3348 249.503 59.3407 248.257 60.6135 246.715Z" fill="white"/>
<path d="M183.946 240.74C184.646 241.55 184.362 243.094 184.988 244.621C186.486 248.278 187.632 251.045 189.757 254.385C186.017 253.489 183.442 252.828 179.795 251.57C179.208 251.398 176.607 251.158 175.901 251.099L175.543 250.57C176.288 249.55 176.893 248.742 177.72 247.789C179.377 247.826 178.936 247.862 180.566 248.919L181.506 248.631C182.295 247.841 183.071 247.22 183.376 246.155C183.054 245.419 182.726 244.88 182.326 244.193C182.339 242.386 182.747 242.402 183.946 240.74Z" fill="white"/>
<path d="M194.408 170.033L194.573 170.297C196.846 173.849 202.506 172.179 206.117 173.72L206.564 174.429C205.984 175.949 198.752 181.94 196.877 182.229C195.942 181.46 196.134 181.139 195.762 179.693C196.874 177.3 198.691 179.596 198.607 175.573C196.765 173.032 194.53 175.559 194.23 172.133L194.408 170.033Z" fill="white"/>
<path d="M106.212 105.679L106.361 105.755C106.748 106.849 105.862 108.51 105.591 109.858C104.826 113.668 104.159 117.481 103.492 121.308C102.006 118.821 98.0528 114.252 96.001 111.311L93.9355 109.194L94.0426 108.599C95.0888 108.287 96.7166 108.432 97.8537 108.47C98.671 109.246 101.61 114.429 102.64 115.974C103.227 112.804 102.889 111.126 103.417 108.11C103.662 106.706 104.89 106.398 106.212 105.679Z" fill="white"/>
<path d="M110.036 105.579C112.23 105.482 116.391 104.978 117.991 106.12L117.934 106.704C117.205 107.292 115.624 107.174 114.593 107.201L113.993 107.908C114.168 108.9 114.308 110.075 114.816 110.926C114.847 110.978 114.877 111.029 114.908 111.08C116.671 110.632 116.208 110.587 117.649 111.015L117.807 111.961C116.552 113.486 116.142 112.116 114.6 113.771C114.585 115.042 115.06 115.566 115.758 116.634C117.339 116.334 116.577 115.367 117.94 114.997L118.495 115.691L118.22 116.764C116.979 117.968 113.109 118.557 111.537 117.97C110.66 115.946 111.666 116.327 112.014 114.031C112.381 111.611 110.259 106.818 110.036 105.579Z" fill="white"/>
<path d="M108.917 273.958C110.732 273.895 115.432 273.596 116.778 274.49C117.324 275.33 117.382 277.021 116.603 277.663L115.054 275.296C108.7 274.091 104.584 281.984 111.719 284.52C114.659 284.601 115.181 283.228 116.803 283.819L116.965 284.427C116.186 285.546 114.513 286.865 113.097 286.75L112.897 286.733C105.005 286.074 102.922 277.236 108.917 273.958Z" fill="white"/>
<path d="M206.486 182.827C207.609 182.871 207.973 182.828 208.988 183.334C210.425 184.984 210.692 192.24 208.616 194.206L207.702 194.145C206.826 192.368 208.606 192.276 208.221 189.977C207.312 189.556 204.118 190.149 202.916 190.31C199.828 190.342 199.537 189.92 197.487 192.284L197.183 191.92C196.967 190.354 196.745 189.502 197.3 187.999C200.158 185.378 204.736 189.683 207.844 186.4L206.486 182.827Z" fill="white"/>
<path d="M194.23 172.133C194.027 167.468 185.103 157.644 196.977 156.142C201.789 155.533 206.211 162.255 202.64 165.769C201.492 164.457 202.753 159.059 199.648 158.696C193.503 157.979 191.605 162.024 194.292 167.1C195.154 168.728 194.893 168.366 194.408 170.033L194.23 172.133Z" fill="white"/>
<path d="M90.4878 274.97C90.0896 276.307 89.4577 277.904 89.7052 279.234C90.4987 279.959 91.7715 280.481 92.7681 280.953L92.9434 281.598L92.097 282.175C90.2875 282.44 86.8269 281.616 85.89 279.823C85.3433 276.549 89.8413 273.508 88.8217 270.22C88.6868 269.785 88.6311 269.405 88.5556 268.963L89.3184 268.587C91.3079 268.726 95.2249 269.657 95.5827 271.865C93.2943 272.878 93.0899 269.97 90.8092 273.354C90.5892 274.027 90.4543 274.275 90.4878 274.97Z" fill="white"/>
<path d="M30.3855 205.278C31.3504 205.505 31.7004 205.541 32.5393 206.132C32.1544 207.249 31.9891 207.629 31.896 208.821C34.3111 211.73 39.9059 206.562 42.8528 207.672C43.0805 208.71 42.9044 209.891 42.8099 210.967C42.0399 211.594 41.2666 211.049 40.0753 211.054C37.7251 211.365 35.0625 211.9 32.7018 212.32C33.0704 213.633 33.5554 214.915 33.3267 216.25L32.8152 216.496C30.6787 214.535 29.1963 207.769 30.3855 205.278Z" fill="white"/>
<path d="M36.1607 161.406C37.0243 161.535 37.1266 161.582 37.8723 162.038C37.2789 164.77 30.8436 170.819 41.5354 171.977C44.8289 172.335 45.0163 165.985 45.9232 164.763L47.0498 165.365C46.4251 173 42.4884 176.873 35.1299 172.915C33.5069 168.245 33.548 165.478 36.1607 161.406Z" fill="white"/>
<path d="M166.59 273.791C165.625 270.679 163.306 265.688 160.49 263.907L160.342 263.815L160.389 263.25C162.319 261.689 163.991 259.918 166.47 259.926L166.723 260.489C164.352 263.055 164.199 262.563 165.688 265.652L166.791 266.352C167.012 267.457 167.434 269.128 168.418 269.757C170.624 269.538 170.765 267.146 172.691 267.681L172.847 268.752C172.39 270.331 168.063 272.842 166.59 273.791Z" fill="white"/>
<path d="M191.802 232.775C199.232 232.684 198.578 237.861 197.207 243.229C197.051 243.371 196.894 243.51 196.736 243.649C195.433 244.789 194.81 245.44 193.105 245.328L192.907 244.955C195.339 242.723 197.166 241.928 196.49 238.412C194.879 236.356 192.863 234.204 190 234.77C187.615 236.091 187.098 238.468 186.135 241.025L185.722 241.119C184.121 235.925 186.951 233.59 191.802 232.775Z" fill="white"/>
<path d="M152.22 266.905L152.817 267.263C153.108 269.023 155.003 274.016 155.994 275.602C157.533 278.063 159.826 274.07 161.319 274.252C161.725 276.037 160.318 276.827 158.998 277.553C157.252 278.534 156.095 279.235 154.189 279.906L153.744 279.6L154.058 277.743C152.429 273.114 152.175 273.14 149.141 269.35C149.64 268.28 151.159 267.553 152.22 266.905Z" fill="white"/>
<path d="M195.876 212.408C198.724 214.672 205.87 213.993 207.646 216.955C207.619 218.43 207.779 217.884 206.925 219.141L205.943 219.094C204.44 217.749 203.895 217.63 202.016 217.109C191.471 214.532 199.115 220.185 195.976 221.4C193.087 219.815 195.062 214.777 195.876 212.408Z" fill="white"/>
<path d="M149.173 110.015C151.42 111.681 151.711 110.531 153.166 112.269C152.718 113.152 152.6 113.131 152.015 113.772C150.39 115.556 148.621 120.803 148.751 123.083L148.606 123.558C146.735 123.133 147.068 123.482 145.93 122.308C145.008 118.9 148.939 114.76 149.166 110.171L149.173 110.015Z" fill="white"/>
<path d="M193.111 223.194C195.562 224.937 198.359 226.46 201.243 227.317C202.155 227.588 203.065 227.017 204.307 227.186C204.5 228.472 203.463 230.347 202.898 231.765L202.417 231.836C199.883 228.365 194.308 228.069 191.517 227.054C191.437 225.715 192.413 224.393 193.111 223.194Z" fill="white"/>
<path d="M89.899 110.429L90.7192 110.471C89.3918 114.547 95.0161 119.099 93.8624 122.775L92.3538 123.535C89.5683 121.572 89.6664 114.75 86.6989 112.647C86.4978 112.504 86.5446 112.168 86.5127 111.827C87.6518 111.385 88.7809 110.919 89.899 110.429Z" fill="white"/>
<path d="M40.4933 153.588L40.7167 153.632C41.5481 154.577 46.2807 157.34 47.7744 158.169C48.4217 158.528 50.2126 158.152 50.9181 158.743C50.4246 160.194 50.0353 161.355 49.3929 162.763C47.5342 161.179 44.1829 158.93 41.9507 157.854C40.6819 157.242 39.6547 157.443 38.1582 156.415C38.1927 155.398 39.5753 154.459 40.4933 153.588Z" fill="white"/>
<path d="M40.6302 197.855C40.9234 197.718 40.9153 197.809 41.3668 197.897C41.9362 199.448 42.0856 199.771 41.8546 201.381C41.1023 202.54 39.4829 201.968 37.9444 201.803C34.8714 201.473 33.1752 201.697 30.176 202.542C29.4253 202 29.2842 200.446 29.019 199.35C30.7407 198.175 37.947 200.265 40.6302 197.855Z" fill="white"/>
<path d="M143.277 270.442L144.022 270.576C143.832 276.495 145.139 277.025 146.805 282.523C146.033 283.41 145.209 283.294 143.837 283.547L143.223 283.2C143.05 280.994 142.987 278.98 142.337 276.84C141.734 274.851 140.121 273.533 140.459 271.798C141.453 271.205 142.212 270.895 143.277 270.442Z" fill="white"/>
<path d="M31.5623 176.705C31.7138 176.752 31.8575 176.787 31.993 176.881C38.3905 181.308 40.8704 178.716 43.0777 179.707C43.5247 180.867 43.1326 182.273 42.9113 183.531C40.1964 182.283 36.1376 181.333 33.1173 181.12C31.739 181.022 31.4756 181.497 30.1694 180.791L31.5623 176.705Z" fill="white"/>
<path d="M33.0108 190.022C37.5742 189.13 37.1377 189.753 41.5906 190.057C42.3089 190.751 42.0929 190.575 42.2157 191.807C40.2552 195.292 34.1722 190.54 29.6818 192.739L29.2407 192.38L29.8464 189.931C30.6932 190.143 32.0904 190.045 33.0108 190.022Z" fill="white"/>
<path d="M29.8463 189.931C29.783 187.967 29.3034 186.475 30.8996 185.198L31.6821 185.434C32.8795 187.974 29.3467 188.156 33.0107 190.022C32.0903 190.045 30.6931 190.143 29.8463 189.931Z" fill="white"/>
<path d="M90.488 274.97C90.4545 274.275 90.5894 274.027 90.8094 273.354C92.6496 274.612 93.1434 274.678 93.817 276.612L93.5097 277.033C91.9837 276.774 91.5141 276.154 90.488 274.97Z" fill="white"/>
<path d="M165.688 265.652C167.107 264.199 166.546 264.417 168.299 263.914L169.406 264.189L169.589 264.934C168.933 265.909 167.94 266.031 166.791 266.352L165.688 265.652Z" fill="white"/>
<path d="M126.369 79.9127C127.449 79.8598 127.628 79.8323 128.634 80.2974C129.991 82.0958 130.664 83.6477 129.097 85.5645C127.629 86.0849 125.859 85.1984 123.906 85.0905L123.743 85.6715C124.68 87.7564 126.964 86.2566 127.67 89.5693C126.726 91.3867 126.597 92.0222 124.551 92.2986C123.381 91.9503 122.401 91.4634 121.857 90.3341C119.308 85.0428 122.338 82.1794 126.369 79.9127Z" fill="white"/>
<path d="M109.708 79.9362C115.925 79.2311 120.115 86.1439 116.909 91.0214C114.706 94.3721 111.305 90.2675 109.98 88.7398C111.836 87.8776 114.466 87.1333 115.156 85.6428L114.853 84.9729C113.082 84.4073 112.063 86.3709 110.264 85.8566C109.68 84.4162 109.748 83.5964 109.733 82.0691L109.708 79.9362Z" fill="white"/>
<path d="M133.987 77.1564C134.731 77.122 134.944 77.2945 135.645 77.6166C140.054 82.9636 138.865 81.2057 135.641 86.9059C134.246 87.8376 133.248 87.6331 132.057 86.6788C130.823 83.8044 130.988 82.3135 131.546 79.2275C131.753 78.0816 132.832 77.796 133.987 77.1564Z" fill="white"/>
<path d="M99.4619 82.5059C100.21 81.4166 100.977 80.3402 101.763 79.2776C102.652 78.0929 103.24 77.4719 104.728 77.2626C106.068 77.6465 106.292 77.8849 107.35 78.8222C107.134 81.2473 107.087 84.4687 107.578 86.859L107.176 86.9644C101.957 88.3063 103.958 85.1212 99.5899 82.5786L99.4619 82.5059Z" fill="white"/>
<path d="M130.374 89.3281C131.013 89.3709 132.541 89.421 133.101 89.5968C135.088 90.219 137.091 95.2344 136.061 96.8764L134.52 96.9192L126.259 94.3964C127.79 92.8404 129.058 91.0703 130.374 89.3281Z" fill="white"/>
<path d="M107.542 89.103C108.644 89.2982 111.463 93.0497 111.642 94.1459C110.481 95.2073 108.288 95.68 106.715 96.1523C105.036 96.7022 104.371 97.1341 102.914 96.476L102.496 95.3228C102.562 92.1855 104.733 90.023 107.542 89.103Z" fill="white"/>
<path d="M101.709 65.1939C106.119 66.4004 105.017 71.6141 102.601 74.4089C98.6298 73.3523 99.5718 67.9277 101.709 65.1939Z" fill="white"/>
<path d="M136.015 65.1596C140.079 67.0109 140.17 70.6388 137.298 73.7261C136.908 74.0643 136.532 74.055 136.012 74.1333C133.676 72.0897 134.403 67.5483 136.015 65.1596Z" fill="white"/>
<path d="M119.137 90.7818C120.803 91.3713 122.228 92.5871 122.365 94.362C121.418 95.6957 121.269 95.4768 119.673 96.2359L119.121 96.377C117.915 95.8182 117.352 95.6452 116.518 94.6258C116.66 92.9087 117.807 92.143 119.137 90.7818Z" fill="white"/>
<path d="M107.349 78.8222L109.708 79.9362L109.733 82.0691L109.196 81.5733C108.844 84.1628 109.313 84.7871 109.181 86.295C108.334 85.7374 108.294 85.4614 107.97 84.5382C107.885 85.1499 107.76 86.3192 107.578 86.859C107.087 84.4687 107.134 81.2473 107.349 78.8222Z" fill="white"/>
<path d="M64.0644 76.6008C65 76.979 66.4283 78.2949 67.2658 78.9943C69.3393 78.7964 75.1647 77.6562 76.7218 78.0764L77.0081 78.7204C75.6658 82.646 70.9001 82.7842 67.4273 82.1721L67.2339 82.1366L66.5284 82.6327C64.7226 85.2416 60.5779 89.2085 57.156 88.1535C56.4667 84.6182 61.4364 83.8885 62.8816 81.6695C63.877 80.1422 63.9049 78.3939 64.0644 76.6008Z" fill="white"/>
<path d="M76.4806 84.9729C77.7862 84.8012 77.4676 84.6416 78.4052 85.2251C79.9736 90.9491 72.4813 87.8796 70.56 88.8323C68.9734 89.619 66.8179 92.9863 64.0708 94.5115C63.6161 94.9095 63.3738 94.7762 62.6381 94.7919L61.82 93.9503C61.1997 88.7939 72.739 85.6097 76.4806 84.9729Z" fill="white"/>
<path d="M79.2349 91.9374L79.5523 92.1733C80.1205 93.2929 80.0841 93.4885 79.9682 94.739C78.2282 96.7075 74.5451 94.5451 73.3587 95.2121C70.2591 96.9556 71.6235 98.9568 67.5115 100.929C61.7738 95.6214 75.6988 92.8154 79.2349 91.9374Z" fill="white"/>
<path d="M158.985 86.1083C165.032 81.758 160.632 81.3374 163.297 77.7313C165.024 77.1059 167.525 79.3463 169.095 79.4537C170.758 79.5673 171.73 77.3438 173.925 77.4263C176.188 79.8343 174.534 80.8343 176.232 82.8913C177.85 84.8517 180.591 84.1168 182.032 86.2125C180.992 88.7253 178.763 89.636 177.76 91.8384C176.837 93.9907 177.846 98.6234 175.875 100.268C171.077 104.194 162.055 100.08 158.289 96.2453C154.735 92.6283 155.624 89.265 158.985 86.1083ZM172.689 100.139C177.078 97.3693 173.789 92.3099 178.573 86.5762C175.41 85.0671 174.349 84.505 172.943 81.0768C168.938 81.0461 168.6 81.823 164.682 80.1943C164.308 86.9034 161.127 86.0052 157.391 91.4234C161.038 97.4129 166.12 99.1111 172.689 100.139Z" fill="white"/>
<path d="M170.715 84.6994C172.401 85.6408 170.661 88.2562 171.832 89.335C172.302 89.7669 173.337 89.4279 174.304 90.7204C173.469 91.9358 172.139 91.7851 170.9 92.5887C171.14 92.4335 169.919 95.0958 169.753 95.3628C168.623 95.0255 168.404 94.3087 167.584 93.2028C166.646 92.7447 165.47 92.4473 164.507 92.8715L164.386 92.7022C166.523 90.5261 164.899 88.3382 164.681 86.2243L165.092 85.9422C166.038 86.6028 166.652 87.114 167.764 87.436C169.073 86.8909 169.813 85.7939 170.715 84.6994Z" fill="white"/>
<path d="M157.74 74.3341C160.533 75.6295 160.793 75.756 163.793 74.6549L163.956 74.5947C171.901 79.2586 171.299 73.4707 176.318 75.7248C177.808 77.3956 177.349 79.5289 178.502 81.1713C180.288 83.7151 185.112 82.3273 184.855 86.0077C184.782 87.0444 184.716 88.0764 184.228 88.9762C182.101 88.3887 182.275 88.2077 182.032 86.2125C180.591 84.1168 177.85 84.8517 176.232 82.8913C174.534 80.8343 176.188 79.8343 173.925 77.4263C171.73 77.3438 170.758 79.5673 169.095 79.4537C167.525 79.3463 165.024 77.1058 163.297 77.7313C160.632 81.3374 165.032 81.758 158.985 86.1083C158.485 85.8537 157.244 85.5483 156.644 85.3786C157.586 83.6933 158.003 81.3252 156.067 80.2432L154.419 80.7725C154.425 79.8331 154.542 78.9095 154.638 77.9741C156.486 78.9685 156.926 78.9685 157.96 80.8796C158.479 81.8376 158.961 82.2582 159.941 82.4877C161.21 80.1196 159.178 76.263 157.74 74.3341Z" fill="white"/>
<path d="M93.3202 86.6901C93.4785 86.7669 93.6364 86.844 93.7947 86.9208C97.3647 90.2259 96.2527 91.3859 94.2348 93.9366L93.7773 94.3636L93.2079 94.2089C91.774 91.6323 92.1508 89.2461 93.3202 86.6901Z" fill="white"/>
<path d="M53.6187 105.373C55.2012 106.221 58.6647 107.942 58.0162 109.999C57.0664 110.216 56.235 110.347 55.2759 110.495C53.7936 109.86 54.2483 110.261 53.4067 108.935C53.2266 107.274 53.2214 106.985 53.6187 105.373Z" fill="white"/>
<path d="M39.9575 88.9006C43.9308 88.9988 52.7116 87.459 54.6632 91.2441L54.4092 91.9988C53.0746 92.7507 50.0234 92.6053 48.1449 92.7418C47.7601 92.9071 47.5707 93.2202 47.3009 93.5532C47.6414 94.5184 48.0435 94.9269 48.684 95.7156L48.3456 96.4372C47.0704 96.8626 42.4472 96.7418 41.1376 96.1132C40.5549 95.1915 40.2939 90.8303 39.9575 88.9006Z" fill="white"/>
<path d="M157.74 74.3341C159.179 76.263 161.21 80.1196 159.941 82.4877C158.962 82.2582 158.48 81.8376 157.961 80.8796C156.926 78.9685 156.486 78.9685 154.639 77.9741C155.61 75.819 155.651 75.3487 157.74 74.3341Z" fill="white"/>
<path d="M51.9432 94.638C53.6618 94.5269 54.1202 94.4776 55.7834 94.8497L55.863 95.3544L54.6403 96.0869C53.0598 96.5018 52.7072 96.6319 51.1344 96.2853L50.9692 95.6542L51.9432 94.638Z" fill="white"/>
<path d="M183.711 111.291L185.469 110.342C185.521 111.946 185.622 112.501 184.922 113.915L184.267 114.451C182.871 113.301 183.736 112.743 183.711 111.291Z" fill="white"/>
<path d="M460.152 158.998C464.561 158.74 474.527 158.762 478.549 160.006C481.832 161.031 484.566 163.327 486.145 166.383C490.009 173.808 487.36 183.253 479.842 187.176C476.078 188.582 459.267 190.778 457.349 187.749C460.846 183.278 458.823 168.613 459.057 162.742C459.07 162.421 456.929 160.508 456.445 159.649L456.655 159.052L460.152 158.998ZM478.226 184.903C480.387 183.189 482.256 179.639 482.398 176.891C482.947 165.928 475.549 161.539 466.019 161.331C465.623 161.553 464.957 161.812 464.909 162.144C464.23 166.859 463.899 181.162 465.256 185.147C468.398 188.586 474.6 186.653 478.226 184.903Z" fill="white"/>
<path d="M726.181 158.919C730.805 158.491 739.834 159.051 744.296 159.94C744.627 160.227 744.95 160.528 745.261 160.84C750.45 166.063 747.111 170.99 742.887 175.175C745.334 178.585 748.593 182.005 751.326 185.232C752.332 186.416 753.87 186.92 755.272 187.636L755.126 188.29C751.815 190.752 747.66 188.01 745.007 186.02C741.825 182.975 739.45 174.347 734.936 177.463C732.824 181.587 735.053 185.105 737.536 188.206C736.143 188.991 728.98 189.336 727.724 188.681L727.647 187.826C731.108 183.358 729.565 168.395 729.359 162.549C729.315 161.238 726.759 160.315 726.181 158.919ZM734.629 174.306C736.979 174.614 738.893 175.199 740.747 173.789C740.965 173.622 741.175 173.447 741.381 173.266C743.448 166.95 742.903 161.045 734.641 161.572C734.544 165.765 734.358 170.132 734.629 174.306Z" fill="white"/>
<path d="M433.089 210.078C441.436 210.066 445.175 209.36 452.524 213.421C455.662 218.728 456.171 226.89 450.869 230.964C446.342 234.194 438.916 233.202 433.218 233.114C435.645 228.039 435.407 215.261 433.089 210.078ZM438.435 231.456C443.394 231.713 445.292 232.186 449.653 229.497C453.929 223.908 452.447 220.093 449.326 214.618C445.453 212.444 443.055 211.589 438.524 211.868C437.066 213.905 437.712 227.201 438.217 230.246C438.286 230.65 438.359 231.054 438.435 231.456Z" fill="white"/>
<path d="M394.524 210.266C400.049 209.608 409.212 209.691 413.73 213.322C415.741 214.911 417.025 217.245 417.292 219.796C417.776 224.382 415.515 227.752 412.834 231.104C409.349 233.491 399.005 234.199 395.233 232.616L395.221 232.101C396.282 231.217 396.961 230.707 396.894 229.299C396.613 223.428 398.979 214.593 394.524 210.266ZM400.305 231.423C405.868 231.771 407.193 232.213 412.083 229.253C415.031 224.235 415.289 216.75 409.551 213.662C406.248 211.884 403.783 211.89 400.129 211.712C399.991 218 399.933 225.175 400.305 231.423Z" fill="white"/>
<path d="M552.6 158.156C553.601 158.48 572.71 178.39 574.898 180.857C573.84 174.978 575.221 163.352 572.863 160.3C572.019 160.017 571.478 159.924 570.921 159.212C572.067 158.579 578.916 158.538 580.519 158.883L580.818 159.352C576.695 162.918 577.854 169.879 577.765 174.895C577.685 179.407 577.814 183.433 577.382 187.978L577.192 188.915L576.465 189.158C572.992 187.984 556.662 170.236 554.033 166.69C554.986 172.83 554.247 180.507 555.459 186.657C555.495 186.845 556.896 186.784 557.639 187.874L557.211 188.47C555.612 188.937 551.069 189.013 549.575 188.464C549.192 187.169 551.643 186.44 551.78 184.061C552.293 175.333 551.259 166.837 552.6 158.156Z" fill="white"/>
<path d="M648.666 158.069C651.17 159.236 669.753 178.765 671.57 181.286C671.251 175.655 671.243 170.031 671.09 164.394C671.013 161.576 670.621 160.728 668.049 159.635L668.017 159.146C671.566 158.847 675.124 158.588 678.681 158.37C678.221 158.741 675.164 160.698 675.144 160.8C673.432 169.244 674.054 180.046 673.993 188.7L673.783 189.211C670.553 188.83 653.782 171.088 651.614 167.368C651.638 172.309 651.469 180.682 652.155 185.755C652.212 186.177 653.681 187.617 654.093 188.026C652.825 189.394 646.655 189.397 645.028 187.842C645.533 187.354 646.433 187.13 647.132 186.887C648.816 184.702 648.198 163.291 648.666 158.069Z" fill="white"/>
<path d="M600.568 158.532C603.524 158.619 610.264 158.194 612.376 159.629C614.12 161.908 613.357 165.52 613.147 168.533C612.614 167.584 611.693 165.766 611.035 165.023C602.858 155.783 590.449 161.449 591.329 173.535C591.656 178.047 592.916 180.157 594.915 184.021C603.815 188.414 610.866 188.943 607.518 176.298L606.44 175.083L606.488 174.389C607.461 173.879 614.568 173.814 615.437 174.358C615.041 175.147 613.692 177.83 613.603 178.554C613.244 181.401 614.427 185.086 612.852 187.71C607.591 191.464 594.414 189.107 589.444 185.028C583.394 180.062 583.524 170.254 588.095 164.383C591.366 160.191 595.666 159.08 600.568 158.532Z" fill="white"/>
<path d="M342.256 187.09C347.612 186.061 349.961 183.78 350.174 177.875C350.361 172.676 350.19 167.131 349.614 161.975C349.572 161.6 347.784 159.663 347.427 159.274C351.214 159.01 354.27 158.71 358.029 158.185C356.501 159.554 355.437 160.418 354.221 162.095C352.755 169.107 356.113 180.389 351 185.891C348.856 188.198 343.851 189.841 340.614 189.576C324.365 188.245 331.493 172.652 329.105 162.393C328.695 160.693 326.557 159.958 326.008 159.374C327.006 158.952 334.661 158.735 336.521 158.629L336.853 158.624L337.363 159.163C334.077 163.597 333.994 177.81 336.015 183.026C337.012 185.6 339.892 186.373 342.256 187.09Z" fill="white"/>
<path d="M424.569 157.725C428.986 159.488 434.268 181.459 437.523 185.914C437.854 186.366 439.586 187.383 440.156 187.728L440.148 188.209C438.597 189.243 433.848 189.016 431.781 189.007C431.429 186.374 430.355 178.672 426.664 178.555C425.99 178.534 425.186 178.529 424.504 178.518C423.297 178.457 421.447 178.215 420.567 178.976C418.39 180.854 417.579 183.761 417.296 186.484L419.424 187.882L419.452 188.413C417.522 189.021 412.325 188.935 410.383 188.47C410.415 187.347 413.157 186.539 413.759 184.941C417.159 175.931 421.548 166.824 424.569 157.725ZM424.379 176.225L426.479 176.395C427.815 175.027 425.283 168.916 424.439 167.079L421.31 176.007C422.396 176.417 423.22 176.287 424.379 176.225Z" fill="white"/>
<path d="M790.77 157.817C795.273 161.754 800.256 184.414 804.407 187.089C804.819 187.354 805.037 187.615 805.271 188.044C804.015 189.473 799.311 189.05 797.38 189.016C796.609 185.096 795.309 182.091 793.819 178.432L788.537 178.496C788.162 178.493 787.79 178.497 787.414 178.509C784.313 178.627 782.71 183.956 782.847 186.593C783.647 187.051 783.865 187.151 784.499 187.853L784.164 188.443C782.977 189.055 775.736 188.806 773.883 188.785C775.369 187.821 777.061 187.196 778.696 186.516C782.593 179.575 785.981 165.179 790.77 157.817ZM788.868 176.179C789.971 176.196 791.776 176.403 792.595 175.944C792.385 174.225 791.315 168.508 789.975 167.548L789.853 167.459C788.933 169.396 786.28 174.32 787.176 176.235C787.834 176.249 788.222 176.275 788.868 176.179Z" fill="white"/>
<path d="M620.67 158.891C624.587 159.142 635.461 159.056 639.08 158.452C638.983 160.258 638.983 161.875 638.47 163.616C637.731 164.024 637.715 163.86 636.657 163.185C633.535 161.197 632.808 161.508 629.138 161.527L629.114 171.688C632.885 172.001 633.507 171.684 637.182 171.238C637.456 171.404 637.731 171.571 638.009 171.738C638.631 173.149 638.07 175.618 637.852 177.255L635.029 174.549L628.992 174.497C629.122 176.143 629.073 178.595 629.093 180.303C628.948 187.275 630.458 186.552 636.818 186.158C637.828 184.848 639.007 183.069 639.984 181.684C640.061 188.339 640.376 188.899 632.752 188.845C629.772 188.824 623.896 189.456 621.413 188.292L621.284 187.776L622.701 186.466C623.468 184.633 623.404 165.533 622.891 162.386C622.661 160.963 620.896 160.46 620.67 158.891Z" fill="white"/>
<path d="M719.353 158.626L719.704 158.567C720.277 159.456 720.023 163.67 720.003 165.012C718.444 163.373 717.814 162.925 715.973 161.642C714.196 161.574 712.262 161.619 710.469 161.624C710.711 164.275 710.598 168.884 710.614 171.678C714.81 172.01 716.538 172.102 720.241 169.961C720.027 171.815 719.902 174.133 719.135 175.784C717.354 176.365 716.421 174.804 714.576 174.55C713.425 174.392 711.575 174.498 710.388 174.56C710.602 177.349 709.492 183.709 711.7 185.533C713.473 186.998 717.552 186.749 719.187 184.756C719.74 183.877 719.865 183.587 720.782 183.021L721.242 183.238C721.428 184.984 720.762 187.183 720.35 188.941C716.316 188.645 704.892 189.504 702.175 188.236L702.086 187.675C704.307 186.497 704.82 184.979 704.573 182.499C703.758 174.28 707.844 164.52 700.818 158.723C704.626 159.031 715.949 159.172 719.353 158.626Z" fill="white"/>
<path d="M380.578 158.649L381.019 158.579C381.6 159.461 380.99 163.963 380.924 165.617C377.508 161.244 376.886 161.575 371.347 161.475C371.5 164.181 371.409 169.107 371.123 171.707C375.328 172.017 376.462 171.964 380.527 170.838C380.411 172.06 380.257 175.37 379.657 176.173C375.411 174.235 376.146 174.309 371.212 174.481C371.864 180.633 368.378 188.061 378.462 186.178C379.537 185.978 380.17 184.925 380.751 184.086L381.367 182.994L381.823 183.593L381.922 183.004L382.288 183.421C382.385 185.712 381.991 186.797 381.383 188.991C375.592 188.638 369.614 189.141 363.824 188.656C363.51 187.555 365.352 185.36 365.389 183.793C365.553 176.777 365.432 169.603 365.358 162.599C364.51 161.371 363.161 159.788 362.201 158.589C365.614 159.074 377.255 159.08 380.578 158.649Z" fill="white"/>
<path d="M492.303 158.903C497.755 158.519 505.144 159.571 510.426 158.461C510.394 160.413 510.41 161.658 510.051 163.596C509.372 164.101 509.3 163.874 508.5 163.31C505.661 161.305 504.656 161.512 501.203 161.591C501.231 164.849 501.114 168.421 501.062 171.699C504.522 172.01 508.258 170.969 509.534 171.428C510.261 172.853 510.018 176.02 509.99 177.783C506.598 173.735 506.045 174.307 500.759 174.511C501.074 175.905 501.106 176.644 501.179 178.081C500.969 182.684 500.141 188.155 507.099 186.291C509.586 185.625 509.267 185.401 510.543 183.274L511.189 183.159C511.892 184.238 511.71 186.951 510.931 187.994C508.839 189.69 506.037 188.687 503.529 188.735C500.25 188.797 497 189.029 493.725 188.882C493.422 187.217 494.932 185.568 494.944 184.074C494.997 177.19 495.659 169.069 494.629 162.33C494.528 161.677 492.768 159.526 492.303 158.903Z" fill="white"/>
<path d="M309.006 158.561C314.04 158.679 316.702 158.782 321.599 159.727C321.469 162.646 321.49 165.653 321.475 168.581C320.444 166.984 318.76 164.129 317.317 163.115C302.378 152.617 294.125 175.708 305.002 184.383C308.359 187.06 312.368 186.811 316.363 186.285C318.609 185.074 319.775 182.046 321.623 181.928C322.277 184.453 319.812 189.232 316.442 189.387C308.181 189.765 297.936 188.655 294.556 179.711C292.779 175.008 293.117 168.484 296.434 164.535C299.798 160.587 304.002 159.076 309.006 158.561Z" fill="white"/>
<path d="M264.374 158.62L264.932 158.444L265.5 158.844C265.727 160.64 265.388 163.654 265.236 165.564C264.292 164.399 263.218 162.897 262.3 161.678L255.572 161.478C255.668 164.81 255.598 168.531 255.599 171.893C258.16 171.864 262.95 170.732 264.395 172.539C264.425 173.841 264.613 175.643 264.088 176.772L263.477 176.707L262.748 174.836C261.415 174.255 257.254 174.462 255.57 174.474C255.795 180.657 253.214 187.756 262.139 186.309C263.612 186.07 264.121 185.182 265.011 184.097C265.382 183.495 265.599 183.413 266.198 183.004L266.649 183.467C266.653 184.722 266.714 187.591 265.373 188.107C261.475 189.607 252.093 188.933 247.92 188.515C247.455 187.554 250.126 186.279 250.266 183.879C250.658 177.152 250.283 170.081 250.165 163.33C250.132 161.457 248.909 160.644 247.551 159.531L247.813 159.112C250.936 158.492 259.844 159.154 264.374 158.62Z" fill="white"/>
<path d="M280.298 158.498C288.75 158.586 288.479 158.193 288.583 166.859C287.513 165.524 285.438 162.351 284.313 161.422C281.236 158.664 275.565 163.464 277.968 166.177C282.08 170.82 287.782 173.402 289.373 180.112C290.649 185.496 284.835 188.515 280.409 189.461C277.956 189.536 275.247 189.794 273.377 188.239C271.87 185.838 272.951 182.492 273.449 179.549L274.306 185.366C276.838 186.503 279.09 187.645 282.031 186.486C290.108 183.3 277.763 174.809 275.094 172.442C274.378 171.808 273.656 170.825 273.528 169.669C272.746 162.617 273.117 160.3 280.298 158.498Z" fill="white"/>
<path d="M633.608 210.042C642.778 210.164 653.734 210.509 645.133 222.806C647.022 224.887 648.714 227.77 650.576 229.873C652.07 231.558 653.386 230.47 654.521 232.749C651.686 234.148 649.243 232.181 647.273 230.463C645.387 228.221 641.167 220.619 638.082 224.714C637.755 227.385 639.431 230.27 640.622 232.653C639.475 233.237 635.898 233.113 634.658 232.778L635.167 228.739C635.704 224.19 636.426 213.623 633.608 210.042ZM643.283 222.027C647.216 216.857 645.25 212.216 638.643 211.68C638.599 213.146 638.559 214.696 638.514 216.157C638.373 220.72 638.114 222.586 643.283 222.027Z" fill="white"/>
<path d="M397.536 158.579C397.964 158.564 398.521 158.748 398.96 158.861L399.114 159.335L397.713 160.093C395.149 163.172 395.691 181.022 396.73 185.329C397.047 186.641 402.823 186.354 404.055 186.336C405.21 185.291 407.088 183.038 408.194 181.776C407.604 184.051 407.766 186.86 406.546 188.288C405.359 189.204 403.829 188.915 402.294 188.837C399.15 188.733 390.096 189.342 387.718 188.265L387.565 187.6C388.22 187.368 389.937 186.838 390.048 186.054C391.116 178.514 391.257 169.556 390.168 162.047C390.002 160.908 387.136 159.395 386.184 158.846C390.566 158.916 393.131 158.929 397.536 158.579Z" fill="white"/>
<path d="M769.752 158.605L770.749 158.654L771.056 159.165C770.761 159.488 769.021 161.417 768.977 161.642C767.491 169.142 768.331 177.689 768.452 185.362C768.468 186.25 770.495 186.88 770.802 188.221C769.522 189.356 764.652 188.855 762.693 188.775L761.026 188.874C759.846 187.741 762.277 186.2 762.326 184.653C762.556 177.598 762.512 168.819 762.294 161.88C761.563 160.952 760.17 159.58 759.313 158.682C763.045 159.018 766.073 158.869 769.752 158.605Z" fill="white"/>
<path d="M541.063 158.593L542.012 159.007C541.281 160.309 539.444 161.866 539.323 163.516C539.016 167.703 538.317 183.929 540.082 186.763C540.902 187.062 541.427 187.167 541.96 187.876L541.427 188.439C539.198 189.027 535.519 188.93 533.108 188.961C532.228 188.547 531.546 188.45 531.243 187.744L533.023 186.75C534.086 184.667 533.561 166.39 533.609 163.042C533.625 161.916 531.848 160.923 531.76 159.224C532.361 158.843 539.549 158.686 541.063 158.593Z" fill="white"/>
<path d="M693.473 158.615L694.389 158.787C694.531 159.946 692.701 160.756 692.56 161.678C691.357 169.356 691.854 177.609 692.229 185.358C692.249 185.823 694.026 187.793 694.418 188.231C693.15 189.192 687.383 188.842 685.514 188.806C685.154 188.878 684.73 188.648 684.318 188.505L684.165 187.772C686.136 186.408 686.297 185.267 686.451 182.914C686.814 177.322 686.543 171.563 686.588 165.968C686.62 161.866 685.716 161.272 682.909 158.572C686.919 159.2 689.479 158.907 693.473 158.615Z" fill="white"/>
<path d="M521.067 228.122C521.253 222.769 522.218 214.873 519.468 210.7L519.908 210.191C521.491 210.063 522.258 210.061 523.841 210.168C524.443 211.885 523.062 211.724 523.074 214.915L523.025 232.692L522.666 233C520.421 232.742 507.285 217.961 505.476 215.284C505.447 220.15 505.282 226.187 505.746 231.059C505.779 231.402 507.139 232.161 507.547 232.416L507.208 232.759C505.746 232.936 504.244 233.226 502.823 232.891L502.496 232.226C502.681 231.849 502.843 231.45 503.045 231.081C504.309 228.76 503.412 213.735 503.372 209.946C506.748 212.259 518.85 224.737 521.067 228.122Z" fill="white"/>
<path d="M680.619 209.899C680.688 209.952 681.237 210.368 681.237 210.368C683.422 216.473 687.795 227.716 690.973 232.813C689.693 233.532 686.681 233.339 685.881 231.747C684.641 229.276 684.981 226.927 683.41 224.563C682.618 223.975 680.971 224.095 679.917 224.078C679.032 224.019 678.592 224.076 677.74 224.168C674.284 227.252 676 229.713 675.673 232.617C674.098 233.181 672.6 233.013 670.936 232.956L670.726 232.577C674.094 229.109 677.502 215.751 680.619 209.899Z" fill="white"/>
<path d="M379.149 209.842C381.789 211.525 385.623 225.123 387.022 228.642C387.798 230.595 389.762 230.727 390.309 232.602C389.617 233.255 386.551 233.067 385.305 233.092C384.72 231.218 383.194 225.107 382.23 224.053L381.096 224.004L375.886 223.902C374.861 226.873 374.579 229.025 373.951 232.017C373.715 233.143 371.082 233.515 370.074 232.796C370.375 232.282 370.661 231.755 371.025 231.283C373.043 228.666 377.621 213.872 379.149 209.842ZM380.891 223.066L381.707 222.721C381.672 221.542 379.773 215.848 379.01 215.219C378.368 216.92 376.841 220.331 377.071 221.941C378.047 223.613 378.996 223.179 380.891 223.066Z" fill="white"/>
<path d="M328.397 210.133L329.514 210.086L329.894 210.493C326.038 216.922 329.492 221.502 326.897 229.519L323.354 232.902C319.853 233.411 317.657 233.291 314.188 232.829C313.545 231.951 312.531 230.658 312.055 229.721C309.058 223.813 312.865 215.331 308.504 210.105C309.927 210.101 313.357 209.901 314.35 210.5C313.638 215.493 312.909 221.62 313.804 226.662C314.331 229.628 315.246 230.249 317.548 231.775C320.841 231.806 323.769 231.442 325.061 228.024C326.977 222.955 326.061 215.365 324.276 210.472C325.007 209.944 327.268 210.142 328.397 210.133Z" fill="white"/>
<path d="M577.087 214.731C577.083 219.249 576.946 224.087 577.281 228.58C577.446 230.799 577.883 231.075 579.429 232.304L579.098 232.786C577.588 233.145 574.975 233.343 573.598 232.547C573.962 232.158 574.955 231.111 575.024 230.648C575.625 226.651 574.309 213.824 575.637 210.704C578.714 209.325 589.032 226.346 593.211 227.244L594.588 226.596L595.186 234.579C589.391 228.768 581.969 221.276 577.087 214.731Z" fill="white"/>
<path d="M535.204 229.089C541.709 233.137 548.001 233.66 546.131 223.908C546.155 224.023 544.823 222.616 544.613 222.208C545.63 221.702 549.119 221.647 550.488 221.659L550.989 222.241C547.888 226.06 550.496 226.985 549.297 231.368C547.375 234.326 539.448 233.673 536.484 232.546C533.69 231.505 531.432 229.38 530.225 226.652C527.027 219.432 530.572 213.159 537.526 210.14C537.946 210.477 538.737 211.072 539.068 211.448C536.872 212.204 535.886 212.747 533.843 213.869C533.52 214.674 533.254 215.501 533.048 216.343C531.808 221.217 532.66 224.836 535.204 229.089Z" fill="white"/>
<path d="M292.749 210.179C296.478 209.896 299.907 210.155 303.594 210.586C303.732 211.661 304.282 215.285 303.67 215.976C303.396 215.625 302.403 214.101 302.262 213.976C296.787 209.146 287.464 211.49 286.576 219.118C286.259 222.081 287.127 225.05 288.992 227.374C291.35 230.318 293.601 231.324 297.201 231.711C300.933 231.534 300.812 230.836 303.702 228.378C303.998 229.685 303.344 231.584 302.995 232.948C298.823 233.455 292.929 233.801 289.207 231.562C279.736 225.864 281.968 212.787 292.749 210.179Z" fill="white"/>
<path d="M555.592 210.095C558.552 210.179 565.09 209.5 567.355 210.759C567.921 212.046 567.908 211.576 567.731 212.905C566.253 213.659 563.531 211.237 561.1 212.152C560.434 213.11 560.797 218.585 560.814 220.158C562.558 220.193 565.954 219.705 567.073 220.276C567.4 221.406 567.283 221.616 566.907 222.713C566.398 222.882 562.707 221.699 560.793 221.52L560.854 226.97C560.854 234.083 563.83 232.434 567.949 229.063L568.478 229.648C568.466 231.45 568.672 230.863 567.84 232.355C565.934 233.618 557.353 233.411 556.42 232.466C558.524 228.256 558.762 213.802 555.592 210.095Z" fill="white"/>
<path d="M615.348 210.097C618.772 210.235 623.908 209.321 626.695 210.716C627.623 211.842 627.389 211.342 627.502 212.823C626.565 213.213 623.743 211.992 620.706 212.068C620.767 214.773 620.856 217.459 620.751 220.164C622.378 220.194 626.061 219.703 627.111 220.219C627.413 221.444 627.304 221.653 626.897 222.852C625.273 223.475 623.723 220.704 621.049 221.827C620.589 222.725 620.791 226.32 620.811 227.573L621.009 230.201C623.816 234.021 626.129 229.304 628.411 229.697C628.471 230.949 628.467 231.112 627.983 232.262C626.206 233.722 618.909 233.069 616.066 233.053C618.505 228.614 618.356 217.079 616.91 212.066C616.785 211.625 615.731 210.487 615.348 210.097Z" fill="white"/>
<path d="M269.438 223.618C264.665 225.473 268.167 232.955 264.29 233.711C263.419 233.428 262.789 233.307 262.147 232.636C264.241 230.438 267.462 215.971 272.384 209.407C273.659 215.333 278.024 228.08 282.043 232.535C281.149 233.206 278.62 233.117 277.364 233.171C276.223 230.078 275.057 226.995 273.866 223.921L273.732 222.979C273.627 221.124 271.676 216.767 270.911 215.071C270.514 216.779 268.734 221.616 268.901 222.809L270.115 223.623L269.438 223.618Z" fill="white"/>
<path d="M350.361 210.266C353.694 210.095 367.187 209.176 368.925 211.532C368.854 212.75 368.965 212.325 368.161 213.354C366.071 212.767 362.55 211.301 361.038 213.048C360.438 216.377 360.729 226.885 361.011 230.382C361.341 231.614 361.578 231.468 362.777 232.459L362.622 232.701C361.117 233.061 357.996 233.44 356.6 232.706C358.344 224.846 357.783 220.038 357.654 212.077C354.662 212.005 350.4 213.274 349.56 212.953C349.388 211.872 349.849 211.245 350.361 210.266Z" fill="white"/>
<path d="M246.748 210.135C248.852 210.138 258.483 209.835 259.652 210.603C260.004 211.894 260.094 212.132 259.949 213.451C257.923 214.436 255.784 211.606 253.556 211.638L252.893 212.338C252.432 213.656 252.08 218.894 252.394 220.13L252.458 221.538C252.404 223.873 252.228 227.909 252.54 230.311C252.596 230.747 253.641 230.941 253.796 232.611C252.892 233.331 249.23 233.063 247.953 233.011C247.075 232.026 248.873 230.902 249.01 229.575C249.509 224.748 249.239 218.449 249.165 213.619C248.633 212.669 247.42 211.076 246.748 210.135Z" fill="white"/>
<path d="M335.54 210.071C336.944 210.095 341.684 209.92 342.481 210.471C342.216 210.866 341.958 211.265 341.707 211.669C341.41 212.148 340.465 213.714 340.441 214.196C340.179 219.314 339.977 226.572 341.128 231.419L346.677 231.472C347.872 230.118 348.363 229.455 349.962 228.535C349.781 229.711 348.801 231.973 348.331 233.167C346.223 233.173 340.413 233.281 337.958 232.983C336.549 232.811 336.756 232.648 336.787 231.345C336.912 226.073 338.827 214.229 335.54 210.071Z" fill="white"/>
<path d="M464.404 221.525C464.194 224.118 463.879 228.109 464.566 230.549C467.053 233.376 470.259 229.737 472.694 230.22L472.828 231.301C471.511 233.917 463.156 233.497 460.717 232.882C460.305 230.907 461.84 230.413 461.917 228.422C462.094 223.902 461.949 219.285 462.014 214.761C462.038 212.782 460.148 212.266 460.398 210.33C462.571 209.541 470.744 209.664 472.432 211.585L472.343 212.42C471.721 213.038 471.547 213.328 470.687 213.484C468.781 211.324 467.009 212.007 464.19 212.069C464.174 214.737 464.461 217.852 464.029 220.439L464.404 221.525Z" fill="white"/>
<path d="M603.125 210.071L609.816 210.02C605.903 214.881 607.207 223.789 607.583 229.775C607.675 231.227 608.592 231.631 609.674 232.319L609.384 232.678C607.849 233.227 604.97 233.086 603.23 233.084C604.792 228.678 604.885 214.571 603.125 210.071Z" fill="white"/>
<path d="M495.186 210.089C492.832 213.929 492.142 229.498 495.34 232.709C494.298 233.101 491.391 233.048 490.175 233.008L489.8 232.541C489.985 232.052 490.155 231.558 490.308 231.058C491.229 228.036 491.286 213.911 489.299 210.138L495.186 210.089Z" fill="white"/>
<path d="M659.395 210.076L665.024 210.12C662.549 215.029 663.138 224.429 663.631 229.975C663.764 231.488 664.838 231.939 665.957 232.661C663.857 233.118 662.286 233.088 660.158 233.089C658.979 232.44 660.057 231.714 660.243 230.35C661.059 224.363 661.418 215.711 659.395 210.076Z" fill="white"/>
<path d="M593.211 227.244C593.162 222.561 593.207 217.673 592.904 213.009C592.835 211.888 590.655 211.389 591.256 210.165C593.308 209.947 594.349 210.004 596.389 210.108L596.687 210.627C595.702 211.89 594.596 213.002 594.507 214.541C594.273 218.522 594.475 222.603 594.588 226.596L593.211 227.244Z" fill="white"/>
<path d="M537.526 210.14C542.275 210.083 545.15 209.944 549.83 210.972L549.781 215.388C545.768 211.921 544.128 211.594 539.068 211.448C538.737 211.072 537.946 210.477 537.526 210.14Z" fill="white"/>
<path d="M770.115 150.299L771.27 150.276C771.989 151.087 771.965 151.314 772.029 152.35C770.547 154.895 767.672 154.151 764.195 155.924C763.856 156.099 763.622 156.213 763.436 156.561L762.98 156.213C763.711 153.971 768.06 151.55 770.115 150.299Z" fill="white"/>
<path d="M464.028 220.439C465.914 220.167 469.649 219.665 471.361 220.309C471.899 221.361 471.676 221.432 471.571 222.809L471.038 223.399C467.622 221.581 468.624 221.777 464.404 221.525L464.028 220.439Z" fill="white"/>
<path d="M252.394 220.13C254.203 220.088 257.159 219.832 258.693 220.547C259.253 221.623 259.111 221.249 258.822 222.653L258.187 223.151C255.012 222.061 256.346 221.593 252.458 221.538L252.394 220.13Z" fill="white"/>
<path d="M268.901 222.809C270.922 223.043 271.679 223.08 273.732 222.979L273.866 223.921C272.205 224.115 271.027 224.339 269.438 223.618L270.116 223.623L268.901 222.809Z" fill="white"/>
</svg>
